<?xml version="1.0" encoding="UTF-8" standalone="no"?>
<!DOCTYPE svg PUBLIC "-//W3C//DTD SVG 1.1//EN" "http://www.w3.org/Graphics/SVG/1.1/DTD/svg11.dtd">
<svg width="100%" height="100%" viewBox="0 0 863 935" version="1.1" xmlns="http://www.w3.org/2000/svg" xmlns:xlink="http://www.w3.org/1999/xlink" xml:space="preserve" style="fill-rule:evenodd;clip-rule:evenodd;stroke-linejoin:round;stroke-miterlimit:1.41421;">
    <g transform="matrix(1,0,0,1,-407.064,-334.257)">
        <g transform="matrix(4.16667,0,0,4.16667,0,0)">
            <path d="M199.172,150.096L199.842,144.996C198.564,147.654 197.999,150.865 198.396,154.744C198.83,158.972 201.159,163.16 204.844,167.239L200.14,159.006L199.172,150.096Z" style="fill:white;fill-rule:nonzero;"/>
        </g>
        <g transform="matrix(4.16667,0,0,4.16667,0,0)">
            <path d="M301.266,248.633C301.059,247.698 300.779,246.835 300.442,246.029C299.424,243.588 297.885,241.724 296.255,240.318L295.079,238.716C295.079,238.716 294.526,238.582 293.585,238.404C293.353,238.267 293.127,238.14 292.903,238.019C294.204,237.075 294.224,236.011 289.463,236.076C289.328,236.024 289.188,235.98 289.048,235.935C289.525,234.52 290.893,229.74 291.088,220.897L291.98,213.534L287.914,188.837L287.505,187.817C286.003,180.634 283.937,172.568 281.132,163.559C264.862,111.259 219.536,131.791 219.536,131.791L218.976,132.35C200.981,114.551 179.923,127.529 179.923,127.529C179.923,127.529 172.761,117.334 160.65,104.673C134.306,76.392 115.323,81.816 107.575,88.401C104.468,91.042 102.05,94.557 101.012,98.618C100.536,100.483 100.354,102.464 100.53,104.53C100.555,104.644 100.574,104.748 100.602,104.866C101.765,109.903 103.314,112.808 106.413,116.682C107.875,118.511 110.763,121.504 113.79,124.665C117.177,128.201 120.741,131.945 122.684,134.503C124.952,137.487 129.498,141.72 132.656,144.531C140.92,154.425 146.838,163.427 151.017,170.863L154.608,177.688C154.877,178.237 155.135,178.771 155.382,179.294L159.773,191.554L159.343,191.984L158.705,192.157C155.214,191.567 129.151,187.518 115.441,195.556L113.967,195.325L108.932,200.362L108.634,202.623L107.963,207.723L108.932,216.633L113.636,224.865L114.355,226.125L117.811,228.958C118.976,229.983 120.219,230.998 121.529,232.005L126.17,235.81L138.955,243.171L141.422,244.299C151.773,249.676 163.17,254.506 173.663,258.526L179.052,260.797L198.423,267.383L203.383,268.811C207.684,270.147 210.239,270.87 210.239,270.87C210.239,270.87 210.002,273.231 209.79,276.514L208.882,278.231L209.516,282.245C209.482,283.357 209.463,284.484 209.463,285.591C209.463,287.606 209.984,289.88 211.067,292.069L211.206,292.953L211.835,293.448C214.812,298.244 220.686,302.23 229.995,301.474C244.33,300.313 301.666,272.808 301.666,253.05C301.712,251.431 301.561,249.966 301.266,248.633" style="fill:white;fill-rule:nonzero;"/>
        </g>
        <g transform="matrix(4.16667,0,0,4.16667,0,0)">
            <path d="M219.678,265.834C219.678,265.834 209.411,283.656 218.709,289.271C228.007,294.89 253.963,280.554 271.01,268.738C304.714,242.783 281.856,237.36 273.526,239.684C281.663,235.421 295.221,238.716 295.221,238.716L301.614,247.432L300.451,254.211L297.741,260.798L284.762,272.613L260.743,288.496L235.756,299.925L219.678,299.539L211.349,292.953L209.025,278.231L214.255,268.352L219.678,265.834Z" style="fill:rgb(209,211,212);fill-rule:nonzero;"/>
        </g>
        <g transform="matrix(4.16667,0,0,4.16667,0,0)">
            <path d="M120.308,196.294C120.308,196.294 113.335,199.78 113.335,206.173C113.335,212.565 113.723,218.569 134.448,229.418C170.477,248.981 214.836,258.859 214.836,258.859C214.836,258.859 220.065,254.937 234.738,253.05C233.867,253.63 229.363,254.599 222.971,261.185C216.579,267.771 212.706,271.451 212.706,271.451L198.564,267.383L179.193,260.797L159.436,252.468L139.097,243.171L126.313,235.81L114.497,226.125L109.073,216.633L108.105,207.723L109.073,200.362L114.11,195.325L120.308,196.294Z" style="fill:rgb(209,211,212);fill-rule:nonzero;"/>
        </g>
        <g transform="matrix(4.16667,0,0,4.16667,0,0)">
            <path d="M279.338,167.046C279.338,167.046 282.242,182.735 283.696,203.655C285.148,224.574 276.723,238.521 276.723,238.521L288.054,236.488L289.797,232.711L292.122,213.534L288.054,188.837L279.338,167.046Z" style="fill:rgb(209,211,212);fill-rule:nonzero;"/>
        </g>
        <g transform="matrix(4.16667,0,0,4.16667,0,0)">
            <path d="M151.494,194.162C151.494,194.162 160.792,194.551 168.541,198.231C176.288,201.912 178.806,194.357 173.77,185.834C168.732,177.311 148.394,144.963 131.93,130.435C115.465,115.907 106.361,112.227 105.586,102.736C104.811,93.244 111.203,88.981 111.203,88.981C111.203,88.981 105.973,88.981 103.455,94.212C100.937,99.442 99.581,99.83 100.744,104.866C101.906,109.902 103.455,112.808 106.555,116.682C109.654,120.556 119.146,129.66 122.826,134.503C126.506,139.346 136.192,147.481 136.192,147.481L147.62,164.14L155.368,178.861L160.016,191.838L151.494,194.162Z" style="fill:rgb(209,211,212);fill-rule:nonzero;"/>
        </g>
        <g transform="matrix(4.16667,0,0,4.16667,0,0)">
            <path d="M157.585,192.544C157.585,192.544 157.584,192.537 157.57,192.485C157.557,192.434 157.533,192.351 157.501,192.236C157.436,192.005 157.333,191.649 157.183,191.175C156.882,190.227 156.4,188.806 155.683,186.97C154.248,183.299 151.874,177.968 148.147,171.44C140.692,158.383 127.826,140.537 106.189,121.579L106.085,121.488L105.984,121.381C100.242,115.276 97.686,108.893 97.695,102.993C97.697,96.084 101.131,90.173 105.834,86.188C109.53,83.041 115.36,80.222 122.918,80.222C133.574,80.225 147.203,85.807 162.891,102.664C180.184,120.753 194.552,142.916 194.608,142.993C195.481,144.34 195.099,146.141 193.753,147.014C192.407,147.887 190.608,147.504 189.733,146.158C189.733,146.157 189.522,145.832 189.104,145.203C188.685,144.574 188.065,143.652 187.269,142.49C185.674,140.164 183.369,136.875 180.534,133.032C174.87,125.348 167.084,115.453 158.666,106.652C143.585,90.481 131.451,86.032 122.918,86.034C116.832,86.034 112.341,88.289 109.597,90.615C105.946,93.729 103.503,98.073 103.506,102.993C103.516,107.18 105.232,112.025 110.132,117.309C154.326,156.067 163.123,190.699 163.223,191.134C163.612,192.69 162.666,194.268 161.108,194.658C160.872,194.717 160.635,194.745 160.402,194.745C159.1,194.745 157.915,193.864 157.585,192.544" style="fill:rgb(35,31,32);fill-rule:nonzero;"/>
        </g>
        <g transform="matrix(4.16667,0,0,4.16667,0,0)">
            <path d="M222.714,141.197C218.281,134.82 213.718,130.955 209.381,128.649C205.044,126.348 200.895,125.579 197.164,125.575C189.604,125.554 183.772,128.889 183.284,129.198L183.258,129.214C181.901,130.069 180.106,129.66 179.251,128.302C178.397,126.944 178.805,125.15 180.164,124.296C180.42,124.154 187.31,119.789 197.164,119.764C201.702,119.76 206.871,120.731 212.109,123.518C217.349,126.299 222.619,130.869 227.487,137.883C228.401,139.2 228.076,141.011 226.758,141.926C226.252,142.277 225.675,142.446 225.102,142.446C224.182,142.445 223.278,142.009 222.714,141.197" style="fill:rgb(35,31,32);fill-rule:nonzero;"/>
        </g>
        <g transform="matrix(4.16667,0,0,4.16667,0,0)">
            <path d="M211.856,298.045C208.356,294.297 206.713,289.687 206.698,285.592C206.7,280.856 207.042,275.857 207.275,272.987C197.923,270.206 162.153,259.122 135.455,244.317C125.131,238.573 116.134,232.312 110.407,225.413C107.149,221.466 104.915,217.229 104.439,212.669C104.344,211.747 104.297,210.85 104.297,209.977C104.284,205.422 105.619,201.497 107.926,198.434C110.228,195.364 113.39,193.178 116.893,191.619C123.915,188.514 132.436,187.724 140.074,187.709C150.734,187.713 159.661,189.353 159.766,189.368C161.344,189.658 162.389,191.172 162.101,192.75C161.81,194.329 160.297,195.374 158.718,195.085C158.717,195.085 158.22,194.993 157.265,194.847C156.309,194.7 154.919,194.503 153.212,194.307C149.797,193.914 145.106,193.52 140.074,193.52C134.674,193.516 128.875,193.981 123.904,195.314C118.908,196.64 114.872,198.824 112.578,201.919C111.04,203.993 110.121,206.502 110.107,209.977C110.107,210.641 110.143,211.341 110.218,212.075C110.484,214.698 111.708,217.51 113.896,220.449C116.075,223.382 119.192,226.396 122.993,229.357C130.596,235.29 140.904,241.006 151.763,246.083C173.487,256.253 197.412,263.928 206.923,266.816C209.642,267.643 211.166,268.072 211.17,268.075L213.512,268.736L213.271,271.16C213.271,271.165 213.082,273.048 212.89,275.815C212.699,278.582 212.51,282.21 212.51,285.592C212.496,288.096 213.628,291.471 216.089,294.064C218.558,296.656 222.244,298.64 227.901,298.661C228.543,298.661 229.211,298.635 229.901,298.579C231.781,298.439 235.187,297.6 239.272,296.181C243.376,294.763 248.234,292.781 253.364,290.393C263.627,285.619 274.996,279.203 283.793,272.478C289.66,268.01 294.367,263.362 296.828,259.254C298.246,256.908 298.907,254.803 298.902,253.049L298.902,253.002L298.902,252.982C298.906,252.796 298.908,252.624 298.908,252.466C298.87,247.104 296.525,244.128 293.933,242.049C291.381,240.046 288.572,239.267 288.357,239.218L288.357,239.219L285.028,238.435L286.337,235.282L286.336,235.282C286.344,235.263 286.359,235.222 286.381,235.16C286.426,235.034 286.497,234.823 286.588,234.523C286.77,233.92 287.025,232.962 287.284,231.618C287.806,228.932 288.346,224.712 288.346,218.764C288.346,207.403 286.371,189.73 278.499,164.422C274.073,150.231 267.605,141.936 260.724,137.078C253.837,132.227 246.367,130.729 239.654,130.725C229.788,130.711 221.724,134.059 220.936,134.411C220.883,134.435 220.877,134.438 220.876,134.438L220.877,134.438C219.415,135.102 217.692,134.452 217.03,132.99C216.369,131.529 217.017,129.808 218.479,129.145C218.695,129.059 227.761,124.93 239.654,124.913C247.214,124.909 255.995,126.632 264.071,132.328C272.153,138.014 279.358,147.59 284.048,162.696C292.067,188.471 294.158,206.729 294.158,218.764C294.158,226.491 293.293,231.652 292.588,234.572C293.159,234.818 293.787,235.117 294.453,235.477C297.015,236.866 300.178,239.196 302.345,243.011C303.786,245.546 304.726,248.726 304.72,252.466C304.72,252.679 304.716,252.88 304.712,253.075C304.669,257.861 302.22,262.328 298.648,266.621C295.039,270.925 290.151,275.115 284.605,279.106C273.514,287.077 259.776,294.219 248.49,298.881C240.923,301.984 234.629,303.998 230.371,304.371C229.526,304.439 228.703,304.473 227.901,304.473L227.822,304.473C220.771,304.473 215.336,301.774 211.856,298.045" style="fill:rgb(35,31,32);fill-rule:nonzero;"/>
        </g>
        <g transform="matrix(4.16667,0,0,4.16667,0,0)">
            <path d="M289.111,239.398C282.194,237.02 273.105,239.601 273.105,239.601C273.105,239.601 283.865,233.825 289.604,236.077C298.369,235.955 290.941,239.669 289.111,239.398" style="fill:rgb(35,31,32);fill-rule:nonzero;"/>
        </g>
        <g transform="matrix(4.16667,0,0,4.16667,0,0)">
            <path d="M212.355,283.778C214.228,264.824 235.755,252.662 235.755,252.662C235.755,252.662 220.467,258.032 211.317,270.083C210.848,271.506 210.381,277.314 210.381,277.314C210.381,277.314 211.992,286.847 212.355,283.778" style="fill:rgb(35,31,32);fill-rule:nonzero;"/>
        </g>
        <g transform="matrix(4.16667,0,0,4.16667,0,0)">
            <path d="M184.521,128.596C184.521,128.596 189.267,136.246 189.848,146.416C190.333,147.287 196.627,158.425 196.531,144.963C196.434,131.501 184.521,128.596 184.521,128.596" style="fill:rgb(209,211,212);fill-rule:nonzero;"/>
        </g>
        <g transform="matrix(4.16667,0,0,4.16667,0,0)">
            <path d="M223.959,133.265C224.854,138.011 222.978,141.54 222.978,141.54C222.978,141.54 228.69,149.064 228.637,141.839C228.584,134.614 224.371,133.75 223.959,133.265" style="fill:rgb(209,211,212);fill-rule:nonzero;"/>
        </g>
        <g transform="matrix(4.16667,0,0,4.16667,0,0)">
            <path d="M230.763,154.75C230.93,152.258 237.575,152.092 240.067,156.743C242.56,161.395 236.413,166.546 235.583,164.054C234.751,161.562 235.914,161.562 234.252,159.07C232.592,156.578 230.597,157.242 230.763,154.75" style="fill:rgb(209,211,212);fill-rule:nonzero;"/>
        </g>
        <g transform="matrix(4.16667,0,0,4.16667,0,0)">
            <path d="M257.493,151.928C257.63,149.874 263.106,149.738 265.159,153.571C267.213,157.403 262.148,161.648 261.464,159.594C260.779,157.54 261.737,157.54 260.369,155.487C258.998,153.433 257.355,153.982 257.493,151.928" style="fill:rgb(209,211,212);fill-rule:nonzero;"/>
        </g>
    </g>
</svg>
