<?xml version="1.0" encoding="UTF-8" standalone="no"?>
<!DOCTYPE svg PUBLIC "-//W3C//DTD SVG 1.1//EN" "http://www.w3.org/Graphics/SVG/1.1/DTD/svg11.dtd">
<svg width="100%" height="100%" viewBox="0 0 211 276" version="1.1" xmlns="http://www.w3.org/2000/svg" xmlns:xlink="http://www.w3.org/1999/xlink" xml:space="preserve" style="fill-rule:evenodd;clip-rule:evenodd;stroke-linecap:round;stroke-linejoin:round;">
    <g transform="matrix(1,0,0,1,-67.5992,-51.578)">
        <g>
            <path id="path29274" d="M134.03,52.828L144.655,63.453L144.655,130.765C137.568,141.395 96.221,220.539 73.78,265.425C66.693,279.598 66.713,297.314 77.343,311.487C84.429,322.117 96.805,325.675 109.218,325.675L236.778,325.675C249.192,325.675 261.565,322.117 268.653,311.487C279.283,297.314 279.302,279.598 272.215,265.425C252.136,220.543 228.513,175.651 208.434,130.765L208.434,63.453L218.715,53.172L219.059,52.828L134.028,52.828L134.03,52.828Z" style="fill:rgb(215,233,252);fill-opacity:0.0941176;stroke:rgb(159,171,185);stroke-width:2.5px;"/>
        </g>
        <path id="path6038" d="M195.94,63.159L195.94,131.909C218.493,179.605 241.156,227.27 263.643,274.989C269.934,289.884 262.087,307.245 248.479,314.877C236.345,323.021 221.4,319.872 207.737,320.434L178.733,320.434C196.042,318.205 213.704,317.785 230.781,314.342C241.997,310.841 255.622,304.601 256.308,291.053C257.013,276.591 247.941,264.354 243.116,251.284C225.724,211.494 208.332,171.704 190.94,131.914L190.94,63.164L199.977,54.079L205.009,54.079L195.939,63.164L195.94,63.164L195.94,63.159Z" style="fill:white;"/>
        <path id="path1613" d="M150.61,63.159L150.61,131.909C128.056,179.605 100.921,222.945 78.434,270.659C72.143,285.554 77.184,305.659 89.684,314.409C102.184,320.659 98.434,319.409 112.562,321.048C122.23,321.048 158.148,320.429 167.816,320.429C150.507,318.2 132.845,317.78 115.768,314.337C104.552,310.836 90.927,304.596 90.242,291.048C89.537,276.586 98.608,264.349 103.434,251.279C120.826,211.489 138.219,171.699 155.611,131.909L155.611,63.159L146.573,54.074L141.541,54.074L150.611,63.159L150.61,63.159Z" style="fill-opacity:0.172549;"/>
    </g>
</svg>
