<?xml version="1.0" encoding="UTF-8" standalone="no"?>
<!DOCTYPE svg PUBLIC "-//W3C//DTD SVG 1.1//EN" "http://www.w3.org/Graphics/SVG/1.1/DTD/svg11.dtd">
<svg width="100%" height="100%" viewBox="0 0 109 130" version="1.1" xmlns="http://www.w3.org/2000/svg" xmlns:xlink="http://www.w3.org/1999/xlink" xml:space="preserve" style="fill-rule:evenodd;clip-rule:evenodd;stroke-miterlimit:10;">
    <g transform="matrix(1,0,0,1,-201.283,-260.291)">
        <g transform="matrix(1,0,0,1,-438.408,-370.999)">
            <path d="M680.057,646.005C680.057,646.005 682.752,658.922 658.187,667.654L658.69,667.728C650.575,669.762 644.716,675.528 644.716,682.335L644.716,740.411C644.716,748.916 653.85,755.811 665.118,755.811L723.205,755.811C734.473,755.811 743.608,748.916 743.608,740.411L743.608,682.335C743.608,675.321 737.389,669.413 728.894,667.556C704.622,658.825 707.288,646.005 707.288,646.005" style="fill:rgb(73,58,49);fill-rule:nonzero;stroke:rgb(28,28,27);stroke-width:1px;"/>
        </g>
        <g transform="matrix(1,0,0,1,-438.408,-370.999)">
            <path d="M710.17,641.579C710.17,644.484 707.046,646.841 703.196,646.841L682.752,646.841C678.899,646.841 675.777,644.484 675.777,641.579C675.777,638.67 678.899,636.315 682.752,636.315L703.196,636.315C707.046,636.315 710.17,638.67 710.17,641.579" style="fill:rgb(73,58,49);fill-rule:nonzero;"/>
        </g>
        <g transform="matrix(1,0,0,1,-438.408,-370.999)">
            <path d="M710.17,641.579C710.17,644.484 707.046,646.841 703.196,646.841L682.752,646.841C678.899,646.841 675.777,644.484 675.777,641.579C675.777,638.67 678.899,636.315 682.752,636.315L703.196,636.315C707.046,636.315 710.17,638.67 710.17,641.579Z" style="fill:none;stroke:rgb(28,28,27);stroke-width:1px;"/>
        </g>
        <g transform="matrix(1,0,0,1,-438.408,-370.999)">
            <path d="M703.353,660.118C703.353,660.118 703.67,666.34 717.459,673.275C731.247,680.214 730.612,679.736 731.723,685.597C732.08,687.495 736.636,688.707 735.999,683.562C735.368,678.42 734.415,674.834 723.483,670.046C712.545,665.262 705.57,663.826 703.353,660.118" style="fill:rgb(136,123,114);fill-rule:nonzero;"/>
        </g>
        <g transform="matrix(1,0,0,1,-438.408,-370.999)">
            <path d="M683.229,653.898C683.229,653.898 683.861,662.39 672.292,667.414C660.724,672.439 651.691,674.952 651.691,684.16L651.691,740.02C651.691,740.02 651.531,753.059 663.102,753.059C674.667,753.059 682.912,753.774 679.899,752.339C676.888,750.905 668.171,746.597 667.697,741.693C667.221,736.792 665.794,737.03 664.844,740.857C663.893,744.684 663.102,744.567 662.783,738.107C662.466,731.647 659.929,700.187 663.893,692.293C667.855,684.4 677.046,673.275 682.434,669.686C687.822,666.096 688.14,663.947 686.238,664.544C684.336,665.14 685.761,665.381 683.861,665.741C681.958,666.096 688.932,655.452 683.229,653.898" style="fill:rgb(136,123,114);fill-rule:nonzero;"/>
        </g>
        <g transform="matrix(0.899837,0,0,1,24.8015,0)">
            <rect x="213.282" y="314.168" width="86.534" height="18.4" style="fill:white;"/>
        </g>
        <g transform="matrix(1,0,0,1,2.03198,0.884739)">
            <text x="217.72px" y="325.188px" style="font-family:'ArialMT', 'Arial', sans-serif;font-size:10px;fill:rgb(3,0,0);">água de colónia</text>
        </g>
    </g>
</svg>
