<?xml version="1.0" encoding="UTF-8" standalone="no"?>
<!DOCTYPE svg PUBLIC "-//W3C//DTD SVG 1.1//EN" "http://www.w3.org/Graphics/SVG/1.1/DTD/svg11.dtd">
<svg width="100%" height="100%" viewBox="0 0 233 151" version="1.1" xmlns="http://www.w3.org/2000/svg" xmlns:xlink="http://www.w3.org/1999/xlink" xml:space="preserve" style="fill-rule:evenodd;clip-rule:evenodd;stroke-linejoin:round;stroke-miterlimit:1.41421;">
    <g transform="matrix(1,0,0,1,-1390.33,-1246.5)">
        <g transform="matrix(2,0,0,2,0,0)">
            <path d="M747.547,671.118C756.059,664.879 766.08,664.08 769.937,669.334C773.791,674.592 770.017,683.914 761.511,690.153C752.997,696.396 742.977,697.194 739.121,691.938C735.268,686.684 739.04,677.359 747.547,671.118Z" style="fill:url(#_Radial1);"/>
            <path d="M757.185,624.53C767.286,627.583 773.953,635.113 772.063,641.358C770.178,647.597 760.459,650.179 750.356,647.125C740.255,644.075 733.597,636.545 735.48,630.306C737.363,624.066 747.083,621.48 757.185,624.53Z" style="fill:url(#_Radial2);"/>
            <path d="M716.726,657.639C727.275,657.621 735.841,662.887 735.854,669.405C735.869,675.924 727.32,681.224 716.77,681.247C706.211,681.266 697.646,675.995 697.632,669.481C697.625,662.962 706.167,657.661 716.726,657.639Z" style="fill:url(#_Radial3);"/>
            <path d="M774.255,646.25C784.813,646.227 793.377,651.496 793.384,658.014C793.4,664.528 784.856,669.835 774.3,669.853C763.747,669.871 755.183,664.604 755.176,658.088C755.154,651.57 763.704,646.269 774.255,646.25Z" style="fill:url(#_Radial4);"/>
            <path d="M787.425,667.543C795.231,660.447 805.12,658.608 809.506,663.424C813.883,668.249 811.109,677.917 803.303,685.014C795.488,692.11 785.606,693.953 781.222,689.13C776.838,684.308 779.61,674.643 787.425,667.543Z" style="fill:url(#_Radial5);"/>
            <path d="M749.916,647.394C755.478,649.07 758.465,655.494 756.581,661.734C754.697,667.978 748.657,671.672 743.089,669.986C737.518,668.304 734.531,661.885 736.422,655.646C738.305,649.403 744.346,645.713 749.916,647.394Z" style="fill:url(#_Radial6);"/>
            <rect x="727.21" y="684.48" width="12.618" height="13.796" style="fill:rgb(41,27,19);fill-rule:nonzero;"/>
            <path d="M740.828,683.48L740.828,684.573L743.986,684.573C742.812,687.683 740.896,690.649 738.517,692.733C733.758,696.902 728.949,695.968 727.776,690.648C727.19,687.988 727.624,684.736 728.799,681.626L728.799,683.48L740.828,683.48Z" style="fill:rgb(41,27,19);fill-rule:nonzero;"/>
            <path d="M740.828,683.48L740.828,684.561L743.917,684.561C742.753,687.642 740.854,690.58 738.497,692.646C733.781,696.777 729.017,695.851 727.854,690.579C727.273,687.944 727.703,684.72 728.868,681.639L728.868,683.48L740.828,683.48Z" style="fill:rgb(42,28,20);fill-rule:nonzero;"/>
            <path d="M740.828,683.48L740.828,684.547L743.849,684.547C742.695,687.6 740.813,690.512 738.478,692.558C733.806,696.651 729.085,695.735 727.934,690.511C727.357,687.899 727.782,684.705 728.937,681.653L728.937,683.48L740.828,683.48Z" style="fill:rgb(43,29,20);fill-rule:nonzero;"/>
            <path d="M740.828,683.48L740.828,684.534L743.78,684.534C742.637,687.559 740.772,690.443 738.458,692.47C733.829,696.525 729.152,695.617 728.012,690.443C727.441,687.855 727.862,684.69 729.005,681.665L729.005,683.48L740.828,683.48Z" style="fill:rgb(44,29,21);fill-rule:nonzero;"/>
            <path d="M740.828,683.48L740.828,684.52L743.71,684.52C742.578,687.516 740.731,690.373 738.438,692.382C733.854,696.4 729.22,695.5 728.09,690.373C727.524,687.811 727.942,684.676 729.075,681.68L729.075,683.48L740.828,683.48Z" style="fill:rgb(45,30,21);fill-rule:nonzero;"/>
            <path d="M740.828,683.48L740.828,684.507L743.642,684.507C742.52,687.475 740.69,690.305 738.42,692.295C733.877,696.274 729.288,695.383 728.168,690.305C727.608,687.766 728.022,684.66 729.144,681.693L729.144,683.48L740.828,683.48Z" style="fill:rgb(47,31,22);fill-rule:nonzero;"/>
            <path d="M740.828,683.48L740.828,684.493L743.572,684.493C742.462,687.433 740.649,690.237 738.4,692.207C733.901,696.149 729.355,695.266 728.246,690.237C727.692,687.721 728.103,684.646 729.213,681.706L729.213,683.48L740.828,683.48Z" style="fill:rgb(48,32,22);fill-rule:nonzero;"/>
            <path d="M740.828,683.48L740.828,684.481L743.503,684.481C742.403,687.392 740.608,690.168 738.381,692.119C733.926,696.023 729.423,695.15 728.325,690.167C727.776,687.676 728.182,684.63 729.282,681.719L729.282,683.48L740.828,683.48Z" style="fill:rgb(49,32,22);fill-rule:nonzero;"/>
            <path d="M740.828,683.48L740.828,684.467L743.435,684.467C742.345,687.35 740.567,690.1 738.361,692.032C733.949,695.898 729.49,695.032 728.403,690.099C727.859,687.633 728.261,684.616 729.351,681.733L729.351,683.48L740.828,683.48Z" style="fill:rgb(50,33,23);fill-rule:nonzero;"/>
            <path d="M740.828,683.48L740.828,684.453L743.365,684.453C742.286,687.308 740.527,690.03 738.343,691.945C733.974,695.772 729.559,694.915 728.481,690.03C727.942,687.588 728.341,684.602 729.42,681.746L729.42,683.48L740.828,683.48Z" style="fill:rgb(51,34,23);fill-rule:nonzero;"/>
            <path d="M740.828,683.48L740.828,684.44L743.296,684.44C742.228,687.266 740.486,689.962 738.323,691.857C733.997,695.647 729.626,694.798 728.56,689.962C728.026,687.543 728.421,684.586 729.489,681.76L729.489,683.48L740.828,683.48Z" style="fill:rgb(52,35,23);fill-rule:nonzero;"/>
            <path d="M740.828,683.48L740.828,684.427L743.227,684.427C742.169,687.225 740.444,689.894 738.304,691.77C734.021,695.521 729.693,694.681 728.639,689.893C728.11,687.498 728.501,684.57 729.559,681.773L729.559,683.48L740.828,683.48Z" style="fill:rgb(54,36,23);fill-rule:nonzero;"/>
            <path d="M740.828,683.48L740.828,684.412L743.157,684.412C742.11,687.183 740.403,689.824 738.284,691.682C734.045,695.396 729.762,694.564 728.717,689.824C728.194,687.455 728.581,684.557 729.628,681.787L729.628,683.48L740.828,683.48Z" style="fill:rgb(55,36,23);fill-rule:nonzero;"/>
            <path d="M740.828,683.48L740.828,684.4L743.089,684.4C742.054,687.141 740.363,689.756 738.266,691.594C734.069,695.27 729.829,694.447 728.795,689.756C728.278,687.41 728.66,684.541 729.696,681.8L729.696,683.48L740.828,683.48Z" style="fill:rgb(55,37,24);fill-rule:nonzero;"/>
            <path d="M743.912,676.513C744.936,681.155 742.398,687.868 738.246,691.507C734.093,695.145 729.896,694.33 728.873,689.687C728.361,687.365 728.739,684.527 729.765,681.813L729.765,683.48L740.828,683.48L743.912,676.513Z" style="fill:rgb(57,38,24);fill-rule:nonzero;"/>
            <path d="M743.834,676.581C744.847,681.176 742.336,687.819 738.227,691.419C734.117,695.019 729.965,694.213 728.951,689.618C728.444,687.32 728.819,684.512 729.834,681.826L729.834,683.48L740.828,683.48L743.834,676.581Z" style="fill:rgb(58,39,25);fill-rule:nonzero;"/>
            <path d="M743.755,676.65C744.758,681.195 742.273,687.769 738.207,691.331C734.141,694.894 730.032,694.096 729.03,689.55C728.528,687.278 728.899,684.497 729.903,681.84L729.903,683.48L740.828,683.48L743.755,676.65Z" style="fill:rgb(61,40,26);fill-rule:nonzero;"/>
            <path d="M743.677,676.718C744.668,681.216 742.211,687.719 738.188,691.243C734.165,694.768 730.1,693.979 729.108,689.482C728.612,687.233 728.979,684.483 729.973,681.854L729.973,683.48L740.828,683.48L743.677,676.718Z" style="fill:rgb(62,40,26);fill-rule:nonzero;"/>
            <path d="M743.599,676.787C744.579,681.237 742.148,687.67 738.169,691.156C734.188,694.643 730.168,693.862 729.187,689.412C728.696,687.188 729.059,684.467 730.041,681.866L730.041,683.48L740.828,683.48L743.599,676.787Z" style="fill:rgb(63,41,26);fill-rule:nonzero;"/>
            <path d="M743.521,676.856C744.49,681.257 742.086,687.62 738.149,691.069C734.213,694.517 730.235,693.745 729.265,689.344C728.78,687.143 729.139,684.451 730.11,681.88L730.11,683.48L740.828,683.48L743.521,676.856Z" style="fill:rgb(64,43,27);fill-rule:nonzero;"/>
            <path d="M743.441,676.924C744.401,681.277 742.023,687.57 738.13,690.981C734.236,694.392 730.303,693.628 729.344,689.276C728.864,687.1 729.219,684.438 730.18,681.894L730.18,683.48L740.828,683.48L743.441,676.924Z" style="fill:rgb(65,44,28);fill-rule:nonzero;"/>
            <path d="M743.363,676.993C744.313,681.297 741.961,687.521 738.11,690.894C734.261,694.266 730.37,693.511 729.422,689.206C728.947,687.055 729.298,684.423 730.248,681.907L730.248,683.48L740.828,683.48L743.363,676.993Z" style="fill:rgb(66,44,28);fill-rule:nonzero;"/>
            <path d="M743.285,677.062C744.224,681.318 741.898,687.471 738.092,690.806C734.285,694.141 730.438,693.394 729.5,689.138C729.03,687.01 729.377,684.407 730.317,681.92L730.317,683.48L740.828,683.48L743.285,677.062Z" style="fill:rgb(67,45,29);fill-rule:nonzero;"/>
            <path d="M743.207,677.13C744.135,681.338 741.836,687.421 738.072,690.718C734.309,694.015 730.506,693.277 729.578,689.07C729.114,686.965 729.457,684.393 730.386,681.934L730.386,683.48L740.828,683.48L743.207,677.13Z" style="fill:rgb(69,46,29);fill-rule:nonzero;"/>
            <path d="M743.129,677.198C744.045,681.358 741.772,687.371 738.053,690.631C734.333,693.89 730.573,693.16 729.656,689.001C729.198,686.922 729.537,684.379 730.456,681.947L730.456,683.48L740.828,683.48L743.129,677.198Z" style="fill:rgb(69,47,29);fill-rule:nonzero;"/>
            <path d="M743.05,677.268C743.956,681.378 741.71,687.321 738.033,690.543C734.356,693.764 730.642,693.043 729.735,688.932C729.282,686.877 729.617,684.363 730.524,681.961L730.524,683.48L740.828,683.48L743.05,677.268Z" style="fill:rgb(71,48,30);fill-rule:nonzero;"/>
            <path d="M742.972,677.336C743.867,681.399 741.647,687.273 738.014,690.455C734.381,693.639 730.709,692.926 729.813,688.863C729.366,686.832 729.697,684.348 730.595,681.974L730.595,683.48L740.828,683.48L742.972,677.336Z" style="fill:rgb(72,48,30);fill-rule:nonzero;"/>
            <path d="M742.894,677.404C743.778,681.419 741.585,687.223 737.995,690.367C734.404,693.513 730.776,692.809 729.892,688.795C729.449,686.787 729.776,684.333 730.663,681.987L730.663,683.48L740.828,683.48L742.894,677.404Z" style="fill:rgb(73,49,31);fill-rule:nonzero;"/>
            <path d="M742.815,677.474C743.689,681.439 741.522,687.173 737.976,690.28C734.429,693.388 730.845,692.692 729.97,688.726C729.532,686.743 729.855,684.319 730.731,682.001L730.731,683.48L740.828,683.48L742.815,677.474Z" style="fill:rgb(74,50,32);fill-rule:nonzero;"/>
            <path d="M742.736,677.542C743.601,681.459 741.46,687.123 737.956,690.193C734.452,693.262 730.912,692.575 730.049,688.657C729.616,686.699 729.936,684.304 730.801,682.014L730.801,683.48L740.828,683.48L742.736,677.542Z" style="fill:rgb(75,51,32);fill-rule:nonzero;"/>
            <path d="M742.658,677.611C743.512,681.48 741.397,687.073 737.937,690.105C734.477,693.137 730.979,692.458 730.127,688.589C729.7,686.654 730.016,684.289 730.87,682.028L730.87,683.48L740.828,683.48L742.658,677.611Z" style="fill:rgb(76,51,33);fill-rule:nonzero;"/>
            <path d="M742.58,677.679C743.422,681.5 741.335,687.024 737.918,690.018C734.5,693.011 731.047,692.341 730.205,688.521C729.784,686.61 730.096,684.274 730.939,682.041L730.939,683.48L740.828,683.48L742.58,677.679Z" style="fill:rgb(77,52,33);fill-rule:nonzero;"/>
            <path d="M742.502,677.748C743.333,681.52 741.272,686.974 737.898,689.93C734.524,692.886 731.115,692.224 730.283,688.451C729.868,686.566 730.175,684.26 731.008,682.055L731.008,683.48L740.828,683.48L742.502,677.748Z" style="fill:rgb(78,53,34);fill-rule:nonzero;"/>
            <path d="M742.424,677.817C743.244,681.54 741.21,686.924 737.879,689.842C734.548,692.76 731.183,692.107 730.361,688.383C729.951,686.522 730.255,684.244 731.077,682.069L731.077,683.48L740.828,683.48L742.424,677.817Z" style="fill:rgb(78,53,34);fill-rule:nonzero;"/>
            <path d="M739.408,680.458C739.818,682.32 738.801,685.012 737.136,686.471C735.471,687.93 733.788,687.604 733.377,685.741C732.967,683.879 733.984,681.188 735.649,679.729L735.649,683.48L739.408,683.48L739.408,680.458Z" style="fill:rgb(78,53,34);fill-rule:nonzero;"/>
            <path d="M776.852,684.987C779.361,686.243 780.258,689.528 778.859,692.331C777.47,695.141 774.3,696.403 771.789,695.153C769.28,693.902 768.375,690.616 769.773,687.811C771.171,685.003 774.344,683.741 776.852,684.987Z" style="fill:url(#_Radial7);"/>
            <path d="M779.162,658.765C781.671,660.017 782.569,663.305 781.179,666.109C779.78,668.914 776.609,670.18 774.101,668.926C771.592,667.676 770.692,664.39 772.085,661.588C773.482,658.777 776.653,657.519 779.162,658.765Z" style="fill:url(#_Radial8);"/>
            <path d="M796.254,655.914C798.755,657.17 799.66,660.453 798.263,663.258C796.864,666.068 793.701,667.33 791.191,666.079C788.684,664.828 787.778,661.543 789.176,658.737C790.574,655.929 793.737,654.667 796.254,655.914Z" style="fill:url(#_Radial9);"/>
            <path d="M786.57,645.66C789.081,646.915 789.978,650.201 788.58,653.008C787.182,655.816 784.018,657.076 781.51,655.829C779,654.574 778.096,651.285 779.493,648.483C780.892,645.677 784.056,644.414 786.57,645.66Z" style="fill:url(#_Radial10);"/>
            <path d="M778.036,635.997C780.538,637.252 781.443,640.535 780.045,643.34C778.646,646.148 775.484,647.408 772.974,646.158C770.466,644.91 769.56,641.621 770.957,638.82C772.356,636.012 775.521,634.747 778.036,635.997Z" style="fill:url(#_Radial11);"/>
            <path d="M708.477,658.497L708.477,659.592L711.638,659.592C710.463,662.701 708.546,665.667 706.167,667.752C701.407,671.921 696.599,670.987 695.426,665.666C694.839,663.006 695.272,659.752 696.448,656.643L696.448,658.497L708.477,658.497Z" style="fill:rgb(41,27,19);fill-rule:nonzero;"/>
            <path d="M708.477,658.497L708.477,659.578L711.569,659.578C710.404,662.659 708.505,665.598 706.147,667.664C701.432,671.795 696.666,670.87 695.504,665.598C694.923,662.961 695.353,659.737 696.517,656.656L696.517,658.497L708.477,658.497Z" style="fill:rgb(42,28,20);fill-rule:nonzero;"/>
            <path d="M708.477,658.497L708.477,659.565L711.499,659.565C710.346,662.617 708.464,665.529 706.128,667.576C701.456,671.67 696.734,670.753 695.582,665.529C695.007,662.917 695.433,659.723 696.587,656.67L696.587,658.497L708.477,658.497Z" style="fill:rgb(43,29,20);fill-rule:nonzero;"/>
            <path d="M708.477,658.497L708.477,659.551L711.431,659.551C710.288,662.576 708.424,665.461 706.109,667.488C701.479,671.544 696.802,670.636 695.661,665.461C695.091,662.873 695.513,659.708 696.655,656.684L696.655,658.497L708.477,658.497Z" style="fill:rgb(44,29,21);fill-rule:nonzero;"/>
            <path d="M708.477,658.497L708.477,659.538L711.362,659.538C710.229,662.535 708.383,665.393 706.09,667.402C701.504,671.419 696.869,670.52 695.739,665.392C695.174,662.828 695.591,659.694 696.724,656.696L696.724,658.497L708.477,658.497Z" style="fill:rgb(45,30,21);fill-rule:nonzero;"/>
            <path d="M708.477,658.497L708.477,659.526L711.293,659.526C710.171,662.493 708.342,665.324 706.07,667.314C701.527,671.293 696.938,670.403 695.817,665.323C695.258,662.783 695.671,659.678 696.793,656.709L696.793,658.497L708.477,658.497Z" style="fill:rgb(47,31,22);fill-rule:nonzero;"/>
            <path d="M708.477,658.497L708.477,659.512L711.224,659.512C710.112,662.451 708.301,665.255 706.051,667.226C701.552,671.168 697.005,670.285 695.896,665.255C695.341,662.739 695.751,659.663 696.862,656.723L696.862,658.497L708.477,658.497Z" style="fill:rgb(48,32,22);fill-rule:nonzero;"/>
            <path d="M708.477,658.497L708.477,659.498L711.154,659.498C710.054,662.41 708.26,665.187 706.031,667.139C701.575,671.042 697.072,670.168 695.975,665.186C695.425,662.695 695.831,659.649 696.932,656.737L696.932,658.497L708.477,658.497Z" style="fill:rgb(49,32,22);fill-rule:nonzero;"/>
            <path d="M708.477,658.497L708.477,659.485L711.086,659.485C709.997,662.367 708.22,665.117 706.013,667.051C701.6,670.917 697.141,670.051 696.053,665.117C695.509,662.651 695.911,659.634 697,656.75L697,658.497L708.477,658.497Z" style="fill:rgb(50,33,23);fill-rule:nonzero;"/>
            <path d="M708.477,658.497L708.477,659.471L711.017,659.471C709.938,662.326 708.178,665.049 705.993,666.963C701.623,670.791 697.208,669.934 696.131,665.049C695.593,662.606 695.991,659.618 697.069,656.764L697.069,658.497L708.477,658.497Z" style="fill:rgb(51,34,23);fill-rule:nonzero;"/>
            <path d="M708.477,658.497L708.477,659.457L710.948,659.457C709.88,662.284 708.137,664.981 705.974,666.875C701.647,670.666 697.275,669.818 696.209,664.98C695.676,662.561 696.069,659.604 697.138,656.778L697.138,658.497L708.477,658.497Z" style="fill:rgb(52,35,23);fill-rule:nonzero;"/>
            <path d="M708.477,658.497L708.477,659.444L710.879,659.444C709.821,662.242 708.096,664.912 705.954,666.788C701.671,670.54 697.343,669.7 696.287,664.911C695.759,662.518 696.149,659.59 697.207,656.791L697.207,658.497L708.477,658.497Z" style="fill:rgb(54,36,23);fill-rule:nonzero;"/>
            <path d="M708.477,658.497L708.477,659.431L710.81,659.431C709.763,662.201 708.056,664.844 705.936,666.7C701.695,670.415 697.411,669.583 696.366,664.843C695.844,662.473 696.229,659.574 697.276,656.804L697.276,658.497L708.477,658.497Z" style="fill:rgb(55,36,23);fill-rule:nonzero;"/>
            <path d="M708.477,658.497L708.477,659.418L710.74,659.418C709.704,662.16 708.015,664.775 705.916,666.612C701.719,670.289 697.479,669.466 696.444,664.775C695.927,662.428 696.31,659.559 697.346,656.817L697.346,658.497L708.477,658.497Z" style="fill:rgb(55,37,24);fill-rule:nonzero;"/>
            <path d="M711.563,651.529C712.587,656.173 710.05,662.887 705.896,666.526C701.743,670.164 697.546,669.349 696.522,664.705C696.011,662.383 696.39,659.544 697.415,656.83L697.415,658.497L708.477,658.497L711.563,651.529Z" style="fill:rgb(57,38,24);fill-rule:nonzero;"/>
            <path d="M711.485,651.598C712.498,656.193 709.987,662.837 705.877,666.438C701.768,670.038 697.614,669.232 696.601,664.637C696.095,662.34 696.469,659.529 697.483,656.844L697.483,658.497L708.477,658.497L711.485,651.598Z" style="fill:rgb(58,39,25);fill-rule:nonzero;"/>
            <path d="M711.406,651.666C712.409,656.213 709.925,662.787 705.857,666.35C701.791,669.912 697.682,669.115 696.68,664.569C696.179,662.295 696.549,659.515 697.553,656.858L697.553,658.497L708.477,658.497L711.406,651.666Z" style="fill:rgb(61,40,26);fill-rule:nonzero;"/>
            <path d="M711.328,651.736C712.32,656.234 709.862,662.737 705.839,666.263C701.815,669.787 697.749,668.998 696.758,664.499C696.262,662.25 696.628,659.5 697.622,656.871L697.622,658.497L708.477,658.497L711.328,651.736Z" style="fill:rgb(62,40,26);fill-rule:nonzero;"/>
            <path d="M711.25,651.804C712.23,656.254 709.8,662.688 705.819,666.175C701.839,669.661 697.817,668.881 696.836,664.431C696.346,662.205 696.708,659.485 697.69,656.884L697.69,658.497L708.477,658.497L711.25,651.804Z" style="fill:rgb(63,41,26);fill-rule:nonzero;"/>
            <path d="M711.172,651.872C712.142,656.274 709.737,662.638 705.8,666.087C701.863,669.536 697.885,668.764 696.914,664.362C696.429,662.162 696.788,659.471 697.76,656.899L697.76,658.497L708.477,658.497L711.172,651.872Z" style="fill:rgb(64,43,27);fill-rule:nonzero;"/>
            <path d="M711.093,651.941C712.053,656.294 709.675,662.588 705.78,665.999C701.887,669.41 697.952,668.647 696.993,664.294C696.513,662.117 696.867,659.455 697.829,656.911L697.829,658.497L708.477,658.497L711.093,651.941Z" style="fill:rgb(65,44,28);fill-rule:nonzero;"/>
            <path d="M711.015,652.01C711.964,656.315 709.611,662.539 705.762,665.912C701.911,669.285 698.021,668.529 697.071,664.225C696.597,662.072 696.947,659.44 697.897,656.924L697.897,658.497L708.477,658.497L711.015,652.01Z" style="fill:rgb(66,44,28);fill-rule:nonzero;"/>
            <path d="M710.937,652.078C711.875,656.335 709.549,662.489 705.742,665.824C701.935,669.159 698.088,668.413 697.149,664.156C696.681,662.028 697.027,659.425 697.968,656.938L697.968,658.497L708.477,658.497L710.937,652.078Z" style="fill:rgb(67,45,29);fill-rule:nonzero;"/>
            <path d="M710.858,652.147C711.786,656.355 709.486,662.44 705.723,665.737C701.959,669.034 698.155,668.296 697.228,664.088C696.764,661.985 697.106,659.411 698.036,656.951L698.036,658.497L708.477,658.497L710.858,652.147Z" style="fill:rgb(69,46,29);fill-rule:nonzero;"/>
            <path d="M710.779,652.216C711.696,656.375 709.424,662.39 705.703,665.65C701.982,668.908 698.224,668.179 697.307,664.019C696.849,661.94 697.188,659.396 698.106,656.965L698.106,658.497L708.477,658.497L710.779,652.216Z" style="fill:rgb(69,47,29);fill-rule:nonzero;"/>
            <path d="M710.701,652.284C711.607,656.396 709.361,662.34 705.684,665.562C702.007,668.783 698.291,668.062 697.385,663.95C696.932,661.895 697.267,659.381 698.175,656.979L698.175,658.497L708.477,658.497L710.701,652.284Z" style="fill:rgb(71,48,30);fill-rule:nonzero;"/>
            <path d="M710.623,652.353C711.519,656.416 709.299,662.29 705.665,665.474C702.03,668.657 698.358,667.945 697.463,663.882C697.015,661.85 697.346,659.365 698.243,656.991L698.243,658.497L708.477,658.497L710.623,652.353Z" style="fill:rgb(72,48,30);fill-rule:nonzero;"/>
            <path d="M710.545,652.421C711.43,656.436 709.236,662.24 705.646,665.386C702.055,668.532 698.427,667.827 697.541,663.814C697.099,661.807 697.426,659.352 698.313,657.006L698.313,658.497L708.477,658.497L710.545,652.421Z" style="fill:rgb(73,49,31);fill-rule:nonzero;"/>
            <path d="M710.467,652.49C711.341,656.456 709.174,662.191 705.626,665.299C702.078,668.406 698.494,667.711 697.619,663.744C697.183,661.762 697.506,659.336 698.382,657.019L698.382,658.497L708.477,658.497L710.467,652.49Z" style="fill:rgb(74,50,32);fill-rule:nonzero;"/>
            <path d="M710.388,652.559C711.252,656.477 709.111,662.141 705.606,665.211C702.103,668.281 698.562,667.594 697.698,663.676C697.267,661.717 697.585,659.321 698.45,657.031L698.45,658.497L708.477,658.497L710.388,652.559Z" style="fill:rgb(75,51,32);fill-rule:nonzero;"/>
            <path d="M710.31,652.627C711.163,656.497 709.049,662.092 705.588,665.123C702.127,668.155 698.629,667.477 697.776,663.608C697.35,661.672 697.665,659.306 698.52,657.045L698.52,658.497L708.477,658.497L710.31,652.627Z" style="fill:rgb(76,51,33);fill-rule:nonzero;"/>
            <path d="M710.231,652.696C711.073,656.517 708.986,662.042 705.568,665.036C702.15,668.03 698.697,667.36 697.854,663.538C697.434,661.628 697.745,659.291 698.589,657.059L698.589,658.497L708.477,658.497L710.231,652.696Z" style="fill:rgb(77,52,33);fill-rule:nonzero;"/>
            <path d="M710.153,652.765C710.984,656.537 708.923,661.992 705.549,664.948C702.175,667.904 698.765,667.242 697.933,663.47C697.517,661.584 697.824,659.278 698.657,657.072L698.657,658.497L708.477,658.497L710.153,652.765Z" style="fill:rgb(78,53,34);fill-rule:nonzero;"/>
            <path d="M710.074,652.833C710.896,656.558 708.86,661.943 705.529,664.861C702.198,667.779 698.832,667.125 698.012,663.402C697.601,661.539 697.904,659.262 698.728,657.085L698.728,658.497L708.477,658.497L710.074,652.833Z" style="fill:rgb(78,53,34);fill-rule:nonzero;"/>
            <path d="M707.059,655.476C707.47,657.337 706.452,660.029 704.786,661.489C703.121,662.948 701.438,662.621 701.027,660.759C700.616,658.898 701.634,656.205 703.3,654.745L703.3,658.497L707.059,658.497L707.059,655.476Z" style="fill:rgb(78,53,34);fill-rule:nonzero;"/>
            <path d="M744.492,660.005C747.002,661.259 747.907,664.544 746.509,667.348C745.111,670.159 741.948,671.42 739.431,670.17C736.922,668.919 736.023,665.633 737.422,662.826C738.813,660.02 741.983,658.758 744.492,660.005Z" style="fill:url(#_Radial12);"/>
            <path d="M775.982,645.232C779.023,646.151 780.656,649.656 779.626,653.064C778.597,656.466 775.3,658.486 772.261,657.567C769.223,656.65 767.596,653.144 768.618,649.737C769.648,646.33 772.945,644.312 775.982,645.232Z" style="fill:url(#_Radial13);"/>
        </g>
    </g>
    <defs>
        <radialGradient id="_Radial1" cx="0" cy="0" r="1" gradientUnits="userSpaceOnUse" gradientTransform="matrix(20.9671,-31.3619,31.3619,20.9671,735.667,667.709)"><stop offset="0%" style="stop-color:rgb(78,53,34);stop-opacity:1"/><stop offset="70%" style="stop-color:rgb(78,53,34);stop-opacity:1"/><stop offset="100%" style="stop-color:rgb(41,27,19);stop-opacity:1"/></radialGradient>
        <radialGradient id="_Radial2" cx="0" cy="0" r="1" gradientUnits="userSpaceOnUse" gradientTransform="matrix(-3.72363,35.8693,-35.8693,-3.72363,759.957,610.42)"><stop offset="0%" style="stop-color:rgb(65,43,27);stop-opacity:1"/><stop offset="100%" style="stop-color:rgb(41,27,19);stop-opacity:1"/></radialGradient>
        <radialGradient id="_Radial3" cx="0" cy="0" r="1" gradientUnits="userSpaceOnUse" gradientTransform="matrix(6.87951,35.4019,-35.4019,6.87951,715.265,643.333)"><stop offset="0%" style="stop-color:rgb(65,43,27);stop-opacity:1"/><stop offset="100%" style="stop-color:rgb(41,27,19);stop-opacity:1"/></radialGradient>
        <radialGradient id="_Radial4" cx="0" cy="0" r="1" gradientUnits="userSpaceOnUse" gradientTransform="matrix(6.87916,35.4001,-35.4001,6.87916,772.801,631.942)"><stop offset="0%" style="stop-color:rgb(65,43,27);stop-opacity:1"/><stop offset="100%" style="stop-color:rgb(41,27,19);stop-opacity:1"/></radialGradient>
        <radialGradient id="_Radial5" cx="0" cy="0" r="1" gradientUnits="userSpaceOnUse" gradientTransform="matrix(28.8604,21.629,-21.629,28.8604,776.741,657.913)"><stop offset="0%" style="stop-color:rgb(65,43,27);stop-opacity:1"/><stop offset="100%" style="stop-color:rgb(41,27,19);stop-opacity:1"/></radialGradient>
        <radialGradient id="_Radial6" cx="0" cy="0" r="1" gradientUnits="userSpaceOnUse" gradientTransform="matrix(3.10982,34.3461,-21.4676,-6.70141,756.717,644.862)"><stop offset="0%" style="stop-color:rgb(65,43,27);stop-opacity:1"/><stop offset="100%" style="stop-color:rgb(41,27,19);stop-opacity:1"/></radialGradient>
        <radialGradient id="_Radial7" cx="0" cy="0" r="1" gradientUnits="userSpaceOnUse" gradientTransform="matrix(16.5785,2.13499,4.20441,11.5055,777.146,679.884)"><stop offset="0%" style="stop-color:rgb(78,53,34);stop-opacity:1"/><stop offset="70%" style="stop-color:rgb(78,53,34);stop-opacity:1"/><stop offset="100%" style="stop-color:rgb(41,27,19);stop-opacity:1"/></radialGradient>
        <radialGradient id="_Radial8" cx="0" cy="0" r="1" gradientUnits="userSpaceOnUse" gradientTransform="matrix(16.5841,2.13572,4.20584,11.5094,779.457,653.66)"><stop offset="0%" style="stop-color:rgb(78,53,34);stop-opacity:1"/><stop offset="70%" style="stop-color:rgb(78,53,34);stop-opacity:1"/><stop offset="100%" style="stop-color:rgb(41,27,19);stop-opacity:1"/></radialGradient>
        <radialGradient id="_Radial9" cx="0" cy="0" r="1" gradientUnits="userSpaceOnUse" gradientTransform="matrix(16.5776,2.13487,4.20417,11.5048,796.545,650.814)"><stop offset="0%" style="stop-color:rgb(78,53,34);stop-opacity:1"/><stop offset="70%" style="stop-color:rgb(78,53,34);stop-opacity:1"/><stop offset="100%" style="stop-color:rgb(41,27,19);stop-opacity:1"/></radialGradient>
        <radialGradient id="_Radial10" cx="0" cy="0" r="1" gradientUnits="userSpaceOnUse" gradientTransform="matrix(16.5794,2.1351,4.20462,11.5061,786.866,640.557)"><stop offset="0%" style="stop-color:rgb(78,53,34);stop-opacity:1"/><stop offset="70%" style="stop-color:rgb(78,53,34);stop-opacity:1"/><stop offset="100%" style="stop-color:rgb(41,27,19);stop-opacity:1"/></radialGradient>
        <radialGradient id="_Radial11" cx="0" cy="0" r="1" gradientUnits="userSpaceOnUse" gradientTransform="matrix(16.5767,2.13476,4.20395,11.5042,778.328,630.895)"><stop offset="0%" style="stop-color:rgb(78,53,34);stop-opacity:1"/><stop offset="70%" style="stop-color:rgb(78,53,34);stop-opacity:1"/><stop offset="100%" style="stop-color:rgb(41,27,19);stop-opacity:1"/></radialGradient>
        <radialGradient id="_Radial12" cx="0" cy="0" r="1" gradientUnits="userSpaceOnUse" gradientTransform="matrix(16.5811,2.13533,4.20508,11.5073,744.791,654.902)"><stop offset="0%" style="stop-color:rgb(78,53,34);stop-opacity:1"/><stop offset="70%" style="stop-color:rgb(78,53,34);stop-opacity:1"/><stop offset="100%" style="stop-color:rgb(41,27,19);stop-opacity:1"/></radialGradient>
        <radialGradient id="_Radial13" cx="0" cy="0" r="1" gradientUnits="userSpaceOnUse" gradientTransform="matrix(1.69804,18.7539,-11.7219,-3.65914,779.701,643.847)"><stop offset="0%" style="stop-color:rgb(65,43,27);stop-opacity:1"/><stop offset="100%" style="stop-color:rgb(41,27,19);stop-opacity:1"/></radialGradient>
    </defs>
</svg>
