<?xml version="1.0" encoding="UTF-8" standalone="no"?>
<!DOCTYPE svg PUBLIC "-//W3C//DTD SVG 1.1//EN" "http://www.w3.org/Graphics/SVG/1.1/DTD/svg11.dtd">
<svg width="100%" height="100%" viewBox="0 0 389 383" version="1.1" xmlns="http://www.w3.org/2000/svg" xmlns:xlink="http://www.w3.org/1999/xlink" xml:space="preserve" style="fill-rule:evenodd;clip-rule:evenodd;stroke-linejoin:round;">
    <g transform="matrix(1,0,0,1,-20.733,-134.258)">
        <g transform="matrix(-0.229699,-0.250635,-0.250635,0.229699,437.222,298.883)">
            <path d="M57.237,58.554C57.237,58.554 117.806,122.583 146.975,155.778C188.727,203.293 230.291,251.129 268.962,301.613C321.794,370.585 369.622,443.89 418.992,515.809C439.355,545.473 479.285,605.437 479.285,605.437L503.121,641.896L466.665,692.027C466.665,692.027 459.138,683.096 454.046,681.393C446.886,679 438.901,681.033 431.611,682.912C421.223,685.591 411.216,690.444 402.166,696.584C394.303,701.919 390.362,717.363 381.134,716.333C330.845,662.796 291.868,594.625 250.734,531C224.924,491.078 200.693,449.924 177.822,407.952C161.343,377.709 145.88,346.787 131.551,315.285C118.88,287.43 106.202,259.435 96.497,230.215C84.672,194.61 76.478,157.665 68.454,120.838C63.968,100.251 57.237,58.554 57.237,58.554L57.237,58.554Z" style="fill:url(#_Linear1);fill-rule:nonzero;"/>
            <path d="M497.441,636.342L463.374,686.404C463.374,686.404 488.233,739.634 501.719,764.939C515.79,791.342 530.298,817.577 546.592,842.434C556.99,858.295 569.477,872.421 580.24,887.993C587.079,897.888 594.553,907.428 599.87,918.366C603.591,926.022 606.698,934.208 608.274,942.691C610.673,955.607 603.817,970.628 609.685,982.169C614.063,990.781 623.691,995.203 632.106,998.884C642.651,1003.5 654.538,1006.8 665.784,1004.97C676.119,1003.28 686.673,998.042 693.818,989.779C700.406,982.161 703.891,971.265 705.044,960.901C706.46,948.173 703.298,935.035 699.431,922.918C694.714,908.137 686.222,895.05 678.39,881.912C664.799,859.111 648.802,838.085 633.517,816.58C612.006,786.317 589.767,756.688 567.633,726.957C544.902,696.424 497.441,636.342 497.441,636.342L497.441,636.342Z" style="fill:url(#_Linear2);fill-rule:nonzero;stroke:url(#_Linear3);stroke-width:10.22px;"/>
            <path d="M479.914,669.003L468.632,689.063C468.632,689.063 489.986,739.634 503.472,764.939C517.543,791.342 532.401,816.817 548.695,841.674C559.093,857.535 571.229,872.8 581.992,888.373C588.831,898.268 597.988,908.301 601.973,919.885C610.49,944.643 608.801,935.727 610.377,944.21C612.776,957.126 605.57,970.628 611.437,982.169C615.816,990.781 625.444,995.203 633.859,998.884C644.404,1003.5 654.538,1006.8 665.784,1004.97C676.119,1003.28 686.673,998.042 693.818,989.779C700.406,982.161 699.685,971.265 700.838,960.901C702.254,948.173 693.483,968.456 682.605,973.049C669.155,978.73 644.449,986.213 640.532,971.16C634.302,947.22 649.659,949.823 595.659,872.408C577.637,846.571 561.724,819.731 539.59,790C516.859,759.468 479.914,669.003 479.914,669.003L479.914,669.003Z" style="fill:url(#_Linear4);fill-rule:nonzero;"/>
            <g transform="matrix(0.04693,0,0,0.04433,493.673,674.497)">
                <path d="M148.584,631.741C183.479,526.151 276.756,455.219 380.714,455.219C515.901,455.219 627.143,575.167 627.143,720.933C627.143,866.7 515.901,986.648 380.714,986.648C245.528,986.648 134.286,866.7 134.286,720.933C134.286,693.831 138.131,666.888 145.689,641.04" style="fill:rgb(242,242,242);fill-rule:nonzero;stroke:rgb(205,209,210);stroke-width:61.95px;stroke-linejoin:miter;"/>
            </g>
            <g transform="matrix(0.04693,0,0,0.04433,573.591,783.114)">
                <path d="M148.584,631.741C183.479,526.151 276.756,455.219 380.714,455.219C515.901,455.219 627.143,575.167 627.143,720.933C627.143,866.7 515.901,986.648 380.714,986.648C245.528,986.648 134.286,866.7 134.286,720.933C134.286,693.831 138.131,666.888 145.689,641.04" style="fill:rgb(242,242,242);fill-rule:nonzero;stroke:rgb(205,209,210);stroke-width:61.95px;stroke-linejoin:miter;"/>
            </g>
            <g transform="matrix(0.04693,0,0,0.04433,645.1,916.797)">
                <path d="M148.584,631.741C183.479,526.151 276.756,455.219 380.714,455.219C515.901,455.219 627.143,575.167 627.143,720.933C627.143,866.7 515.901,986.648 380.714,986.648C245.528,986.648 134.286,866.7 134.286,720.933C134.286,693.831 138.131,666.888 145.689,641.04" style="fill:rgb(242,242,242);fill-rule:nonzero;stroke:rgb(205,209,210);stroke-width:61.95px;stroke-linejoin:miter;"/>
            </g>
            <path d="M57.25,58.553C57.25,58.553 63.96,100.241 68.445,120.828C76.47,157.655 84.685,194.619 96.51,230.224C106.215,259.444 118.867,287.439 131.538,315.294C145.867,346.796 162.322,379.148 179.309,410.09C203.455,454.07 229.094,496.881 256.183,539.051C296.006,601.049 319.908,648.453 378.668,716.323C383.137,724.641 403.946,693.515 403.946,693.515C403.946,693.515 369.252,660.926 348.889,631.262C299.519,559.342 278.554,521.966 229.688,444.4C195.552,390.215 157.361,321.703 129.489,259.15C111.098,217.876 57.25,58.553 57.25,58.553L57.25,58.553Z" style="fill:url(#_Linear5);fill-rule:nonzero;"/>
        </g>
    </g>
    <defs>
        <linearGradient id="_Linear1" x1="0" y1="0" x2="1" y2="0" gradientUnits="userSpaceOnUse" gradientTransform="matrix(-186.471,206.071,-206.071,-186.471,371.394,406.661)"><stop offset="0%" style="stop-color:rgb(230,230,230);stop-opacity:1"/><stop offset="100%" style="stop-color:rgb(230,230,230);stop-opacity:1"/></linearGradient>
        <linearGradient id="_Linear2" x1="0" y1="0" x2="1" y2="0" gradientUnits="userSpaceOnUse" gradientTransform="matrix(40.0988,-26.264,26.264,40.0988,505.743,682.52)"><stop offset="0%" style="stop-color:rgb(80,45,22);stop-opacity:1"/><stop offset="100%" style="stop-color:rgb(80,45,22);stop-opacity:0"/></linearGradient>
        <linearGradient id="_Linear3" x1="0" y1="0" x2="1" y2="0" gradientUnits="userSpaceOnUse" gradientTransform="matrix(368.398,624.274,-624.274,368.398,453.215,592.616)"><stop offset="0%" style="stop-color:rgb(77,23,1);stop-opacity:1"/><stop offset="100%" style="stop-color:rgb(77,23,1);stop-opacity:0"/></linearGradient>
        <linearGradient id="_Linear4" x1="0" y1="0" x2="1" y2="0" gradientUnits="userSpaceOnUse" gradientTransform="matrix(-174.735,-428.305,428.305,-174.735,669.652,985.734)"><stop offset="0%" style="stop-color:rgb(43,17,1);stop-opacity:1"/><stop offset="100%" style="stop-color:rgb(43,17,1);stop-opacity:0"/></linearGradient>
        <linearGradient id="_Linear5" x1="0" y1="0" x2="1" y2="0" gradientUnits="userSpaceOnUse" gradientTransform="matrix(52.7416,-30.3046,30.3046,52.7416,186.549,424.51)"><stop offset="0%" style="stop-color:rgb(204,204,204);stop-opacity:1"/><stop offset="100%" style="stop-color:rgb(204,204,204);stop-opacity:0"/></linearGradient>
    </defs>
</svg>
