<?xml version="1.0" encoding="utf-8"?>
<!DOCTYPE svg PUBLIC "-//W3C//DTD SVG 20010904//EN" "http://www.w3.org/TR/2001/REC-SVG-20010904/DTD/svg10.dtd">
<svg xmlns="http://www.w3.org/2000/svg" xml:space="preserve" xmlns:xlink="http://www.w3.org/1999/xlink" width="101" height="39.714" viewBox="0 0 101 39.714">
<desc></desc>
<rect x="0" y="0" width="101" height="39.714" style="fill:#ffffff;" />
<line fill="none" style="stroke:#000000; stroke-width:2;" x1="1" y1="0" x2="1" y2="30"/>
<line fill="none" style="stroke:#000000; stroke-width:1;" x1="3.5" y1="0" x2="3.5" y2="30"/>
<line fill="none" style="stroke:#000000; stroke-width:1;" x1="8.5" y1="0" x2="8.5" y2="30"/>
<line fill="none" style="stroke:#000000; stroke-width:1;" x1="11.5" y1="0" x2="11.5" y2="30"/>
<line fill="none" style="stroke:#000000; stroke-width:1;" x1="14.5" y1="0" x2="14.5" y2="30"/>
<line fill="none" style="stroke:#000000; stroke-width:2;" x1="18" y1="0" x2="18" y2="30"/>
<line fill="none" style="stroke:#000000; stroke-width:2;" x1="23" y1="0" x2="23" y2="30"/>
<line fill="none" style="stroke:#000000; stroke-width:3;" x1="27.5" y1="0" x2="27.5" y2="30"/>
<line fill="none" style="stroke:#000000; stroke-width:1;" x1="31.5" y1="0" x2="31.5" y2="30"/>
<line fill="none" style="stroke:#000000; stroke-width:2;" x1="34" y1="0" x2="34" y2="30"/>
<line fill="none" style="stroke:#000000; stroke-width:3;" x1="37.5" y1="0" x2="37.5" y2="30"/>
<line fill="none" style="stroke:#000000; stroke-width:1;" x1="41.5" y1="0" x2="41.5" y2="30"/>
<line fill="none" style="stroke:#000000; stroke-width:3;" x1="45.5" y1="0" x2="45.5" y2="30"/>
<line fill="none" style="stroke:#000000; stroke-width:1;" x1="48.5" y1="0" x2="48.5" y2="30"/>
<line fill="none" style="stroke:#000000; stroke-width:2;" x1="52" y1="0" x2="52" y2="30"/>
<line fill="none" style="stroke:#000000; stroke-width:1;" x1="55.5" y1="0" x2="55.5" y2="30"/>
<line fill="none" style="stroke:#000000; stroke-width:3;" x1="59.5" y1="0" x2="59.5" y2="30"/>
<line fill="none" style="stroke:#000000; stroke-width:2;" x1="64" y1="0" x2="64" y2="30"/>
<line fill="none" style="stroke:#000000; stroke-width:1;" x1="66.5" y1="0" x2="66.5" y2="30"/>
<line fill="none" style="stroke:#000000; stroke-width:3;" x1="70.5" y1="0" x2="70.5" y2="30"/>
<line fill="none" style="stroke:#000000; stroke-width:2;" x1="75" y1="0" x2="75" y2="30"/>
<line fill="none" style="stroke:#000000; stroke-width:2;" x1="78" y1="0" x2="78" y2="30"/>
<line fill="none" style="stroke:#000000; stroke-width:1;" x1="81.5" y1="0" x2="81.5" y2="30"/>
<line fill="none" style="stroke:#000000; stroke-width:1;" x1="83.5" y1="0" x2="83.5" y2="30"/>
<line fill="none" style="stroke:#000000; stroke-width:2;" x1="89" y1="0" x2="89" y2="30"/>
<line fill="none" style="stroke:#000000; stroke-width:3;" x1="94.5" y1="0" x2="94.5" y2="30"/>
<line fill="none" style="stroke:#000000; stroke-width:1;" x1="97.5" y1="0" x2="97.5" y2="30"/>
<line fill="none" style="stroke:#000000; stroke-width:2;" x1="100" y1="0" x2="100" y2="30"/>
<text x="50.5" y="37.763" text-anchor="middle" style="font-family: Tahoma; font-size: 9px; stroke: none; fill:#000000;">#25811</text></svg>