<?xml version="1.0" encoding="utf-8"?>
<!DOCTYPE svg PUBLIC "-//W3C//DTD SVG 20010904//EN" "http://www.w3.org/TR/2001/REC-SVG-20010904/DTD/svg10.dtd">
<svg xmlns="http://www.w3.org/2000/svg" xml:space="preserve" xmlns:xlink="http://www.w3.org/1999/xlink" width="90" height="39.714" viewBox="0 0 90 39.714">
<desc></desc>
<rect x="0" y="0" width="90" height="39.714" style="fill:#ffffff;" />
<line fill="none" style="stroke:#000000; stroke-width:2;" x1="1" y1="0" x2="1" y2="30"/>
<line fill="none" style="stroke:#000000; stroke-width:1;" x1="3.5" y1="0" x2="3.5" y2="30"/>
<line fill="none" style="stroke:#000000; stroke-width:1;" x1="8.5" y1="0" x2="8.5" y2="30"/>
<line fill="none" style="stroke:#000000; stroke-width:1;" x1="11.5" y1="0" x2="11.5" y2="30"/>
<line fill="none" style="stroke:#000000; stroke-width:1;" x1="14.5" y1="0" x2="14.5" y2="30"/>
<line fill="none" style="stroke:#000000; stroke-width:2;" x1="18" y1="0" x2="18" y2="30"/>
<line fill="none" style="stroke:#000000; stroke-width:3;" x1="23.5" y1="0" x2="23.5" y2="30"/>
<line fill="none" style="stroke:#000000; stroke-width:1;" x1="26.5" y1="0" x2="26.5" y2="30"/>
<line fill="none" style="stroke:#000000; stroke-width:2;" x1="30" y1="0" x2="30" y2="30"/>
<line fill="none" style="stroke:#000000; stroke-width:3;" x1="34.5" y1="0" x2="34.5" y2="30"/>
<line fill="none" style="stroke:#000000; stroke-width:2;" x1="38" y1="0" x2="38" y2="30"/>
<line fill="none" style="stroke:#000000; stroke-width:3;" x1="41.5" y1="0" x2="41.5" y2="30"/>
<line fill="none" style="stroke:#000000; stroke-width:2;" x1="45" y1="0" x2="45" y2="30"/>
<line fill="none" style="stroke:#000000; stroke-width:3;" x1="49.5" y1="0" x2="49.5" y2="30"/>
<line fill="none" style="stroke:#000000; stroke-width:1;" x1="53.5" y1="0" x2="53.5" y2="30"/>
<line fill="none" style="stroke:#000000; stroke-width:2;" x1="56" y1="0" x2="56" y2="30"/>
<line fill="none" style="stroke:#000000; stroke-width:3;" x1="60.5" y1="0" x2="60.5" y2="30"/>
<line fill="none" style="stroke:#000000; stroke-width:1;" x1="63.5" y1="0" x2="63.5" y2="30"/>
<line fill="none" style="stroke:#000000; stroke-width:1;" x1="66.5" y1="0" x2="66.5" y2="30"/>
<line fill="none" style="stroke:#000000; stroke-width:4;" x1="70" y1="0" x2="70" y2="30"/>
<line fill="none" style="stroke:#000000; stroke-width:1;" x1="75.5" y1="0" x2="75.5" y2="30"/>
<line fill="none" style="stroke:#000000; stroke-width:2;" x1="78" y1="0" x2="78" y2="30"/>
<line fill="none" style="stroke:#000000; stroke-width:3;" x1="83.5" y1="0" x2="83.5" y2="30"/>
<line fill="none" style="stroke:#000000; stroke-width:1;" x1="86.5" y1="0" x2="86.5" y2="30"/>
<line fill="none" style="stroke:#000000; stroke-width:2;" x1="89" y1="0" x2="89" y2="30"/>
<text x="45" y="37.763" text-anchor="middle" style="font-family: Tahoma; font-size: 9px; stroke: none; fill:#000000;">#8726</text></svg>