<?xml version="1.0" encoding="UTF-8" standalone="no"?>
<!DOCTYPE svg PUBLIC "-//W3C//DTD SVG 1.1//EN" "http://www.w3.org/Graphics/SVG/1.1/DTD/svg11.dtd">
<svg width="100%" height="100%" viewBox="0 0 469 311" version="1.1" xmlns="http://www.w3.org/2000/svg" xmlns:xlink="http://www.w3.org/1999/xlink" xml:space="preserve" style="fill-rule:evenodd;clip-rule:evenodd;stroke-linecap:round;stroke-linejoin:round;stroke-miterlimit:1.41421;">
    <g transform="matrix(1,0,0,1,-494.459,-345.596)">
        <path d="M636.228,385.722C636.228,376.108 632.843,367.286 627.204,360.376L627.294,360.282C629.405,358.076 629.325,354.577 627.121,352.467C624.914,350.358 621.415,350.435 619.305,352.642L619.103,352.853C612.588,348.285 604.662,345.596 596.103,345.596L494.459,345.596L494.459,382.037C494.459,382.037 526.135,385.146 556.123,389.033C557.363,404.201 567.03,416.983 580.441,422.674L580.441,433.628C580.441,439.973 577.872,440.587 577.872,444.888C577.872,449.186 580.441,448.571 580.441,455.326C580.441,462.083 577.678,460.855 577.882,466.793C578.085,472.729 580.441,472.525 580.441,478.257L580.441,491.972L590.575,491.972L590.575,499.034C590.575,502.088 593.049,504.561 596.103,504.561C599.156,504.561 601.628,502.088 601.628,499.034L601.628,491.972L611.762,491.972L611.762,422.674C626.141,416.573 636.228,402.326 636.228,385.722" style="fill:rgb(87,87,86);fill-rule:nonzero;"/>
        <rect x="595.758" y="360.903" width="0.688" height="8.101" style="fill:white;fill-rule:nonzero;"/>
        <path d="M593.537,369.199L592.859,369.319L591.452,361.341L592.132,361.221L593.537,369.199Z" style="fill:white;fill-rule:nonzero;"/>
        <path d="M590.709,369.894L590.061,370.131L587.289,362.519L587.938,362.284L590.709,369.894Z" style="fill:white;fill-rule:nonzero;"/>
        <path d="M588.042,371.072L587.445,371.417L583.395,364.402L583.992,364.056L588.042,371.072Z" style="fill:white;fill-rule:nonzero;"/>
        <path d="M585.619,372.694L585.092,373.136L579.886,366.932L580.414,366.49L585.619,372.694Z" style="fill:white;fill-rule:nonzero;"/>
        <path d="M583.517,374.711L583.075,375.24L576.869,370.033L577.312,369.504L583.517,374.711Z" style="fill:white;fill-rule:nonzero;"/>
        <path d="M581.795,377.065L581.452,377.663L574.437,373.612L574.782,373.015L581.795,377.065Z" style="fill:white;fill-rule:nonzero;"/>
        <path d="M580.511,379.681L580.275,380.327L572.663,377.558L572.899,376.91L580.511,379.681Z" style="fill:white;fill-rule:nonzero;"/>
        <path d="M579.698,382.48L579.578,383.158L571.601,381.752L571.721,381.072L579.698,382.48Z" style="fill:white;fill-rule:nonzero;"/>
        <path d="M579.384,385.377L579.386,386.067L571.284,386.065L571.284,385.376L579.384,385.377Z" style="fill:white;fill-rule:nonzero;"/>
        <path d="M579.578,388.286L579.698,388.966L571.722,390.37L571.601,389.692L579.578,388.286Z" style="fill:white;fill-rule:nonzero;"/>
        <path d="M580.274,391.116L580.51,391.763L572.898,394.534L572.662,393.887L580.274,391.116Z" style="fill:white;fill-rule:nonzero;"/>
        <path d="M581.452,393.784L581.797,394.38L574.781,398.429L574.436,397.831L581.452,393.784Z" style="fill:white;fill-rule:nonzero;"/>
        <path d="M583.074,396.206L583.517,396.733L577.311,401.938L576.868,401.409L583.074,396.206Z" style="fill:white;fill-rule:nonzero;"/>
        <path d="M585.092,398.309L585.62,398.752L580.414,404.955L579.885,404.513L585.092,398.309Z" style="fill:white;fill-rule:nonzero;"/>
        <path d="M587.445,400.029L588.043,400.372L583.99,407.388L583.393,407.043L587.445,400.029Z" style="fill:white;fill-rule:nonzero;"/>
        <path d="M590.061,401.315L590.709,401.55L587.936,409.162L587.289,408.926L590.061,401.315Z" style="fill:white;fill-rule:nonzero;"/>
        <path d="M592.86,402.127L593.54,402.245L592.131,410.222L591.451,410.105L592.86,402.127Z" style="fill:white;fill-rule:nonzero;"/>
        <path d="M595.759,402.44L596.448,402.44L596.446,410.542L595.757,410.542L595.759,402.44Z" style="fill:white;fill-rule:nonzero;"/>
        <path d="M598.667,402.245L599.346,402.126L600.751,410.104L600.071,410.222L598.667,402.245Z" style="fill:white;fill-rule:nonzero;"/>
        <path d="M601.497,401.55L602.145,401.314L604.914,408.926L604.265,409.163L601.497,401.55Z" style="fill:white;fill-rule:nonzero;"/>
        <path d="M604.164,400.372L604.76,400.027L608.809,407.044L608.211,407.389L604.164,400.372Z" style="fill:white;fill-rule:nonzero;"/>
        <path d="M606.585,398.75L607.114,398.307L612.318,404.513L611.791,404.957L606.585,398.75Z" style="fill:white;fill-rule:nonzero;"/>
        <path d="M608.688,396.732L609.132,396.203L615.335,401.411L614.893,401.939L608.688,396.732Z" style="fill:white;fill-rule:nonzero;"/>
        <path d="M610.409,394.378L610.755,393.782L617.767,397.833L617.422,398.431L610.409,394.378Z" style="fill:white;fill-rule:nonzero;"/>
        <path d="M611.694,391.763L611.929,391.115L619.541,393.887L619.304,394.535L611.694,391.763Z" style="fill:white;fill-rule:nonzero;"/>
        <path d="M612.507,388.963L612.626,388.284L620.603,389.692L620.485,390.372L612.507,388.963Z" style="fill:white;fill-rule:nonzero;"/>
        <path d="M612.82,386.065L612.819,385.374L620.92,385.377L620.92,386.067L612.82,386.065Z" style="fill:white;fill-rule:nonzero;"/>
        <path d="M612.625,383.157L612.505,382.477L620.484,381.074L620.603,381.753L612.625,383.157Z" style="fill:white;fill-rule:nonzero;"/>
        <path d="M611.93,380.327L611.695,379.679L619.306,376.91L619.541,377.559L611.93,380.327Z" style="fill:white;fill-rule:nonzero;"/>
        <path d="M610.752,377.66L610.406,377.062L617.424,373.015L617.768,373.612L610.752,377.66Z" style="fill:white;fill-rule:nonzero;"/>
        <path d="M609.129,375.238L608.686,374.709L614.893,369.505L615.335,370.034L609.129,375.238Z" style="fill:white;fill-rule:nonzero;"/>
        <path d="M607.111,373.135L606.583,372.694L611.791,366.49L612.319,366.933L607.111,373.135Z" style="fill:white;fill-rule:nonzero;"/>
        <path d="M604.758,371.414L604.16,371.071L608.213,364.056L608.81,364.404L604.758,371.414Z" style="fill:white;fill-rule:nonzero;"/>
        <path d="M602.143,370.129L601.495,369.894L604.267,362.284L604.915,362.521L602.143,370.129Z" style="fill:white;fill-rule:nonzero;"/>
        <path d="M599.344,369.317L598.663,369.198L600.073,361.221L600.753,361.341L599.344,369.317Z" style="fill:white;fill-rule:nonzero;"/>
        <path d="M596.673,503.573C607.989,539.924 632.271,524.804 658.243,540.052C665.957,544.58 717.189,579.079 724.539,587.856C739.8,606.081 797.314,581.768 818.844,587.856C824.532,589.465 958.759,653.696 960.948,653.696" style="fill:none;stroke:black;stroke-width:5px;"/>
    </g>
</svg>
