<?xml version="1.0" encoding="UTF-8" standalone="no"?>
<!DOCTYPE svg PUBLIC "-//W3C//DTD SVG 1.1//EN" "http://www.w3.org/Graphics/SVG/1.1/DTD/svg11.dtd">
<svg width="100%" height="100%" viewBox="0 0 211 276" version="1.1" xmlns="http://www.w3.org/2000/svg" xmlns:xlink="http://www.w3.org/1999/xlink" xml:space="preserve" style="fill-rule:evenodd;clip-rule:evenodd;stroke-linecap:round;stroke-linejoin:round;">
    <g transform="matrix(1,0,0,1,-32.6002,-33.578)">
        <g>
            <g>
                <path id="path29274" d="M99.031,34.828L109.656,45.453L109.656,112.765C102.569,123.395 61.222,202.539 38.781,247.425C31.694,261.598 31.714,279.314 42.344,293.487C49.43,304.117 61.805,307.675 74.219,307.675L201.779,307.675C214.193,307.675 226.567,304.117 233.654,293.487C244.284,279.314 244.303,261.598 237.216,247.425C217.137,202.543 193.514,157.651 173.435,112.765L173.435,45.453L183.716,35.172L184.06,34.828L99.029,34.828L99.031,34.828Z" style="fill:rgb(215,233,252);fill-opacity:0.0509804;stroke:rgb(159,171,185);stroke-width:2.5px;"/>
            </g>
            <path id="path6038" d="M160.94,45.159L160.94,113.909C183.494,161.605 206.157,209.269 228.644,256.989C234.935,271.884 227.088,289.245 213.479,296.877C201.346,305.021 186.401,301.872 172.737,302.434L143.733,302.434C161.042,300.205 178.704,299.785 195.781,296.342C206.997,292.841 220.623,286.6 221.308,273.052C222.013,258.59 212.942,246.353 208.116,233.283C190.724,193.493 173.332,153.703 155.94,113.913L155.94,45.163L164.977,36.078L170.009,36.078L160.94,45.163L160.94,45.159Z" style="fill:white;"/>
            <path id="path1613" d="M115.61,45.159L115.61,113.909C93.056,161.605 65.921,204.945 43.434,252.659C37.143,267.554 42.184,287.659 54.684,296.409C67.184,302.659 63.434,301.409 77.562,303.047C87.23,303.047 123.148,302.429 132.816,302.429C115.507,300.2 97.845,299.78 80.768,296.337C69.552,292.836 55.926,286.595 55.241,273.047C54.536,258.585 63.607,246.348 68.433,233.278C85.825,193.488 103.217,153.698 120.609,113.908L120.609,45.158L111.572,36.073L106.54,36.073L115.609,45.158L115.61,45.159Z" style="fill-opacity:0.172549;"/>
        </g>
        <rect id="svg_29" x="185.83" y="214.67" width="2" height="1" style="fill:white;"/>
    </g>
</svg>
