<?xml version="1.0" encoding="UTF-8" standalone="no"?>
<!DOCTYPE svg PUBLIC "-//W3C//DTD SVG 1.1//EN" "http://www.w3.org/Graphics/SVG/1.1/DTD/svg11.dtd">
<svg width="100%" height="100%" viewBox="0 0 214 198" version="1.1" xmlns="http://www.w3.org/2000/svg" xmlns:xlink="http://www.w3.org/1999/xlink" xml:space="preserve" style="fill-rule:evenodd;clip-rule:evenodd;stroke-linecap:round;stroke-linejoin:round;">
    <g transform="matrix(1,0,0,1,-378.17,-124.421)">
        <g transform="matrix(1,0,0,1,311,-5.09436)">
            <path id="path29274" d="M277.215,130.765L69.78,130.765C68.998,144.693 70.283,214.792 68.78,265.425C68.326,280.711 66.713,297.314 77.343,311.487C84.429,322.117 96.805,325.675 109.218,325.675L236.778,325.675C249.192,325.675 261.565,322.117 268.653,311.487C277.143,298.751 279.606,280.189 279.215,265.425C278.014,220.046 277.607,145.595 277.215,130.765Z" style="fill:rgb(215,233,252);fill-opacity:0.0941176;stroke:rgb(159,171,185);stroke-width:2.5px;"/>
        </g>
        <g id="path1613" transform="matrix(1,0,0,1,311,-5.09436)">
            <path d="M99.611,136.909L94.61,136.909C92.312,191.55 91.951,222.077 78.434,270.659C72.143,285.554 77.184,305.659 89.684,314.409C102.184,320.659 98.434,319.409 112.562,321.048C122.23,321.048 158.148,320.429 167.816,320.429C150.507,318.2 132.845,317.78 115.768,314.337C104.552,310.836 90.927,304.596 90.242,291.048C89.537,276.586 93.608,264.349 98.434,251.279C100.779,209.463 102.185,185.091 99.611,136.909Z" style="fill-opacity:0.172549;"/>
        </g>
    </g>
</svg>
