<?xml version="1.0" encoding="UTF-8" standalone="no"?>
<!DOCTYPE svg PUBLIC "-//W3C//DTD SVG 1.1//EN" "http://www.w3.org/Graphics/SVG/1.1/DTD/svg11.dtd">
<svg width="100%" height="100%" viewBox="0 0 118 116" version="1.1" xmlns="http://www.w3.org/2000/svg" xmlns:xlink="http://www.w3.org/1999/xlink" xml:space="preserve" style="fill-rule:evenodd;clip-rule:evenodd;">
    <g transform="matrix(1,0,0,1,1.56155,4.53693)">
        <path id="path3395" d="M9.823,87.521L0.605,109.302L105.015,109.302L114.265,87.521L9.825,87.521L9.823,87.521ZM87.042,90.615C91.734,90.615 95.542,92.631 95.542,95.115C95.542,97.599 91.734,99.615 87.042,99.615C82.35,99.615 78.542,97.599 78.542,95.115C78.542,92.631 82.35,90.615 87.042,90.615ZM26.042,91.021C30.734,91.021 34.542,93.037 34.542,95.521C34.542,98.005 30.734,100.021 26.042,100.021C21.35,100.021 17.542,98.005 17.542,95.521C17.542,93.037 21.35,91.021 26.042,91.021ZM56.042,91.209C60.734,91.209 64.542,93.225 64.542,95.709C64.542,98.193 60.734,100.209 56.042,100.209C51.35,100.208 47.542,98.193 47.542,95.709C47.542,93.225 51.35,91.209 56.042,91.209Z" style="fill:rgb(48,48,48);fill-rule:nonzero;stroke:black;stroke-width:1px;"/>
        <path id="path3397" d="M9.823,84.115L0.605,105.615L105.015,105.615L114.265,84.115L9.825,84.115L9.823,84.115ZM87.229,90.115C91.921,90.115 95.729,92.131 95.729,94.615C95.729,97.099 91.921,99.115 87.229,99.115C82.537,99.115 78.729,97.099 78.729,94.615C78.729,92.131 82.537,90.115 87.229,90.115ZM26.229,90.521C30.921,90.521 34.729,92.537 34.729,95.021C34.729,97.505 30.921,99.521 26.229,99.521C21.537,99.521 17.729,97.505 17.729,95.021C17.729,92.537 21.537,90.521 26.229,90.521ZM56.229,90.709C60.921,90.709 64.729,92.725 64.729,95.209C64.729,97.693 60.921,99.709 56.229,99.709C51.537,99.709 47.729,97.693 47.729,95.209C47.729,92.725 51.537,90.709 56.229,90.709Z" style="fill:rgb(53,53,53);fill-rule:nonzero;stroke:black;stroke-width:1px;"/>
        <rect id="rect3399" x="0.5" y="105.51" width="104.51" height="3.5" style="fill:rgb(38,38,38);stroke:black;stroke-width:1px;"/>
        <rect id="rect3418" x="28.949" y="18.25" width="63.2" height="65.95" style="fill:rgb(48,48,48);stroke:black;stroke-width:1px;"/>
        <path id="path3257" d="M17.79,29.356L17.79,95.887C17.79,98.282 21.598,100.231 26.29,100.231C30.982,100.231 34.79,98.282 34.79,95.887L34.79,29.356C34.79,29.357 34.759,29.355 34.759,29.356C34.53,31.647 30.835,33.481 26.29,33.481C21.745,33.481 18.049,31.647 17.821,29.356L17.79,29.356L17.79,29.356Z" style="fill:rgb(88,171,255);fill-opacity:0.815686;fill-rule:nonzero;stroke:black;stroke-width:1px;"/>
        <path id="path3308" d="M78.916,28.168L78.916,94.699C78.916,97.094 82.724,99.043 87.416,99.043C92.108,99.043 95.916,97.094 95.916,94.699L95.916,28.168L95.885,28.168C95.627,30.445 91.941,32.262 87.416,32.262C82.892,32.262 79.207,30.444 78.947,28.168L78.916,28.168L78.916,28.168Z" style="fill:rgb(88,171,255);fill-opacity:0.815686;fill-rule:nonzero;stroke:black;stroke-width:1px;"/>
        <path id="path3318" d="M47.916,29.418L47.916,95.949C47.916,98.344 51.724,100.293 56.416,100.293C61.108,100.293 64.916,98.344 64.916,95.949L64.916,29.418L64.885,29.418C64.627,31.695 60.941,33.512 56.416,33.512C51.892,33.512 48.207,31.694 47.947,29.418L47.916,29.418L47.916,29.418Z" style="fill:rgb(88,171,255);fill-opacity:0.815686;fill-rule:nonzero;stroke:black;stroke-width:1px;"/>
        <path id="path3278" d="M17.555,3.234L17.732,29.137C17.732,30.155 20.391,33.339 26.055,33.339C32.073,33.339 34.82,30.332 34.82,29.314L34.555,3.234L17.555,3.234L17.555,3.234Z" style="fill:rgb(197,217,249);fill-opacity:0.815686;fill-rule:nonzero;stroke:black;stroke-width:1px;"/>
        <g id="g3280" transform="matrix(0.3617,0,0,0.40958,26.171,20.526)">
            <path id="path3282" d="M22.68,-41.969C22.68,-39.484 12.159,-37.469 -0.82,-37.469C-13.799,-37.469 -24.32,-39.484 -24.32,-41.969C-24.32,-44.454 -13.799,-46.469 -0.82,-46.469C12.159,-46.469 22.68,-44.454 22.68,-41.969Z" style="fill:white;fill-rule:nonzero;stroke:black;stroke-width:2.43px;"/>
            <path id="path3284" d="M23.18,-42.469C23.18,-39.984 12.659,-37.969 -0.32,-37.969C-13.299,-37.969 -23.82,-39.984 -23.82,-42.469C-23.82,-44.954 -13.299,-46.969 -0.32,-46.969C12.659,-46.969 23.18,-44.954 23.18,-42.469Z" style="fill:rgb(197,217,249);fill-opacity:0.815686;fill-rule:nonzero;stroke:black;stroke-width:6.32px;"/>
        </g>
        <path id="path3348" d="M47.772,3.234L47.949,29.137C47.949,30.155 50.608,33.339 56.272,33.339C62.29,33.339 65.037,30.332 65.037,29.314L64.772,3.234L47.772,3.234L47.772,3.234Z" style="fill:rgb(197,217,249);fill-opacity:0.815686;fill-rule:nonzero;stroke:black;stroke-width:1px;"/>
        <g id="g3350" transform="matrix(0.3617,0,0,0.40958,56.388,20.526)">
            <path id="path3352" d="M22.68,-41.969C22.68,-39.484 12.159,-37.469 -0.82,-37.469C-13.799,-37.469 -24.32,-39.484 -24.32,-41.969C-24.32,-44.454 -13.799,-46.469 -0.82,-46.469C12.159,-46.469 22.68,-44.454 22.68,-41.969Z" style="fill:white;fill-rule:nonzero;stroke:black;stroke-width:2.43px;"/>
            <path id="path3354" d="M23.18,-42.469C23.18,-39.984 12.659,-37.969 -0.32,-37.969C-13.299,-37.969 -23.82,-39.984 -23.82,-42.469C-23.82,-44.954 -13.299,-46.969 -0.32,-46.969C12.659,-46.969 23.18,-44.954 23.18,-42.469Z" style="fill:rgb(197,217,249);fill-opacity:0.815686;fill-rule:nonzero;stroke:black;stroke-width:6.32px;"/>
        </g>
        <path id="path3358" d="M78.727,2.446L78.687,27.991C78.687,29.009 81.346,32.193 87.01,32.193C93.028,32.193 95.775,29.185 95.775,28.168L95.727,2.445L78.727,2.445L78.727,2.446Z" style="fill:rgb(197,217,249);fill-opacity:0.815686;fill-rule:nonzero;stroke:black;stroke-width:1px;"/>
        <g id="g3360" transform="matrix(0.3617,0,0,0.40958,87.342,19.738)">
            <path id="path3362" d="M22.68,-41.969C22.68,-39.484 12.159,-37.469 -0.82,-37.469C-13.799,-37.469 -24.32,-39.484 -24.32,-41.969C-24.32,-44.454 -13.799,-46.469 -0.82,-46.469C12.159,-46.469 22.68,-44.454 22.68,-41.969Z" style="fill:white;fill-rule:nonzero;stroke:black;stroke-width:2.43px;"/>
            <path id="path3364" d="M23.18,-42.469C23.18,-39.984 12.659,-37.969 -0.32,-37.969C-13.299,-37.969 -23.82,-39.984 -23.82,-42.469C-23.82,-44.954 -13.299,-46.969 -0.32,-46.969C12.659,-46.969 23.18,-44.954 23.18,-42.469Z" style="fill:rgb(197,217,249);fill-opacity:0.815686;fill-rule:nonzero;stroke:black;stroke-width:6.32px;"/>
        </g>
    </g>
</svg>
