<?xml version="1.0" encoding="UTF-8" standalone="no"?>
<!DOCTYPE svg PUBLIC "-//W3C//DTD SVG 1.1//EN" "http://www.w3.org/Graphics/SVG/1.1/DTD/svg11.dtd">
<svg width="100%" height="100%" viewBox="0 0 211 276" version="1.1" xmlns="http://www.w3.org/2000/svg" xmlns:xlink="http://www.w3.org/1999/xlink" xml:space="preserve" style="fill-rule:evenodd;clip-rule:evenodd;stroke-linecap:round;stroke-linejoin:round;">
    <g transform="matrix(1,0,0,1,-32.6002,-33.578)">
        <g transform="matrix(2.03276,0,0,2.03276,-293.411,119.425)">
            <clipPath id="_clip1">
                <path d="M189.206,39.737C177.259,42.629 174.367,50.683 174.367,50.683L199.397,73.825L216.377,73.949C218.768,70.805 219.143,61.753 219.143,61.753C219.899,57.477 217.132,53.705 217.132,53.705C216.629,50.935 211.217,47.289 211.217,47.289C208.449,43.262 199.777,41.875 199.777,41.875C196.515,39.968 193.154,39.618 191.122,39.618C189.939,39.618 189.206,39.737 189.206,39.737Z"/>
            </clipPath>
            <g clip-path="url(#_clip1)">
                <path d="M215.112,34.37L223.026,72.571L180.718,81.337L172.803,43.135L215.112,34.37Z" style="fill:url(#_Linear2);fill-rule:nonzero;"/>
            </g>
            <clipPath id="_clip3">
                <path d="M199.52,44.895C197.889,46.91 198.518,52.063 198.518,52.063L215.746,75.587C220.147,72.568 219.518,59.487 219.518,59.487C216.878,45.4 202.037,41.875 202.037,41.875C199.649,42.131 199.52,44.895 199.52,44.895Z"/>
            </clipPath>
            <g clip-path="url(#_clip3)">
                <path d="M215.52,38.843L222.828,74.12L203.9,78.041L196.592,42.764L215.52,38.843Z" style="fill:url(#_Linear4);fill-rule:nonzero;"/>
            </g>
            <clipPath id="_clip5">
                <path d="M208.079,51.772C208.079,51.772 212.308,49.448 213.469,48.038C213.469,48.038 214.873,48.225 214.507,49.816C214.507,49.816 210.041,50.792 209.305,52.144L208.079,51.772Z"/>
            </clipPath>
            <g clip-path="url(#_clip5)">
                <path d="M214.844,47.912L215.183,51.606L208.123,52.252L207.785,48.558L214.844,47.912Z" style="fill:url(#_Linear6);fill-rule:nonzero;"/>
            </g>
            <clipPath id="_clip7">
                <path d="M211.587,56.493C211.587,56.493 215.569,54.224 216.667,52.852C216.667,52.852 217.991,53.032 217.646,54.584C217.646,54.584 213.433,55.538 212.742,56.85L211.587,56.493Z"/>
            </clipPath>
            <g clip-path="url(#_clip7)">
                <path d="M217.964,52.733L218.294,56.342L211.629,56.952L211.299,53.343L217.964,52.733Z" style="fill:url(#_Linear8);fill-rule:nonzero;"/>
            </g>
            <clipPath id="_clip9">
                <path d="M214.488,59.732C214.643,59.626 214.746,59.055 215.43,58.946C216.108,58.842 216.842,58.634 217.156,58.634C217.468,58.634 217.522,58.684 217.682,58.32C217.836,57.951 217.678,57.907 218.042,57.796C218.414,57.691 218.359,57.483 218.62,57.587C218.883,57.691 219.145,57.483 219.249,57.907C219.354,58.32 219.249,58.531 219.249,58.794C219.249,59.055 219.354,59.263 219.04,59.468C218.725,59.681 218.568,59.578 218.254,59.837C217.94,60.097 217.781,59.578 217.26,59.94C216.736,60.311 216.736,60.202 216.422,60.465C216.108,60.728 216.007,60.779 215.743,60.986C215.482,61.2 215.43,60.99 214.907,61.092C214.38,61.2 214.173,61.144 214.067,60.986C213.962,60.828 214.488,59.732 214.488,59.732Z"/>
            </clipPath>
            <g clip-path="url(#_clip9)">
                <path d="M219.27,57.4L219.583,60.825L214.008,61.335L213.695,57.91L219.27,57.4Z" style="fill:url(#_Linear10);fill-rule:nonzero;"/>
            </g>
            <clipPath id="_clip11">
                <path d="M215.848,65.072C215.848,65.072 216.946,64.91 217.156,64.704C217.367,64.493 218.357,63.449 218.357,63.449C218.357,63.449 218.306,62.822 218.671,62.661C219.04,62.505 218.829,62.137 219.04,62.505C219.249,62.872 219.354,62.822 219.298,63.185C219.249,63.551 219.145,63.758 219.145,64.079C219.145,64.388 219.718,64.388 218.986,64.91C218.254,65.437 218.465,65.174 218.042,65.594C217.625,66.014 217.574,65.904 217.001,66.485C216.422,67.054 216.894,66.796 216.162,66.949C215.43,67.111 215.533,67.158 215.273,67.269C215.01,67.373 214.54,68.362 214.802,67.111C215.062,65.857 215.01,65.645 215.219,65.538C215.43,65.437 215.848,65.072 215.848,65.072Z"/>
            </clipPath>
            <g clip-path="url(#_clip11)">
                <path d="M219.506,62.075L220.036,67.859L214.54,68.362L214.011,62.578L219.506,62.075Z" style="fill:url(#_Linear12);fill-rule:nonzero;"/>
            </g>
            <clipPath id="_clip13">
                <path d="M208.605,52.085L209.825,52.456C210.563,51.106 215.033,50.127 215.033,50.127C215.399,48.539 213.989,48.357 213.989,48.357C212.828,49.759 208.605,52.085 208.605,52.085Z"/>
            </clipPath>
            <g clip-path="url(#_clip13)">
                <path d="M215.371,48.231L215.708,51.917L208.649,52.564L208.311,48.877L215.371,48.231Z" style="fill:url(#_Linear14);fill-rule:nonzero;"/>
            </g>
            <clipPath id="_clip15">
                <path d="M212.109,56.805L213.264,57.165C213.959,55.85 218.171,54.895 218.171,54.895C218.517,53.348 217.188,53.167 217.188,53.167C216.094,54.538 212.109,56.805 212.109,56.805Z"/>
            </clipPath>
            <g clip-path="url(#_clip15)">
                <path d="M218.49,53.048L218.82,56.656L212.151,57.267L211.821,53.658L218.49,53.048Z" style="fill:url(#_Linear16);fill-rule:nonzero;"/>
            </g>
            <clipPath id="_clip17">
                <path d="M218.569,58.109C218.202,58.219 218.359,58.266 218.202,58.634C218.042,59 217.991,58.946 217.681,58.946C217.367,58.946 216.631,59.161 215.952,59.263C215.273,59.367 215.167,59.94 215.01,60.049C215.01,60.049 214.488,61.144 214.595,61.302C214.696,61.456 214.906,61.513 215.429,61.408C215.654,61.363 215.791,61.375 215.896,61.388C216.036,61.405 216.116,61.423 216.263,61.302C216.528,61.092 216.631,61.042 216.946,60.779C217.26,60.518 217.26,60.624 217.781,60.255C218.059,60.062 218.235,60.119 218.385,60.176C218.518,60.226 218.632,60.277 218.779,60.152C219.091,59.89 219.248,59.996 219.56,59.785C219.877,59.578 219.772,59.367 219.772,59.106C219.772,58.843 219.877,58.634 219.772,58.219C219.701,57.937 219.562,57.938 219.399,57.94C219.318,57.94 219.231,57.941 219.145,57.907C219.093,57.885 219.054,57.876 219.021,57.876C218.887,57.876 218.862,58.029 218.569,58.109Z"/>
            </clipPath>
            <g clip-path="url(#_clip17)">
                <path d="M219.8,57.792L220.099,61.058L214.527,61.568L214.228,58.303L219.8,57.792Z" style="fill:url(#_Linear18);fill-rule:nonzero;"/>
            </g>
            <clipPath id="_clip19">
                <path d="M219.198,62.974C218.829,63.135 218.883,63.758 218.883,63.758C218.883,63.758 217.888,64.808 217.681,65.015C217.468,65.226 216.371,65.381 216.371,65.381C216.371,65.381 215.952,65.751 215.743,65.857C215.533,65.956 215.585,66.167 215.325,67.423C215.062,68.678 215.533,67.684 215.796,67.58C216.059,67.476 215.952,67.423 216.687,67.269C217.418,67.11 216.946,67.373 217.522,66.796C218.097,66.221 218.151,66.326 218.569,65.904C218.986,65.488 218.779,65.751 219.509,65.226C220.243,64.705 219.667,64.705 219.667,64.389C219.667,64.079 219.772,63.865 219.823,63.502C219.874,63.135 219.772,63.185 219.56,62.823C219.496,62.707 219.472,62.664 219.458,62.664C219.428,62.664 219.447,62.87 219.198,62.974Z"/>
            </clipPath>
            <g clip-path="url(#_clip19)">
                <path d="M220.051,62.607L220.561,68.175L215.062,68.678L214.552,63.11L220.051,62.607Z" style="fill:url(#_Linear20);fill-rule:nonzero;"/>
            </g>
            <clipPath id="_clip21">
                <path d="M180.794,43.142C180.794,43.142 175.126,47.435 174.356,50.422L175.164,49.833L181.081,46.27L182.474,45.361C182.474,45.361 180.166,44.781 180.794,43.142Z"/>
            </clipPath>
            <g clip-path="url(#_clip21)">
                <path d="M181.964,42.9L183.145,48.601L174.356,50.422L173.175,44.721L181.964,42.9Z" style="fill:url(#_Linear22);fill-rule:nonzero;"/>
            </g>
            <clipPath id="_clip23">
                <path d="M174.124,50.874C174.124,50.874 179.442,43.209 188.2,42.676C188.2,42.676 195.189,41.666 199.725,44.992C199.725,44.992 201.76,45.409 203.478,46.775C203.478,46.775 212.34,50.65 213.985,56.881C213.992,56.925 214.002,56.961 214.012,56.996C215.575,63.298 174.228,51.233 174.228,51.233L174.124,50.874Z"/>
            </clipPath>
            <g clip-path="url(#_clip23)">
                <path d="M210.097,36.858L215.575,63.298L178.298,71.021L172.82,44.581L210.097,36.858Z" style="fill:url(#_Linear24);fill-rule:nonzero;"/>
            </g>
            <clipPath id="_clip25">
                <path d="M175.372,49.804C172.858,50.179 171.352,53.322 171.352,53.322C169.84,54.709 169.84,58.609 169.84,58.609C168.205,60.494 169.212,64.39 169.212,64.39C168.834,66.909 169.715,70.683 169.715,70.683C169.965,73.45 171.598,75.587 171.598,75.587C172.103,78.223 175.623,82.251 175.623,82.251C178.014,86.152 182.541,86.78 182.541,86.78C184.303,88.413 196.754,88.79 196.754,88.79C218.012,84.389 216.377,73.949 216.377,73.949C218.012,69.923 216.755,64.642 216.755,64.642C215.37,58.73 211.595,53.449 211.595,53.449C208.577,49.174 201.66,47.035 201.66,47.035C198.895,45.149 193.359,43.768 193.359,43.768C192.315,43.61 191.307,43.539 190.335,43.539C181.226,43.539 175.372,49.804 175.372,49.804Z"/>
            </clipPath>
            <g clip-path="url(#_clip25)">
                <path d="M211.257,37.317L220.886,83.794L174.115,93.483L164.487,47.007L211.257,37.317Z" style="fill:url(#_Linear26);fill-rule:nonzero;"/>
            </g>
            <clipPath id="_clip27">
                <rect x="170.211" y="43.617" width="36.349" height="12.396"/>
            </clipPath>
            <g clip-path="url(#_clip27)">
                <path d="M201.74,47.114C198.973,45.227 193.44,43.846 193.44,43.846C182.62,42.209 175.453,49.88 175.453,49.88C172.938,50.259 171.427,53.401 171.427,53.401C170.791,53.987 170.425,55.017 170.211,56.013C170.912,53.915 172.628,52.419 174.426,50.974C175.496,49.91 177.063,49.255 178.702,48.903C178.805,48.781 178.915,48.664 179.028,48.55C179.415,48.55 180.094,47.958 180.846,47.915C186.899,43.496 193.868,44.962 199.238,47.647C201.274,48.325 204.248,48.543 206.56,49.245C204.035,47.828 201.74,47.114 201.74,47.114Z" style="fill:url(#_Radial28);fill-rule:nonzero;"/>
            </g>
            <clipPath id="_clip29">
                <path d="M188.359,78.264C183.978,74.778 183.003,69.302 178.623,65.821C175.864,63.811 171.829,63.749 170.134,66.176C170.276,68.067 170.665,69.78 170.665,69.78C170.914,72.55 172.515,74.685 172.515,74.685C173.006,77.323 176.45,81.351 176.45,81.351C178.789,85.25 183.22,85.881 183.22,85.881C184.942,87.513 197.129,87.898 197.129,87.898C201.962,86.869 205.585,85.52 208.302,84.054C208.143,83.948 207.992,83.837 207.835,83.733C201.505,80.253 194.687,82.242 188.359,78.264Z"/>
            </clipPath>
            <g clip-path="url(#_clip29)">
                <path d="M202.767,57.339L208.606,85.52L175.042,92.474L169.203,64.293L202.767,57.339Z" style="fill:url(#_Linear30);fill-rule:nonzero;"/>
            </g>
            <clipPath id="_clip31">
                <path d="M175.56,80.462C175.922,80.924 176.164,81.206 176.164,81.206C178.5,85.102 182.932,85.734 182.932,85.734C184.656,87.369 196.839,87.74 196.839,87.74C201.674,86.72 205.297,85.372 208.016,83.904C207.857,83.797 207.706,83.69 207.546,83.588C206.938,83.252 206.326,82.97 205.706,82.723C202.683,83.425 199.488,83.721 196.382,83.928C189.509,84.736 181.323,84.559 175.56,80.462Z"/>
            </clipPath>
            <g clip-path="url(#_clip31)">
                <path d="M205.997,74.156L208.318,85.362L177.881,91.668L175.56,80.462L205.997,74.156Z" style="fill:url(#_Linear32);fill-rule:nonzero;"/>
            </g>
            <clipPath id="_clip33">
                <rect x="186.62" y="49.237" width="24.463" height="17.955"/>
            </clipPath>
            <g clip-path="url(#_clip33)">
                <path d="M210.717,64.263C209.078,70.641 206.21,64.864 199.616,63.169C193.023,61.474 185.201,64.508 186.84,58.126C188.479,51.746 195.153,47.946 201.748,49.64C208.342,51.332 212.355,57.88 210.717,64.263Z" style="fill:url(#_Radial34);fill-rule:nonzero;"/>
            </g>
            <clipPath id="_clip35">
                <path d="M183.296,54.332C180.782,63.261 185.308,82.251 185.308,82.251C188.582,93.447 193.359,91.434 193.359,91.434C196.503,90.678 197.257,87.782 197.257,87.782C188.706,91.307 185.56,66.283 185.56,66.283C184.557,57.977 185.939,54.584 185.939,54.584C186.816,52.063 185.181,47.535 185.181,47.535C185.308,49.549 184.806,52.823 184.806,52.823C184.303,49.047 181.535,46.91 181.535,46.91C184.177,49.804 183.296,54.332 183.296,54.332Z"/>
            </clipPath>
            <g clip-path="url(#_clip35)">
                <path d="M188.491,45.469L198.025,91.491L187.099,93.754L177.565,47.733L188.491,45.469Z" style="fill:url(#_Linear36);fill-rule:nonzero;"/>
            </g>
            <clipPath id="_clip37">
                <path d="M183.549,54.602C181.032,63.403 185.56,82.122 185.56,82.122C188.188,90.978 191.785,91.447 193.1,91.284C191.458,91.106 188.543,89.618 186.319,82.122C186.319,82.122 181.792,63.403 184.307,54.602C184.307,54.602 184.732,52.423 184.091,50.143C183.109,48.295 181.788,47.291 181.788,47.291C184.43,50.14 183.549,54.602 183.549,54.602Z"/>
            </clipPath>
            <g clip-path="url(#_clip37)">
                <path d="M185.061,92.401L178.85,47.699L186.889,46.582L193.1,91.284L185.061,92.401Z" style="fill:url(#_Linear38);fill-rule:nonzero;"/>
            </g>
            <clipPath id="_clip39">
                <path d="M188.829,69.681C188.829,69.681 191.036,56.718 206.506,49.675L205.639,48.924C205.639,48.924 189.083,56.344 188.829,69.681Z"/>
            </clipPath>
            <g clip-path="url(#_clip39)">
                <path d="M206.431,48.852L208.175,67.91L188.829,69.681L187.084,50.623L206.431,48.852Z" style="fill:url(#_Linear40);fill-rule:nonzero;"/>
            </g>
            <clipPath id="_clip41">
                <path d="M210.712,53.081C210.712,53.081 205.309,58.615 199.649,60.12C199.649,60.12 190.34,63.766 188.956,71.193C188.956,71.193 192.604,62.762 200.78,61.002C200.78,61.002 209.825,57.67 211.46,53.769C211.46,53.769 211.173,53.037 210.847,53.037C210.802,53.037 210.758,53.051 210.712,53.081Z"/>
            </clipPath>
            <g clip-path="url(#_clip41)">
                <path d="M211.388,52.983L212.855,69.005L188.956,71.193L187.489,55.171L211.388,52.983Z" style="fill:url(#_Linear42);fill-rule:nonzero;"/>
            </g>
            <clipPath id="_clip43">
                <path d="M213.423,57.861C213.423,57.861 213.106,61.252 205.056,63.766C205.056,63.766 194.993,65.658 191.975,78.109C191.975,78.109 195.749,66.157 205.936,64.648C205.936,64.648 213.879,63.431 214.63,58.151C214.63,58.151 214.077,57.695 213.703,57.695C213.584,57.694 213.483,57.74 213.423,57.861Z"/>
            </clipPath>
            <g clip-path="url(#_clip43)">
                <path d="M214.58,57.603L216.254,75.886L191.975,78.109L190.301,59.825L214.58,57.603Z" style="fill:url(#_Linear44);fill-rule:nonzero;"/>
            </g>
            <clipPath id="_clip45">
                <path d="M209.08,67.162C209.08,67.162 201.785,65.651 196.252,70.94C196.252,70.94 201.537,66.411 209.332,68.424C209.332,68.424 214.722,69.782 217.109,67.142L216.245,66.107C216.245,66.107 214.992,68.547 209.08,67.162Z"/>
            </clipPath>
            <g clip-path="url(#_clip45)">
                <path d="M216.846,64.272L217.329,69.543L196.3,71.468L195.818,66.197L216.846,64.272Z" style="fill:url(#_Linear46);fill-rule:nonzero;"/>
            </g>
            <clipPath id="_clip47">
                <path d="M193.477,81.184C200.102,68.763 212.284,72.342 212.284,72.342C217.238,72.873 216.629,70.746 216.629,70.746C214.952,71.808 212.057,71.049 212.057,71.049C210.524,70.65 209.1,70.474 207.778,70.474C197.484,70.475 193.477,81.184 193.477,81.184Z"/>
            </clipPath>
            <g clip-path="url(#_clip47)">
                <path d="M216.722,67.241L217.795,78.958L193.477,81.184L192.404,69.468L216.722,67.241Z" style="fill:url(#_Linear48);fill-rule:nonzero;"/>
            </g>
            <clipPath id="_clip49">
                <path d="M188.829,70.178C188.829,70.178 191.473,56.968 206.941,49.926L206.19,49.174C206.19,49.174 189.083,56.847 188.829,70.178Z"/>
            </clipPath>
            <g clip-path="url(#_clip49)">
                <path d="M206.866,49.112L208.629,68.365L188.829,70.178L187.066,50.925L206.866,49.112Z" style="fill:url(#_Linear50);fill-rule:nonzero;"/>
            </g>
            <clipPath id="_clip51">
                <path d="M211.095,53.322C211.095,53.322 205.309,59.107 199.649,60.619C199.649,60.619 190.34,64.265 188.956,71.686C188.956,71.686 192.604,63.261 200.78,61.496C200.78,61.496 210.089,57.973 211.723,54.077C211.723,54.077 211.524,53.281 211.216,53.281C211.178,53.281 211.137,53.294 211.095,53.322Z"/>
            </clipPath>
            <g clip-path="url(#_clip51)">
                <path d="M211.646,53.238L213.132,69.473L188.956,71.686L187.47,55.451L211.646,53.238Z" style="fill:url(#_Linear52);fill-rule:nonzero;"/>
            </g>
            <clipPath id="_clip53">
                <path d="M213.861,57.977C213.861,57.977 213.106,61.753 205.056,64.265C205.056,64.265 194.993,66.154 191.975,78.606C191.975,78.606 195.749,66.659 205.936,65.147C205.936,65.147 214.114,63.51 214.87,58.225C214.87,58.225 214.445,57.805 214.125,57.805C214.019,57.805 213.924,57.852 213.861,57.977Z"/>
            </clipPath>
            <g clip-path="url(#_clip53)">
                <path d="M214.825,57.731L216.53,76.358L191.975,78.606L190.27,59.979L214.825,57.731Z" style="fill:url(#_Linear54);fill-rule:nonzero;"/>
            </g>
            <clipPath id="_clip55">
                <path d="M209.08,67.661C209.08,67.661 201.785,66.154 196.252,71.435C196.252,71.435 201.537,66.907 209.332,68.919C209.332,68.919 214.87,70.051 217.255,67.409L216.755,66.401C216.755,66.401 214.992,69.049 209.08,67.661Z"/>
            </clipPath>
            <g clip-path="url(#_clip55)">
                <path d="M217.013,64.76L217.475,69.813L196.281,71.753L195.819,66.7L217.013,64.76Z" style="fill:url(#_Linear56);fill-rule:nonzero;"/>
            </g>
            <clipPath id="_clip57">
                <path d="M172.72,52.193C172.72,52.193 178.889,52.42 182.775,63.842C182.775,63.842 181.936,53.942 172.949,51.204C172.949,51.204 172.417,51.431 172.72,52.193Z"/>
            </clipPath>
            <g clip-path="url(#_clip57)">
                <path d="M181.613,50.411L182.842,63.836L173.63,64.679L172.401,51.254L181.613,50.411Z" style="fill:url(#_Linear58);fill-rule:nonzero;"/>
            </g>
            <clipPath id="_clip59">
                <path d="M170.282,57.296C169.75,57.371 170.052,58.44 170.052,58.44C178.356,61.332 183.917,74.586 183.917,74.586L183.841,73.519C176.433,58.171 171.527,57.28 170.488,57.28C170.352,57.28 170.282,57.296 170.282,57.296Z"/>
            </clipPath>
            <g clip-path="url(#_clip59)">
                <path d="M182.255,56.19L183.938,74.584L171.431,75.729L169.747,57.335L182.255,56.19Z" style="fill:url(#_Linear60);fill-rule:nonzero;"/>
            </g>
            <clipPath id="_clip61">
                <path d="M169.478,63.924L169.447,64.834C174.701,66.207 183.61,80.833 183.61,80.833C184.45,82.051 185.897,83.113 185.897,83.113C185.138,82.202 184.373,80.758 184.373,80.758C174.394,63.842 169.522,62.93 169.522,62.93C169.489,62.91 169.461,62.901 169.438,62.901C169.194,62.901 169.478,63.924 169.478,63.924Z"/>
            </clipPath>
            <g clip-path="url(#_clip61)">
                <path d="M183.923,61.553L185.897,83.113L171.168,84.461L169.194,62.901L183.923,61.553Z" style="fill:url(#_Linear62);fill-rule:nonzero;"/>
            </g>
            <clipPath id="_clip63">
                <path d="M170.356,70.928C174.701,72.453 181.705,82.051 181.705,82.051C183.992,85.857 187.345,86.924 187.345,86.924C185.209,85.476 184.067,84.028 184.067,84.028C175.613,72.3 170.433,69.786 170.433,69.786C170.414,69.783 170.396,69.782 170.379,69.782C169.861,69.782 170.356,70.928 170.356,70.928Z"/>
            </clipPath>
            <g clip-path="url(#_clip63)">
                <path d="M185.643,68.337L187.345,86.924L171.563,88.369L169.861,69.782L185.643,68.337Z" style="fill:url(#_Linear64);fill-rule:nonzero;"/>
            </g>
            <clipPath id="_clip65">
                <path d="M172.453,52.66C172.453,52.66 178.623,52.887 182.508,64.31C182.508,64.31 181.669,54.408 172.684,51.669C172.684,51.669 172.151,51.895 172.453,52.66Z"/>
            </clipPath>
            <g clip-path="url(#_clip65)">
                <path d="M180.755,49.997L183.671,64.069L175.043,65.856L172.128,51.784L180.755,49.997Z" style="fill:url(#_Linear66);fill-rule:nonzero;"/>
            </g>
            <clipPath id="_clip67">
                <path d="M170.015,57.765C169.483,57.84 169.789,58.904 169.789,58.904C178.089,61.797 183.646,75.053 183.646,75.053L183.574,73.984C176.172,58.644 171.268,57.749 170.224,57.749C170.086,57.749 170.015,57.765 170.015,57.765Z"/>
            </clipPath>
            <g clip-path="url(#_clip67)">
                <path d="M179.787,55.705L183.789,75.023L173.485,77.158L169.483,57.84L179.787,55.705Z" style="fill:url(#_Linear68);fill-rule:nonzero;"/>
            </g>
            <clipPath id="_clip69">
                <path d="M169.212,64.39L169.178,65.306C174.434,66.673 183.343,81.297 183.343,81.297C184.182,82.512 185.631,83.582 185.631,83.582C184.871,82.668 184.105,81.219 184.105,81.219C174.13,64.31 169.256,63.397 169.256,63.397C169.223,63.378 169.196,63.369 169.174,63.369C168.928,63.369 169.212,64.39 169.212,64.39Z"/>
            </clipPath>
            <g clip-path="url(#_clip69)">
                <path d="M180.928,60.883L185.631,83.582L173.486,86.098L168.783,63.399L180.928,60.883Z" style="fill:url(#_Linear70);fill-rule:nonzero;"/>
            </g>
            <clipPath id="_clip71">
                <path d="M170.091,71.397C174.434,72.918 181.441,82.512 181.441,82.512C183.725,86.324 187.077,87.388 187.077,87.388C184.946,85.941 183.801,84.495 183.801,84.495C175.348,72.764 170.166,70.254 170.166,70.254C170.147,70.251 170.129,70.25 170.112,70.25C169.595,70.25 170.091,71.397 170.091,71.397Z"/>
            </clipPath>
            <g clip-path="url(#_clip71)">
                <path d="M182.953,67.483L187.077,87.388L173.719,90.155L169.595,70.25L182.953,67.483Z" style="fill:url(#_Linear72);fill-rule:nonzero;"/>
            </g>
            <clipPath id="_clip73">
                <path d="M193.477,81.675C200.102,69.261 212.284,72.842 212.284,72.842C217.238,73.376 216.629,71.24 216.629,71.24C214.952,72.309 212.057,71.548 212.057,71.548C210.52,71.148 209.093,70.971 207.77,70.971C197.482,70.972 193.477,81.675 193.477,81.675Z"/>
            </clipPath>
            <g clip-path="url(#_clip73)">
                <path d="M216.722,67.74L217.794,79.449L193.477,81.675L192.405,69.966L216.722,67.74Z" style="fill:url(#_Linear74);fill-rule:nonzero;"/>
            </g>
            <clipPath id="_clip75">
                <path d="M187.36,75.364C187.36,75.364 189.509,89.481 198.416,87.929C198.416,87.929 201.087,87.326 201.603,87.07C201.603,87.07 191.275,89.136 187.36,75.364Z"/>
            </clipPath>
            <g clip-path="url(#_clip75)">
                <path d="M198.691,73.016L201.642,87.261L189.567,89.762L186.616,75.518L198.691,73.016Z" style="fill:url(#_Linear76);fill-rule:nonzero;"/>
            </g>
            <clipPath id="_clip77">
                <path d="M187.063,86.613C187.989,88.428 189.453,90.105 189.453,90.105C192.301,92.742 194.793,90.774 195.914,89.542C192.985,89.954 189.704,88.522 187.063,86.613Z"/>
            </clipPath>
            <g clip-path="url(#_clip77)">
                <path d="M194.968,84.975L196.401,91.893L188.496,93.53L187.063,86.613L194.968,84.975Z" style="fill:url(#_Linear78);fill-rule:nonzero;"/>
            </g>
            <clipPath id="_clip79">
                <path d="M185.953,71.208C185.953,71.208 187.878,88.715 196.509,88.757C196.509,88.757 186.83,90.688 185.953,71.208Z"/>
            </clipPath>
            <g clip-path="url(#_clip79)">
                <path d="M192.589,69.833L196.509,88.757L186.845,90.759L182.924,71.835L192.589,69.833Z" style="fill:url(#_Linear80);fill-rule:nonzero;"/>
            </g>
            <clipPath id="_clip81">
                <path d="M181.671,47.136C181.671,47.136 183.755,48.424 184.734,52.586C184.734,52.586 185.093,51.563 185.117,50.25C185.117,50.25 183.885,47.471 181.671,47.136Z"/>
            </clipPath>
            <g clip-path="url(#_clip81)">
                <path d="M184.357,46.58L185.565,52.414L182.88,52.97L181.671,47.136L184.357,46.58Z" style="fill:url(#_Linear82);fill-rule:nonzero;"/>
            </g>
            <clipPath id="_clip83">
                <path d="M185.527,48.047C185.527,48.047 186.649,51.332 185.207,58.949C185.207,58.949 184.724,61.921 185.369,64.482C185.369,64.482 187.293,55.507 185.607,47.81L185.527,48.047Z"/>
            </clipPath>
            <g clip-path="url(#_clip83)">
                <path d="M185.906,47.748L189.209,63.687L185.259,64.505L181.957,48.566L185.906,47.748Z" style="fill:url(#_Linear84);fill-rule:nonzero;"/>
            </g>
            <clipPath id="_clip85">
                <path d="M201.127,42.115C201.127,42.115 199.719,42.719 199.546,44.788L199.031,45.646L198.168,45.301C198.168,45.301 199.317,42.405 200.725,42.086L201.127,42.115Z"/>
            </clipPath>
            <g clip-path="url(#_clip85)">
                <path d="M201.105,42.007L201.742,45.084L198.272,45.803L197.635,42.726L201.105,42.007Z" style="fill:url(#_Linear86);fill-rule:nonzero;"/>
            </g>
            <clipPath id="_clip87">
                <rect x="174.837" y="48.27" width="7.458" height="7.985"/>
            </clipPath>
            <g clip-path="url(#_clip87)">
                <path d="M174.837,51.356C174.837,51.356 177.529,51.546 180.699,56.255C180.699,56.255 184.159,52.219 180.891,48.283C180.891,48.283 178.777,47.892 174.837,51.356Z" style="fill:url(#_Radial88);fill-rule:nonzero;"/>
            </g>
            <path d="M173.112,53.275C173.112,53.275 176.761,54.524 178.68,57.789C178.68,57.789 175.799,56.158 170.708,56.925C170.708,56.925 171.379,54.136 173.112,53.085L173.112,53.275Z" style="fill:url(#_Radial89);fill-rule:nonzero;"/>
            <clipPath id="_clip90">
                <rect x="169.367" y="59.519" width="5.184" height="3.361"/>
            </clipPath>
            <g clip-path="url(#_clip90)">
                <path d="M170.325,59.519C170.325,59.519 174.072,61.341 174.551,62.88C174.551,62.88 171.479,62.209 169.843,62.691C169.843,62.691 168.5,60.19 170.325,59.519Z" style="fill:url(#_Radial91);fill-rule:nonzero;"/>
            </g>
            <clipPath id="_clip92">
                <rect x="181.908" y="40.093" width="16.984" height="3.603"/>
            </clipPath>
            <g clip-path="url(#_clip92)">
                <path d="M181.908,43.02C181.908,43.02 189.608,37.209 198.892,41.964C198.892,41.964 197.987,42.719 197.535,43.696C197.535,43.696 190.739,39.775 181.908,43.02Z" style="fill:url(#_Radial93);fill-rule:nonzero;"/>
            </g>
            <clipPath id="_clip94">
                <rect x="206.743" y="47.326" width="5.966" height="2.863"/>
            </clipPath>
            <g clip-path="url(#_clip94)">
                <path d="M206.743,47.696C206.743,47.696 209.006,49.054 209.762,50.189C209.762,50.189 212.104,48.985 212.709,48.379C212.709,48.379 208.855,46.569 206.743,47.696Z" style="fill:url(#_Radial95);fill-rule:nonzero;"/>
            </g>
            <path d="M211.649,51.928C211.649,51.928 213.31,54.039 213.61,54.717C213.61,54.717 215.65,53.435 216.028,53.132C216.028,53.132 214.969,51.02 214.519,50.64C214.519,50.64 212.025,51.399 211.649,51.928Z" style="fill:url(#_Radial96);fill-rule:nonzero;"/>
            <path d="M214.67,56.606C214.67,56.606 215.349,58.416 215.425,58.798C215.425,58.798 217.161,58.343 218.294,57.364L217.161,55.398C217.161,55.398 215.273,56.23 214.67,56.606Z" style="fill:url(#_Radial97);fill-rule:nonzero;"/>
            <clipPath id="_clip98">
                <path d="M206.196,56.166C205.721,56.996 204.337,57.104 203.104,56.397C201.873,55.695 201.258,54.446 201.735,53.614C202.207,52.78 203.593,52.677 204.826,53.38C206.062,54.092 206.672,55.334 206.196,56.166Z"/>
            </clipPath>
            <g clip-path="url(#_clip98)">
                <path d="M202.594,52.103L207.059,54.657L205.333,57.674L200.868,55.12L202.594,52.103Z" style="fill:url(#_Radial99);fill-rule:nonzero;"/>
            </g>
            <clipPath id="_clip100">
                <path d="M181.848,61.009C181.848,61.009 182.646,77.234 186.625,87.765C186.625,87.765 175.235,85.378 177.012,67.011C177.012,67.011 178.234,62.601 181.848,61.009Z"/>
            </clipPath>
            <g clip-path="url(#_clip100)">
                <path d="M181.848,61.009L187.36,87.613L176.178,89.929L170.666,63.326L181.848,61.009Z" style="fill:url(#_Linear101);fill-rule:nonzero;"/>
            </g>
            <clipPath id="_clip102">
                <path d="M214.597,84.059C218.72,88.851 224.849,89.525 224.849,89.525C222.287,85.174 211.699,74.027 211.699,74.027C210.25,81.159 214.597,84.059 214.597,84.059Z"/>
            </clipPath>
            <g clip-path="url(#_clip102)">
                <path d="M221.229,72.053L224.849,89.525L212.513,92.081L208.893,74.608L221.229,72.053Z" style="fill:url(#_Linear103);fill-rule:nonzero;"/>
            </g>
            <clipPath id="_clip104">
                <path d="M233.776,43.714C232.094,43.714 229.455,44.715 229.455,44.715C226.572,44.715 223.934,46.272 223.934,46.272C220.693,47.727 218.049,51.403 218.049,51.403C223.815,48.394 239.896,46.498 239.896,46.498C237.829,43.993 235.427,43.678 234.35,43.678C233.988,43.678 233.776,43.714 233.776,43.714Z"/>
            </clipPath>
            <g clip-path="url(#_clip104)">
                <path d="M238.993,42.142L239.971,46.861L218.049,51.403L217.071,46.683L238.993,42.142Z" style="fill:url(#_Linear105);fill-rule:nonzero;"/>
            </g>
            <clipPath id="_clip106">
                <path d="M210.098,68.362C210.098,80.804 220.681,90.889 233.733,90.889C246.783,90.889 255.001,84.433 255.001,71.988C255.001,64.211 250.438,53.987 245.074,49.613C241.856,46.992 238.627,45.202 233.733,45.202C220.681,45.202 210.098,55.919 210.098,68.362Z"/>
            </clipPath>
            <g clip-path="url(#_clip106)">
                <path d="M249.812,39.167L259.962,88.159L213.611,97.761L203.461,48.769L249.812,39.167Z" style="fill:url(#_Linear107);fill-rule:nonzero;"/>
            </g>
            <clipPath id="_clip108">
                <path d="M209.782,69.494C209.782,82.206 223.09,90.577 232.662,90.577C242.239,90.577 244.445,82.206 244.445,69.494C244.445,56.783 240.699,45.675 231.124,45.675C221.556,45.675 209.782,56.783 209.782,69.494Z"/>
            </clipPath>
            <g clip-path="url(#_clip108)">
                <path d="M241.296,41.585L251.067,88.748L212.781,96.68L203.01,49.517L241.296,41.585Z" style="fill:url(#_Linear109);fill-rule:nonzero;"/>
            </g>
            <clipPath id="_clip110">
                <path d="M231.67,90.092C231.821,90.097 231.976,90.105 232.13,90.105C241.475,90.105 243.631,81.907 243.631,69.462C243.631,57.06 239.997,46.22 230.719,46.151C231.839,60.916 232.255,75.362 231.67,90.092Z"/>
            </clipPath>
            <g clip-path="url(#_clip110)">
                <path d="M240.933,44.035L250.107,88.317L232.076,92.052L222.902,47.77L240.933,44.035Z" style="fill:url(#_Linear111);fill-rule:nonzero;"/>
            </g>
            <clipPath id="_clip112">
                <path d="M231.576,90.245C231.576,90.245 233.122,90.674 235.648,90.311C235.648,90.311 236.97,75.27 231.676,60.71L231.576,90.245Z"/>
            </clipPath>
            <g clip-path="url(#_clip112)">
                <path d="M236.137,60.459L237.822,90.41L231.605,90.759L229.92,60.809L236.137,60.459Z" style="fill:url(#_Linear113);fill-rule:nonzero;"/>
            </g>
            <clipPath id="_clip114">
                <path d="M226.026,89.032C226.026,89.032 228.1,89.936 231.713,90.217C231.713,90.217 232.354,62.766 231.449,60.619C231.449,60.619 223.769,66.718 226.026,89.032Z"/>
            </clipPath>
            <g clip-path="url(#_clip114)">
                <path d="M231.467,60.612L241.923,86.015L227.267,92.047L216.811,66.644L231.467,60.612Z" style="fill:url(#_Linear115);fill-rule:nonzero;"/>
            </g>
            <clipPath id="_clip116">
                <path d="M232.469,65.497L233.389,66.944C236.152,62.866 232.469,59.578 232.469,59.578C234.311,64.182 232.469,65.497 232.469,65.497Z"/>
            </clipPath>
            <g clip-path="url(#_clip116)">
                <path d="M235.956,59.382L236.372,66.776L232.553,66.991L232.137,59.597L235.956,59.382Z" style="fill:url(#_Linear117);fill-rule:nonzero;"/>
            </g>
            <clipPath id="_clip118">
                <path d="M235.228,66.42C234.311,66.944 233.389,68.522 233.389,68.522L233.707,70.216C235.433,69.812 236.412,67.735 236.412,67.735C238.384,63.001 235.362,60.629 235.362,60.629C236.807,64.71 235.228,66.42 235.228,66.42Z"/>
            </clipPath>
            <g clip-path="url(#_clip118)">
                <path d="M238.241,60.467L238.774,69.931L233.485,70.228L232.953,60.765L238.241,60.467Z" style="fill:url(#_Linear119);fill-rule:nonzero;"/>
            </g>
            <clipPath id="_clip120">
                <path d="M239.434,65.171C239.936,68.699 237.795,70.711 237.795,70.711C234.146,72.473 234.398,75.245 234.398,75.245L234.647,77.262C238.299,75.872 238.675,72.095 238.675,72.095C242.959,68.192 239.18,63.157 239.18,63.157C238.675,63.534 239.434,65.171 239.434,65.171Z"/>
            </clipPath>
            <g clip-path="url(#_clip120)">
                <path d="M242.665,62.961L243.441,76.767L234.416,77.275L233.64,63.469L242.665,62.961Z" style="fill:url(#_Linear121);fill-rule:nonzero;"/>
            </g>
            <clipPath id="_clip122">
                <path d="M240.567,81.542C239.306,84.433 234.772,86.452 234.772,86.452L235.152,89.346C245.604,86.701 243.211,67.059 243.211,67.059C243.59,77.262 240.567,81.542 240.567,81.542Z"/>
            </clipPath>
            <g clip-path="url(#_clip122)">
                <path d="M244.495,66.987L245.719,88.752L234.935,89.358L233.711,67.593L244.495,66.987Z" style="fill:url(#_Linear123);fill-rule:nonzero;"/>
            </g>
            <clipPath id="_clip124">
                <path d="M241.449,74.489C241.449,74.489 240.818,74.74 240.44,76.878C240.44,76.878 238.046,79.147 237.167,81.159C237.167,81.159 235.531,81.159 235.027,83.052C234.525,84.941 234.772,85.189 234.772,85.189C234.772,85.189 237.29,83.991 238.046,83.176C238.046,83.176 238.929,82.544 239.684,81.292C239.684,81.292 241.951,77.887 241.825,74.74C241.825,74.74 242.329,74.361 242.329,72.851C242.329,72.851 241.701,72.851 241.449,74.489Z"/>
            </clipPath>
            <g clip-path="url(#_clip124)">
                <path d="M242.327,72.816L242.997,84.726L234.54,85.202L233.87,73.291L242.327,72.816Z" style="fill:url(#_Linear125);fill-rule:nonzero;"/>
            </g>
            <clipPath id="_clip126">
                <path d="M240.19,57.489C240.19,57.489 241.701,61.517 241.449,64.417C241.449,64.417 241.825,69.325 241.449,70.078C241.449,70.078 239.306,73.357 239.434,74.489C239.434,74.489 236.034,77.262 235.027,79.525L235.152,80.782C235.152,80.782 237.29,79.649 237.923,78.136C237.923,78.136 239.808,76.375 240.19,74.74C240.19,74.74 242.959,70.21 242.708,68.315C242.708,68.315 242.453,60.384 240.946,56.737C240.946,56.737 240.673,56.497 240.447,56.497C240.237,56.497 240.068,56.702 240.19,57.489Z"/>
            </clipPath>
            <g clip-path="url(#_clip126)">
                <path d="M242.228,56.385L243.574,80.308L235.098,80.785L233.752,56.862L242.228,56.385Z" style="fill:url(#_Linear127);fill-rule:nonzero;"/>
            </g>
            <clipPath id="_clip128">
                <path d="M219.917,84.686C221.176,87.01 227.092,88.969 227.092,88.969L228.353,86.577C226.211,84.941 220.923,83.551 220.923,83.551C218.783,82.544 215.384,80.782 215.384,80.782C215.887,82.675 219.917,84.686 219.917,84.686Z"/>
            </clipPath>
            <g clip-path="url(#_clip128)">
                <path d="M224.434,77.057L229.012,88.179L219.726,92.001L215.148,80.879L224.434,77.057Z" style="fill:url(#_Linear129);fill-rule:nonzero;"/>
            </g>
            <clipPath id="_clip130">
                <path d="M215.887,79.02C218.406,83.176 226.841,84.183 226.841,84.183L228.982,82.365C226.841,79.911 220.923,78.765 220.923,78.765C212.361,75.997 212.611,63.282 212.611,63.282C209.338,71.844 215.887,79.02 215.887,79.02Z"/>
            </clipPath>
            <g clip-path="url(#_clip130)">
                <path d="M219.894,60.284L229.312,83.166L216.217,88.556L206.799,65.674L219.894,60.284Z" style="fill:url(#_Linear131);fill-rule:nonzero;"/>
            </g>
            <clipPath id="_clip132">
                <path d="M219.665,75.37C221.554,79.905 226.968,78.014 226.968,78.014L226.968,76.375C220.417,80.404 217.649,66.052 217.649,66.052C217.524,71.715 219.665,75.37 219.665,75.37Z"/>
            </clipPath>
            <g clip-path="url(#_clip132)">
                <path d="M221.985,64.267L227.545,77.777L220.525,80.666L214.965,67.157L221.985,64.267Z" style="fill:url(#_Linear133);fill-rule:nonzero;"/>
            </g>
            <clipPath id="_clip134">
                <path d="M221.301,66.052C221.806,71.715 226.968,73.857 226.968,73.857C226.968,73.857 228.604,74.864 227.848,71.844C227.828,71.752 227.802,71.665 227.772,71.576C226.889,68.802 223.692,68.444 223.692,68.444C222.306,66.936 221.301,60.135 221.301,60.135C220.673,61.771 221.301,66.052 221.301,66.052Z"/>
            </clipPath>
            <g clip-path="url(#_clip134)">
                <path d="M223.029,59.424L229.271,74.589L223.899,76.801L217.657,61.635L223.029,59.424Z" style="fill:url(#_Linear135);fill-rule:nonzero;"/>
            </g>
            <clipPath id="_clip136">
                <path d="M226.589,62.525C226.565,62.611 226.544,62.699 226.523,62.787C225.975,65.308 227.975,67.312 227.975,67.312L229.109,66.43C226.464,64.663 227.848,59.755 227.848,59.755C226.714,60.511 227.347,59.881 226.589,62.525Z"/>
            </clipPath>
            <g clip-path="url(#_clip136)">
                <path d="M227.82,59.686L230.526,66.262L226.97,67.726L224.264,61.15L227.82,59.686Z" style="fill:url(#_Linear137);fill-rule:nonzero;"/>
            </g>
            <clipPath id="_clip138">
                <path d="M229.612,63.909L230.493,63.534C228.731,61.771 230.493,59.123 230.493,59.123C227.471,61.015 229.612,63.909 229.612,63.909Z"/>
            </clipPath>
            <g clip-path="url(#_clip138)">
                <path d="M230.493,59.123L232.05,62.906L228.8,64.243L227.243,60.461L230.493,59.123Z" style="fill:url(#_Linear139);fill-rule:nonzero;"/>
            </g>
            <clipPath id="_clip140">
                <path d="M227.848,68.945L227.975,68.315C221.318,62.538 225.062,55.129 225.079,55.095C219.412,65.798 227.848,68.945 227.848,68.945Z"/>
            </clipPath>
            <g clip-path="url(#_clip140)">
                <path d="M225.079,55.095L230.355,67.913L221.742,71.458L216.466,58.64L225.079,55.095Z" style="fill:url(#_Linear141);fill-rule:nonzero;"/>
            </g>
            <clipPath id="_clip142">
                <path d="M218.656,58.997C217.399,64.036 219.412,68.569 219.412,68.569C219.917,72.851 224.826,75.997 224.826,75.997C226.337,75.747 224.826,74.489 224.826,74.489C220.923,71.968 220.545,68.945 220.545,68.945C218.528,64.921 219.287,59.377 219.287,59.377C219.163,57.996 219.917,54.971 219.917,54.971C218.528,56.483 218.656,58.997 218.656,58.997Z"/>
            </clipPath>
            <g clip-path="url(#_clip142)">
                <path d="M219.917,54.971L228.16,74.997L221.866,77.587L213.624,57.561L219.917,54.971Z" style="fill:url(#_Linear143);fill-rule:nonzero;"/>
            </g>
            <clipPath id="_clip144">
                <path d="M213.871,67.312C213.871,68.821 215.384,69.45 215.384,69.45C216.013,68.945 215.005,67.689 215.005,67.689C211.858,61.645 218.406,53.083 218.406,53.083C211.858,59.504 213.871,67.312 213.871,67.312Z"/>
            </clipPath>
            <g clip-path="url(#_clip144)">
                <path d="M218.406,53.083L223.729,66.015L214.312,69.891L208.989,56.959L218.406,53.083Z" style="fill:url(#_Linear145);fill-rule:nonzero;"/>
            </g>
            <clipPath id="_clip146">
                <path d="M240.117,49.735C240.117,49.735 245.022,53.746 245.357,66.118L250.595,55.864C250.595,55.864 246.804,47.168 238.67,45.5C238.67,45.5 240.23,47.504 240.117,49.735Z"/>
            </clipPath>
            <g clip-path="url(#_clip146)">
                <path d="M248.045,43.558L252.416,64.655L243.041,66.598L238.67,45.5L248.045,43.558Z" style="fill:url(#_Linear147);fill-rule:nonzero;"/>
            </g>
            <clipPath id="_clip148">
                <path d="M222.642,56.8C222.642,56.8 223.075,55.585 223.333,55.414C223.596,55.243 224.465,54.197 224.465,54.197C224.465,54.197 224.809,53.759 225.07,53.502C225.332,53.239 225.332,53.067 225.851,52.72C226.375,52.377 226.462,52.377 226.808,52.201C227.152,52.026 228.108,51.332 228.631,51.158C229.153,50.985 228.89,50.813 229.499,50.813C230.107,50.813 230.453,50.547 230.453,50.547L230.539,50.898C230.539,50.898 229.933,50.985 229.584,51.073C229.238,51.158 228.631,51.416 228.631,51.416C228.631,51.416 227.502,51.507 227.152,52.026C226.808,52.549 227.327,51.943 226.808,52.549C226.285,53.154 226.722,52.808 226.285,53.154C225.851,53.502 226.024,53.416 225.591,53.848C225.155,54.282 225.155,54.023 224.723,54.628C224.29,55.243 224.29,54.892 223.769,55.762C223.246,56.629 223.42,56.714 223.075,57.06C222.725,57.409 222.291,57.67 222.291,57.67L222.642,56.8Z"/>
            </clipPath>
            <g clip-path="url(#_clip148)">
                <path d="M230.32,50.224L231.778,53.765L222.291,57.67L220.834,54.129L230.32,50.224Z" style="fill:url(#_Linear149);fill-rule:nonzero;"/>
            </g>
            <clipPath id="_clip150">
                <path d="M232.102,53.067L233.059,53.935L233.838,54.892C233.838,54.892 234.359,55.414 234.359,55.848C234.359,56.278 235.055,57.237 235.055,57.237L235.401,58.45C235.401,58.45 235.314,58.45 235.401,58.974C235.489,59.489 235.401,59.666 235.401,59.666L235.226,60.016L235.055,59.401L234.968,59.062C234.968,59.062 234.792,58.45 234.707,58.191C234.622,57.929 234.272,57.321 234.272,57.321L233.58,56.541C233.58,56.541 233.059,56.366 232.796,55.5C232.535,54.628 232.362,54.282 232.362,54.282C232.362,54.282 232.45,54.544 232.016,53.935C231.583,53.327 231.495,53.067 231.495,53.067L231.235,52.72L232.102,53.067Z"/>
            </clipPath>
            <g clip-path="url(#_clip150)">
                <path d="M232.958,52.011L236.104,59.654L234.381,60.364L231.235,52.72L232.958,52.011Z" style="fill:url(#_Linear151);fill-rule:nonzero;"/>
            </g>
            <clipPath id="_clip152">
                <path d="M232.362,50.203C232.362,50.203 233.58,50.03 233.75,50.287C233.925,50.547 234.622,51.158 234.622,51.158L235.662,52.286C235.662,52.286 236.183,52.978 236.268,53.239C236.355,53.502 236.531,53.935 236.704,54.369C236.876,54.807 236.876,55.152 236.876,55.152C236.876,55.152 236.79,55.152 236.618,54.892C236.443,54.628 236.876,54.892 236.183,54.282C235.489,53.672 235.228,53.239 235.055,52.89C234.88,52.549 234.534,51.943 234.534,51.943L233.75,51.507L233.316,51.073C233.316,51.073 233.059,50.813 232.708,50.721C232.362,50.635 232.016,50.462 232.016,50.462L231.407,50.116L232.362,50.203Z"/>
            </clipPath>
            <g clip-path="url(#_clip152)">
                <path d="M234.484,48.85L237.049,55.081L233.972,56.347L231.407,50.116L234.484,48.85Z" style="fill:url(#_Linear153);fill-rule:nonzero;"/>
            </g>
            <clipPath id="_clip154">
                <path d="M232.102,46.903L233.925,46.991L235.489,47.601L236.355,48.295C236.355,48.295 236.443,48.295 236.876,48.726C237.314,49.164 237.66,48.814 237.66,49.337C237.66,49.853 238.267,50.03 238.353,50.374C238.44,50.721 238.786,50.898 238.701,51.332C238.615,51.766 238.267,52.025 238.007,51.679C237.748,51.332 237.572,50.898 237.572,50.898L237.314,50.287C237.314,50.287 237.051,49.853 236.876,49.597C236.704,49.337 236.355,48.985 236.355,48.985L235.747,48.47C235.747,48.47 235.314,48.031 234.968,47.946C234.622,47.861 234.272,47.684 234.013,47.684C233.75,47.684 233.316,47.425 233.059,47.337C232.796,47.247 232.885,47.337 232.189,47.166C231.495,46.991 231.149,46.817 231.149,46.817L231.756,46.64L232.102,46.903Z"/>
            </clipPath>
            <g clip-path="url(#_clip154)">
                <path d="M236.243,44.72L239.107,51.679L234.013,53.776L231.149,46.817L236.243,44.72Z" style="fill:url(#_Linear155);fill-rule:nonzero;"/>
            </g>
            <clipPath id="_clip156">
                <path d="M234.872,50.024C234.872,50.024 234.829,49.833 235.354,50.078C235.882,50.314 235.976,50.172 236.221,50.507C236.458,50.84 236.458,50.985 236.795,51.367C237.131,51.756 237.274,52.041 237.657,52.665C238.042,53.289 238.138,53.483 238.38,54.008C238.619,54.538 239.05,54.49 239.05,55.259C239.05,56.027 239.339,57.13 239.434,57.418C239.53,57.704 239.434,57.753 239.721,58.57C240.011,59.386 240.109,58.857 240.202,59.723C240.299,60.586 240.395,60.536 240.252,60.97C240.109,61.403 240.299,61.308 240.109,61.403C239.916,61.496 239.866,61.403 239.772,61.069C239.674,60.729 239.434,60.494 239.434,60.157C239.434,59.819 239.387,59.337 239.339,59.099C239.291,58.857 239.146,58.235 239.05,57.9C238.953,57.565 238.619,57.324 238.428,56.601C238.233,55.88 238.233,55.831 238.042,55.302C237.851,54.782 237.608,54.299 237.561,54.106C237.514,53.915 237.514,53.915 237.322,53.483C237.131,53.048 237.08,52.908 236.938,52.713C236.795,52.524 236.841,52.473 236.458,52.041C236.074,51.61 236.121,51.513 235.834,51.323C235.544,51.132 235.496,50.985 235.258,50.84C235.019,50.698 234.585,50.364 234.585,50.364L234.49,50.024L234.872,50.024Z"/>
            </clipPath>
            <g clip-path="url(#_clip156)">
                <path d="M239.777,49.555L240.447,61.466L235.15,61.764L234.48,49.853L239.777,49.555Z" style="fill:url(#_Linear157);fill-rule:nonzero;"/>
            </g>
            <clipPath id="_clip158">
                <path d="M234.972,54.828C235.496,54.922 235.785,55.113 235.834,55.404C235.882,55.691 237.37,58.761 237.37,58.761C237.37,58.761 237.514,59.246 237.608,59.723C237.704,60.202 237.657,60.202 237.799,60.686C237.947,61.161 237.947,60.97 238.09,61.786C238.233,62.603 238.237,62.843 238.188,63.369C238.138,63.902 238.283,65.24 237.995,64.38C237.704,63.517 237.561,63.517 237.608,63.227C237.657,62.938 237.704,62.746 237.608,62.317C237.514,61.883 237.417,61.118 237.179,60.826C236.938,60.536 236.742,60.062 236.602,59.386C236.458,58.715 236.315,58.426 236.168,58.043C236.025,57.661 235.691,56.793 235.64,56.651C235.594,56.505 235.401,55.738 235.162,55.5C234.919,55.259 234.729,54.875 234.729,54.875L234.829,54.632L234.972,54.828Z"/>
            </clipPath>
            <g clip-path="url(#_clip158)">
                <path d="M237.775,54.466L238.381,65.234L235.321,65.407L234.716,54.638L237.775,54.466Z" style="fill:url(#_Linear159);fill-rule:nonzero;"/>
            </g>
            <clipPath id="_clip160">
                <path d="M220.521,55.017C220.521,55.017 220.549,54.162 220.808,53.385C221.014,52.766 221.46,52.201 221.48,52.137C221.527,51.993 221.77,51.706 222.104,51.273C222.442,50.84 222.629,50.507 222.822,50.364C223.015,50.215 223.015,50.024 223.353,49.786C223.692,49.543 223.64,49.497 224.168,49.068C224.696,48.633 224.889,48.633 225.608,48.346C226.329,48.058 226.186,48.008 226.857,47.82C227.53,47.624 227.387,47.48 228.009,47.434C228.631,47.385 228.776,47.385 228.727,47.53C228.68,47.671 228.776,47.717 228.44,47.82C228.104,47.915 228.202,47.866 227.482,48.105C226.762,48.346 226.617,48.391 226.186,48.827C225.754,49.255 226.042,49.164 225.318,49.597C224.6,50.024 225.036,49.642 224.312,50.215C223.592,50.792 223.692,50.553 223.399,51.082C223.11,51.612 223.306,51.367 222.922,51.895C222.539,52.423 222.539,52.286 222.2,52.858C221.866,53.435 222.007,53.148 221.77,53.864C221.527,54.584 221.241,54.875 221.002,55.066C220.76,55.259 220.521,55.017 220.521,55.017Z"/>
            </clipPath>
            <g clip-path="url(#_clip160)">
                <path d="M228.608,46.977L230.386,51.297L220.641,55.308L218.863,50.989L228.608,46.977Z" style="fill:url(#_Linear161);fill-rule:nonzero;"/>
            </g>
            <clipPath id="_clip162">
                <path d="M225.563,58.329C225.563,58.329 225.943,57.465 226.089,57.13C226.233,56.793 226.186,56.651 226.519,56.267C226.857,55.88 226.81,55.831 227.05,55.642C227.291,55.451 227.05,55.356 227.53,55.113C228.009,54.875 227.768,54.875 228.345,54.685C228.921,54.49 228.97,54.299 229.307,54.205C229.642,54.106 229.164,53.959 229.833,54.008C230.504,54.059 230.457,53.769 230.504,54.059C230.553,54.345 230.984,54.106 230.553,54.345C230.123,54.584 230.362,54.632 229.737,54.731C229.113,54.828 229.017,54.782 228.776,54.971C228.536,55.162 228.295,55.451 228.059,55.738C227.816,56.027 228.104,55.302 227.387,56.17C226.667,57.036 226.857,56.89 226.567,57.324C226.281,57.751 225.943,58.136 225.799,58.57C225.656,59.002 225.704,59.099 225.608,59.337C225.513,59.578 225.464,59.819 225.37,59.533C225.272,59.246 225.272,59.099 225.272,59.099L225.563,58.329Z"/>
            </clipPath>
            <g clip-path="url(#_clip162)">
                <path d="M230.669,53.34L232.195,57.048L225.464,59.819L223.937,56.11L230.669,53.34Z" style="fill:url(#_Linear163);fill-rule:nonzero;"/>
            </g>
            <clipPath id="_clip164">
                <path d="M217.208,57.371C217.208,57.371 216.631,58.136 216.532,58.426C216.441,58.715 215.959,59.868 215.959,59.868C215.959,59.868 215.671,60.105 215.623,60.633C215.575,61.161 215.623,61.21 215.575,61.598C215.528,61.975 215.334,62.364 215.239,62.558C215.142,62.746 215.096,62.558 215.142,63.227C215.191,63.902 215.239,65.002 215.239,65.002C215.239,65.002 215.287,65.39 215.43,65.576C215.575,65.775 215.766,66.11 215.862,65.964C215.959,65.819 215.912,65.868 215.959,65.39C216.009,64.909 216.106,64.954 216.009,64.615C215.912,64.284 215.912,64.284 215.912,63.854C215.912,63.417 215.912,63.417 215.959,63.035C216.009,62.653 215.862,63.081 216.009,62.122C216.152,61.161 216.532,60.345 216.583,60.105C216.631,59.868 216.486,59.723 216.918,59.195C217.352,58.663 217.161,58.953 217.542,58.329C217.928,57.704 217.976,57.418 218.119,57.13C218.264,56.842 218.214,56.986 218.359,56.697C218.505,56.411 218.505,56.217 218.359,56.267C218.214,56.317 218.695,55.592 217.976,56.317C217.255,57.036 217.208,57.371 217.208,57.371Z"/>
            </clipPath>
            <g clip-path="url(#_clip164)">
                <path d="M218.695,55.592L221.973,63.555L215.61,66.174L212.332,58.211L218.695,55.592Z" style="fill:url(#_Linear165);fill-rule:nonzero;"/>
            </g>
            <clipPath id="_clip166">
                <path d="M249.332,53.493L248.709,52.665L247.827,51.321C247.827,51.321 242.589,59.825 245.285,68.229L249.332,53.493Z"/>
            </clipPath>
            <g clip-path="url(#_clip166)">
                <path d="M248.839,51.111L252.093,66.819L244.369,68.419L241.115,52.711L248.839,51.111Z" style="fill:url(#_Linear167);fill-rule:nonzero;"/>
            </g>
            <clipPath id="_clip168">
                <path d="M244.854,67.917C245.185,70.067 244.772,76.434 244.772,76.434C244.359,91.246 233.023,90.992 233.023,90.992C238.402,92.486 247.254,88.435 247.254,88.435C249.322,88.681 250.975,86.115 250.975,86.115C252.55,85.291 252.55,83.718 252.55,83.718C257.845,77.759 255.114,66.093 255.114,66.093C255.114,65.015 254.121,62.209 254.121,62.209C254.287,61.213 252.795,58.897 252.795,58.897C251.805,55.831 249.404,53.268 249.404,53.268C246.013,55.257 244.854,67.917 244.854,67.917Z"/>
            </clipPath>
            <g clip-path="url(#_clip168)">
                <path d="M252.633,52.599L259.97,88.018L233.541,93.493L226.203,58.075L252.633,52.599Z" style="fill:url(#_Linear169);fill-rule:nonzero;"/>
            </g>
            <clipPath id="_clip170">
                <path d="M254.091,64.777C254.855,68.472 253.781,69.699 252.182,70.023C250.585,70.353 249.068,69.675 248.304,65.973C247.541,62.269 248.216,59.006 249.816,58.674C251.415,58.346 253.329,61.072 254.091,64.777Z"/>
            </clipPath>
            <g clip-path="url(#_clip170)">
                <path d="M248.934,70.628L247.01,59.08L253.12,58.062L255.045,69.61L248.934,70.628Z" style="fill:url(#_Linear171);fill-rule:nonzero;"/>
            </g>
            <clipPath id="_clip172">
                <path d="M244,83.431C241.018,90.712 234.005,90.571 234.005,90.571C239.18,92.002 247.699,88.101 247.699,88.101C249.688,88.343 251.279,85.871 251.279,85.871C252.791,85.078 252.791,83.566 252.791,83.566C255.742,80.245 256.1,75.098 255.883,71.343C254.436,77.449 249.525,80.716 244,83.431Z"/>
            </clipPath>
            <g clip-path="url(#_clip172)">
                <path d="M255.883,71.343L259.299,87.834L234.502,92.971L231.086,76.48L255.883,71.343Z" style="fill:url(#_Linear173);fill-rule:nonzero;"/>
            </g>
            <clipPath id="_clip174">
                <path d="M244.717,73.438C244.717,73.438 247.119,67.711 249.581,66.6C249.581,66.6 253.461,62.536 253.708,61.179C253.708,61.179 254.258,61.363 254.137,62.163C254.137,62.163 253.893,65.552 249.766,67.647C249.766,67.647 246.5,70.357 244.717,74.977C244.717,74.977 244.469,73.874 244.717,73.438Z"/>
            </clipPath>
            <g clip-path="url(#_clip174)">
                <path d="M244.662,74.986L242.597,63.111L254.211,61.092L256.276,72.967L244.662,74.986Z" style="fill:url(#_Linear175);fill-rule:nonzero;"/>
            </g>
            <clipPath id="_clip176">
                <path d="M244.717,77.684C244.717,77.684 246.87,74.18 251.12,72.887C251.12,72.887 254.322,72.019 255.309,69.804C255.309,69.804 255.863,70.236 255.495,71.22C255.495,71.22 254.568,73.933 250.997,73.874C250.997,73.874 244.961,77.626 244.342,79.601C243.73,81.57 244.283,79.716 244.283,79.716C244.283,79.716 244.342,77.932 244.717,77.684Z"/>
            </clipPath>
            <g clip-path="url(#_clip176)">
                <path d="M243.73,81.57L242.084,72.104L255.774,69.723L257.42,79.189L243.73,81.57Z" style="fill:url(#_Linear177);fill-rule:nonzero;"/>
            </g>
            <clipPath id="_clip178">
                <path d="M243.79,82.675C243.79,82.675 246.255,79.848 249.947,79.656C249.947,79.656 253.461,79.226 254.938,77.87C254.938,77.87 254.692,79.167 254.322,79.413C254.322,79.413 251.239,80.829 250.012,80.585C250.012,80.585 245.146,81.633 243.235,83.911C243.235,83.911 243.545,82.988 243.79,82.675Z"/>
            </clipPath>
            <g clip-path="url(#_clip178)">
                <path d="M243.235,83.911L242.559,80.023L254.938,77.87L255.614,81.758L243.235,83.911Z" style="fill:url(#_Linear179);fill-rule:nonzero;"/>
            </g>
            <clipPath id="_clip180">
                <path d="M244.899,66.294C244.899,66.294 245.701,62.655 249.087,60.437C249.087,60.437 251.49,57.421 251.12,55.697C251.12,55.697 251.736,56.25 251.796,57.116C251.796,57.116 251.307,59.703 249.457,60.808C249.457,60.808 245.392,64.508 245.146,67.584C245.146,67.584 244.717,67.404 244.899,66.294Z"/>
            </clipPath>
            <g clip-path="url(#_clip180)">
                <path d="M244.76,67.651L242.929,57.121L251.625,55.609L253.456,66.139L244.76,67.651Z" style="fill:url(#_Linear181);fill-rule:nonzero;"/>
            </g>
            <clipPath id="_clip182">
                <path d="M245.146,73.874C245.146,73.874 247.548,68.137 250.012,67.033C250.012,67.033 253.893,62.964 254.137,61.609C254.137,61.609 254.692,61.795 254.568,62.598C254.568,62.598 254.322,65.985 250.197,68.079C250.197,68.079 246.932,70.791 245.146,75.408C245.146,75.408 244.899,74.297 245.146,73.874Z"/>
            </clipPath>
            <g clip-path="url(#_clip182)">
                <path d="M254.671,61.56L255.848,74.428L245.002,75.421L243.824,62.553L254.671,61.56Z" style="fill:url(#_Linear183);fill-rule:nonzero;"/>
            </g>
            <clipPath id="_clip184">
                <path d="M245.146,78.119C245.146,78.119 247.302,74.607 251.55,73.312C251.55,73.312 254.755,72.453 255.74,70.236C255.74,70.236 256.295,70.667 255.921,71.654C255.921,71.654 255.002,74.361 251.43,74.297C251.43,74.297 245.392,78.061 244.775,80.03C244.16,82.001 244.717,80.154 244.717,80.154C244.717,80.154 244.775,78.365 245.146,78.119Z"/>
            </clipPath>
            <g clip-path="url(#_clip184)">
                <path d="M256.251,70.189L257.223,80.805L244.16,82.001L243.188,71.385L256.251,70.189Z" style="fill:url(#_Linear185);fill-rule:nonzero;"/>
            </g>
            <clipPath id="_clip186">
                <path d="M244.223,83.109C244.223,83.109 246.685,80.273 250.38,80.088C250.38,80.088 253.893,79.656 255.372,78.304C255.372,78.304 255.124,79.601 254.755,79.848C254.755,79.848 251.673,81.259 250.44,81.013C250.44,81.013 245.573,82.059 243.668,84.34C243.668,84.34 243.976,83.417 244.223,83.109Z"/>
            </clipPath>
            <g clip-path="url(#_clip186)">
                <path d="M255.372,78.304L255.823,83.227L243.668,84.34L243.217,79.417L255.372,78.304Z" style="fill:url(#_Linear187);fill-rule:nonzero;"/>
            </g>
            <clipPath id="_clip188">
                <path d="M245.329,66.724C245.329,66.724 246.132,63.091 249.521,60.87C249.521,60.87 251.923,57.858 251.55,56.13C251.55,56.13 252.168,56.683 252.226,57.547C252.226,57.547 251.736,60.135 249.892,61.241C249.892,61.241 245.824,64.935 245.573,68.019C245.573,68.019 245.146,67.827 245.329,66.724Z"/>
            </clipPath>
            <g clip-path="url(#_clip188)">
                <path d="M252.113,56.078L253.142,67.326L245.167,68.056L244.137,56.809L252.113,56.078Z" style="fill:url(#_Linear189);fill-rule:nonzero;"/>
            </g>
            <clipPath id="_clip190">
                <path d="M237.051,46.206C237.051,46.206 241.244,48.801 243.902,54.722C243.902,54.722 245.897,51.993 245.567,49.532C245.567,49.532 243.372,46.672 237.051,46.206Z"/>
            </clipPath>
            <g clip-path="url(#_clip190)">
                <path d="M238.617,55.603L237.051,46.206L244.798,44.915L246.364,54.312L238.617,55.603Z" style="fill:url(#_Linear191);fill-rule:nonzero;"/>
            </g>
        </g>
        <g>
            <g>
                <path id="path29274" d="M99.031,34.828L109.656,45.453L109.656,112.765C102.569,123.395 61.222,202.539 38.781,247.425C31.694,261.598 31.714,279.314 42.344,293.487C49.43,304.117 61.805,307.675 74.219,307.675L201.779,307.675C214.193,307.675 226.567,304.117 233.654,293.487C244.284,279.314 244.303,261.598 237.216,247.425C217.137,202.543 193.514,157.651 173.435,112.765L173.435,45.453L183.716,35.172L184.06,34.828L99.029,34.828L99.031,34.828Z" style="fill:rgb(215,233,252);fill-opacity:0.0470588;stroke:rgb(159,171,185);stroke-width:2.5px;"/>
            </g>
            <path id="path6038" d="M160.94,45.159L160.94,113.909C183.494,161.605 206.157,209.269 228.644,256.989C234.935,271.884 227.088,289.245 213.479,296.877C201.346,305.021 186.401,301.872 172.737,302.434L143.733,302.434C161.042,300.205 178.704,299.785 195.781,296.342C206.997,292.841 220.623,286.6 221.308,273.052C222.013,258.59 212.942,246.353 208.116,233.283C190.724,193.493 173.332,153.703 155.94,113.913L155.94,45.163L164.977,36.078L170.009,36.078L160.94,45.163L160.94,45.159Z" style="fill:white;"/>
            <path id="path1613" d="M115.61,45.159L115.61,113.909C93.056,161.605 65.921,204.945 43.434,252.659C37.143,267.554 42.184,287.659 54.684,296.409C67.184,302.659 63.434,301.409 77.562,303.047C87.23,303.047 123.148,302.429 132.816,302.429C115.507,300.2 97.845,299.78 80.768,296.337C69.552,292.836 55.926,286.595 55.241,273.047C54.536,258.585 63.607,246.348 68.433,233.278C85.825,193.488 103.217,153.698 120.609,113.908L120.609,45.158L111.572,36.073L106.54,36.073L115.609,45.158L115.61,45.159Z" style="fill-opacity:0.172549;"/>
        </g>
        <rect id="svg_29" x="185.83" y="214.67" width="2" height="1" style="fill:white;"/>
    </g>
    <defs>
        <linearGradient id="_Linear2" x1="0" y1="0" x2="1" y2="0" gradientUnits="userSpaceOnUse" gradientTransform="matrix(8.6947,41.9682,-41.9682,8.6947,193.839,40.5744)"><stop offset="0%" style="stop-color:rgb(187,66,139);stop-opacity:1"/><stop offset="100%" style="stop-color:rgb(136,46,66);stop-opacity:1"/></linearGradient>
        <linearGradient id="_Linear4" x1="0" y1="0" x2="1" y2="0" gradientUnits="userSpaceOnUse" gradientTransform="matrix(7.98018,38.5192,-38.5192,7.98018,206.297,42.6271)"><stop offset="0%" style="stop-color:rgb(214,74,137);stop-opacity:1"/><stop offset="100%" style="stop-color:rgb(136,46,66);stop-opacity:1"/></linearGradient>
        <linearGradient id="_Linear6" x1="0" y1="0" x2="1" y2="0" gradientUnits="userSpaceOnUse" gradientTransform="matrix(0.632629,6.91061,-6.91061,0.632629,211.062,47.6418)"><stop offset="0%" style="stop-color:rgb(248,170,202);stop-opacity:1"/><stop offset="100%" style="stop-color:rgb(136,46,66);stop-opacity:1"/></linearGradient>
        <linearGradient id="_Linear8" x1="0" y1="0" x2="1" y2="0" gradientUnits="userSpaceOnUse" gradientTransform="matrix(0.617966,6.75049,-6.75049,0.617966,214.389,52.4567)"><stop offset="0%" style="stop-color:rgb(248,170,202);stop-opacity:1"/><stop offset="100%" style="stop-color:rgb(136,46,66);stop-opacity:1"/></linearGradient>
        <linearGradient id="_Linear10" x1="0" y1="0" x2="1" y2="0" gradientUnits="userSpaceOnUse" gradientTransform="matrix(0.553009,6.04088,-6.04088,0.553009,216.459,57.2048)"><stop offset="0%" style="stop-color:rgb(248,170,202);stop-opacity:1"/><stop offset="100%" style="stop-color:rgb(136,46,66);stop-opacity:1"/></linearGradient>
        <linearGradient id="_Linear12" x1="0" y1="0" x2="1" y2="0" gradientUnits="userSpaceOnUse" gradientTransform="matrix(0.850998,9.29604,-9.29604,0.850998,216.689,61.7214)"><stop offset="0%" style="stop-color:rgb(248,170,202);stop-opacity:1"/><stop offset="100%" style="stop-color:rgb(136,46,66);stop-opacity:1"/></linearGradient>
        <linearGradient id="_Linear14" x1="0" y1="0" x2="1" y2="0" gradientUnits="userSpaceOnUse" gradientTransform="matrix(0.750656,8.19998,-8.19998,0.750656,211.482,46.8078)"><stop offset="0%" style="stop-color:rgb(226,67,157);stop-opacity:1"/><stop offset="100%" style="stop-color:rgb(136,46,66);stop-opacity:1"/></linearGradient>
        <linearGradient id="_Linear16" x1="0" y1="0" x2="1" y2="0" gradientUnits="userSpaceOnUse" gradientTransform="matrix(0.734421,8.02266,-8.02266,0.734421,214.81,51.6452)"><stop offset="0%" style="stop-color:rgb(226,67,157);stop-opacity:1"/><stop offset="100%" style="stop-color:rgb(136,46,66);stop-opacity:1"/></linearGradient>
        <linearGradient id="_Linear18" x1="0" y1="0" x2="1" y2="0" gradientUnits="userSpaceOnUse" gradientTransform="matrix(0.656632,7.17282,-7.17282,0.656632,216.891,56.5134)"><stop offset="0%" style="stop-color:rgb(226,67,157);stop-opacity:1"/><stop offset="100%" style="stop-color:rgb(136,46,66);stop-opacity:1"/></linearGradient>
        <linearGradient id="_Linear20" x1="0" y1="0" x2="1" y2="0" gradientUnits="userSpaceOnUse" gradientTransform="matrix(1.01097,11.0436,-11.0436,1.01097,217.07,60.4841)"><stop offset="0%" style="stop-color:rgb(226,67,157);stop-opacity:1"/><stop offset="100%" style="stop-color:rgb(136,46,66);stop-opacity:1"/></linearGradient>
        <linearGradient id="_Linear22" x1="0" y1="0" x2="1" y2="0" gradientUnits="userSpaceOnUse" gradientTransform="matrix(1.29782,6.26439,-6.26439,1.29782,177.623,44.0666)"><stop offset="0%" style="stop-color:rgb(138,55,120);stop-opacity:1"/><stop offset="100%" style="stop-color:rgb(136,46,66);stop-opacity:1"/></linearGradient>
        <linearGradient id="_Linear24" x1="0" y1="0" x2="1" y2="0" gradientUnits="userSpaceOnUse" gradientTransform="matrix(4.61452,22.2736,-22.2736,4.61452,191.747,42.7292)"><stop offset="0%" style="stop-color:rgb(132,56,121);stop-opacity:1"/><stop offset="100%" style="stop-color:rgb(136,46,66);stop-opacity:1"/></linearGradient>
        <linearGradient id="_Linear26" x1="0" y1="0" x2="1" y2="0" gradientUnits="userSpaceOnUse" gradientTransform="matrix(10.2578,49.5132,-49.5132,10.2578,188.635,45.5891)"><stop offset="0%" style="stop-color:rgb(234,57,157);stop-opacity:1"/><stop offset="100%" style="stop-color:rgb(136,46,66);stop-opacity:1"/></linearGradient>
        <radialGradient id="_Radial28" cx="0" cy="0" r="1" gradientUnits="userSpaceOnUse" gradientTransform="matrix(12.694,0,0,12.694,182.421,50.2863)"><stop offset="0%" style="stop-color:rgb(234,57,157);stop-opacity:1"/><stop offset="21%" style="stop-color:rgb(234,57,157);stop-opacity:1"/><stop offset="90%" style="stop-color:white;stop-opacity:1"/><stop offset="100%" style="stop-color:white;stop-opacity:1"/></radialGradient>
        <linearGradient id="_Linear30" x1="0" y1="0" x2="1" y2="0" gradientUnits="userSpaceOnUse" gradientTransform="matrix(6.21181,29.9836,-29.9836,6.21181,186.553,62.9089)"><stop offset="0%" style="stop-color:rgb(163,65,119);stop-opacity:1"/><stop offset="100%" style="stop-color:rgb(136,46,66);stop-opacity:1"/></linearGradient>
        <linearGradient id="_Linear32" x1="0" y1="0" x2="1" y2="0" gradientUnits="userSpaceOnUse" gradientTransform="matrix(2.55058,12.3113,-12.3113,2.55058,190.883,77.8146)"><stop offset="0%" style="stop-color:rgb(136,41,82);stop-opacity:1"/><stop offset="100%" style="stop-color:rgb(136,46,66);stop-opacity:1"/></linearGradient>
        <radialGradient id="_Radial34" cx="0" cy="0" r="1" gradientUnits="userSpaceOnUse" gradientTransform="matrix(22.3584,0,0,22.3584,194.463,71.0505)"><stop offset="0%" style="stop-color:rgb(234,57,157);stop-opacity:1"/><stop offset="21%" style="stop-color:rgb(234,57,157);stop-opacity:1"/><stop offset="90%" style="stop-color:white;stop-opacity:1"/><stop offset="100%" style="stop-color:white;stop-opacity:1"/></radialGradient>
        <linearGradient id="_Linear36" x1="0" y1="0" x2="1" y2="0" gradientUnits="userSpaceOnUse" gradientTransform="matrix(10.2561,49.5047,-49.5047,10.2561,183.719,48.5764)"><stop offset="0%" style="stop-color:rgb(229,72,138);stop-opacity:1"/><stop offset="100%" style="stop-color:rgb(136,46,66);stop-opacity:1"/></linearGradient>
        <linearGradient id="_Linear38" x1="0" y1="0" x2="1" y2="0" gradientUnits="userSpaceOnUse" gradientTransform="matrix(-5.68765,-40.9331,40.9331,-5.68765,189.685,91.0397)"><stop offset="0%" style="stop-color:rgb(140,53,112);stop-opacity:1"/><stop offset="43%" style="stop-color:rgb(248,170,202);stop-opacity:1"/><stop offset="100%" style="stop-color:rgb(240,95,162);stop-opacity:1"/></linearGradient>
        <linearGradient id="_Linear40" x1="0" y1="0" x2="1" y2="0" gradientUnits="userSpaceOnUse" gradientTransform="matrix(3.26422,35.6575,-35.6575,3.26422,196.468,46.5788)"><stop offset="0%" style="stop-color:rgb(248,170,202);stop-opacity:1"/><stop offset="100%" style="stop-color:rgb(136,46,66);stop-opacity:1"/></linearGradient>
        <linearGradient id="_Linear42" x1="0" y1="0" x2="1" y2="0" gradientUnits="userSpaceOnUse" gradientTransform="matrix(3.26057,35.6176,-35.6176,3.26057,198.737,46.4162)"><stop offset="0%" style="stop-color:rgb(248,170,202);stop-opacity:1"/><stop offset="100%" style="stop-color:rgb(136,46,66);stop-opacity:1"/></linearGradient>
        <linearGradient id="_Linear44" x1="0" y1="0" x2="1" y2="0" gradientUnits="userSpaceOnUse" gradientTransform="matrix(3.26163,35.6292,-35.6292,3.26163,201.299,46.2517)"><stop offset="0%" style="stop-color:rgb(248,170,202);stop-opacity:1"/><stop offset="100%" style="stop-color:rgb(136,46,66);stop-opacity:1"/></linearGradient>
        <linearGradient id="_Linear46" x1="0" y1="0" x2="1" y2="0" gradientUnits="userSpaceOnUse" gradientTransform="matrix(3.23914,35.3834,-35.3834,3.23914,204.575,46.0446)"><stop offset="0%" style="stop-color:rgb(248,170,202);stop-opacity:1"/><stop offset="100%" style="stop-color:rgb(136,46,66);stop-opacity:1"/></linearGradient>
        <linearGradient id="_Linear48" x1="0" y1="0" x2="1" y2="0" gradientUnits="userSpaceOnUse" gradientTransform="matrix(3.31003,36.1579,-36.1579,3.31003,202.286,45.6916)"><stop offset="0%" style="stop-color:rgb(248,170,202);stop-opacity:1"/><stop offset="100%" style="stop-color:rgb(136,46,66);stop-opacity:1"/></linearGradient>
        <linearGradient id="_Linear50" x1="0" y1="0" x2="1" y2="0" gradientUnits="userSpaceOnUse" gradientTransform="matrix(3.2977,36.0233,-36.0233,3.2977,196.675,46.8278)"><stop offset="0%" style="stop-color:rgb(226,67,157);stop-opacity:1"/><stop offset="100%" style="stop-color:rgb(136,46,66);stop-opacity:1"/></linearGradient>
        <linearGradient id="_Linear52" x1="0" y1="0" x2="1" y2="0" gradientUnits="userSpaceOnUse" gradientTransform="matrix(3.30412,36.0933,-36.0933,3.30412,198.847,46.5798)"><stop offset="0%" style="stop-color:rgb(226,67,157);stop-opacity:1"/><stop offset="100%" style="stop-color:rgb(136,46,66);stop-opacity:1"/></linearGradient>
        <linearGradient id="_Linear54" x1="0" y1="0" x2="1" y2="0" gradientUnits="userSpaceOnUse" gradientTransform="matrix(3.32307,36.3004,-36.3004,3.32307,201.385,46.1574)"><stop offset="0%" style="stop-color:rgb(226,67,157);stop-opacity:1"/><stop offset="100%" style="stop-color:rgb(136,46,66);stop-opacity:1"/></linearGradient>
        <linearGradient id="_Linear56" x1="0" y1="0" x2="1" y2="0" gradientUnits="userSpaceOnUse" gradientTransform="matrix(3.30066,36.0555,-36.0555,3.30066,204.617,46.0769)"><stop offset="0%" style="stop-color:rgb(226,67,157);stop-opacity:1"/><stop offset="100%" style="stop-color:rgb(136,46,66);stop-opacity:1"/></linearGradient>
        <linearGradient id="_Linear58" x1="0" y1="0" x2="1" y2="0" gradientUnits="userSpaceOnUse" gradientTransform="matrix(2.29947,25.1188,-25.1188,2.29947,176.857,48.6027)"><stop offset="0%" style="stop-color:rgb(247,149,189);stop-opacity:1"/><stop offset="100%" style="stop-color:rgb(136,46,66);stop-opacity:1"/></linearGradient>
        <linearGradient id="_Linear60" x1="0" y1="0" x2="1" y2="0" gradientUnits="userSpaceOnUse" gradientTransform="matrix(3.14912,34.4002,-34.4002,3.14912,175.805,53.715)"><stop offset="0%" style="stop-color:rgb(247,149,189);stop-opacity:1"/><stop offset="100%" style="stop-color:rgb(136,46,66);stop-opacity:1"/></linearGradient>
        <linearGradient id="_Linear62" x1="0" y1="0" x2="1" y2="0" gradientUnits="userSpaceOnUse" gradientTransform="matrix(3.68913,40.2992,-40.2992,3.68913,176.271,58.676)"><stop offset="0%" style="stop-color:rgb(247,149,189);stop-opacity:1"/><stop offset="100%" style="stop-color:rgb(136,46,66);stop-opacity:1"/></linearGradient>
        <linearGradient id="_Linear64" x1="0" y1="0" x2="1" y2="0" gradientUnits="userSpaceOnUse" gradientTransform="matrix(3.17545,34.6877,-34.6877,3.17545,177.6,66.0227)"><stop offset="0%" style="stop-color:rgb(247,149,189);stop-opacity:1"/><stop offset="100%" style="stop-color:rgb(136,46,66);stop-opacity:1"/></linearGradient>
        <linearGradient id="_Linear66" x1="0" y1="0" x2="1" y2="0" gradientUnits="userSpaceOnUse" gradientTransform="matrix(3.20287,15.4598,-15.4598,3.20287,176.079,51.6281)"><stop offset="0%" style="stop-color:rgb(187,66,139);stop-opacity:1"/><stop offset="100%" style="stop-color:rgb(136,46,66);stop-opacity:1"/></linearGradient>
        <linearGradient id="_Linear68" x1="0" y1="0" x2="1" y2="0" gradientUnits="userSpaceOnUse" gradientTransform="matrix(4.38947,21.1873,-21.1873,4.38947,174.86,57.6662)"><stop offset="0%" style="stop-color:rgb(187,66,139);stop-opacity:1"/><stop offset="100%" style="stop-color:rgb(136,46,66);stop-opacity:1"/></linearGradient>
        <linearGradient id="_Linear70" x1="0" y1="0" x2="1" y2="0" gradientUnits="userSpaceOnUse" gradientTransform="matrix(5.15558,24.8853,-24.8853,5.15558,175.077,63.2097)"><stop offset="0%" style="stop-color:rgb(187,66,139);stop-opacity:1"/><stop offset="100%" style="stop-color:rgb(136,46,66);stop-opacity:1"/></linearGradient>
        <linearGradient id="_Linear72" x1="0" y1="0" x2="1" y2="0" gradientUnits="userSpaceOnUse" gradientTransform="matrix(4.50874,21.763,-21.763,4.50874,176.572,69.8361)"><stop offset="0%" style="stop-color:rgb(187,66,139);stop-opacity:1"/><stop offset="100%" style="stop-color:rgb(136,46,66);stop-opacity:1"/></linearGradient>
        <linearGradient id="_Linear74" x1="0" y1="0" x2="1" y2="0" gradientUnits="userSpaceOnUse" gradientTransform="matrix(3.30797,36.1354,-36.1354,3.30797,202.288,46.2038)"><stop offset="0%" style="stop-color:rgb(226,67,157);stop-opacity:1"/><stop offset="100%" style="stop-color:rgb(136,46,66);stop-opacity:1"/></linearGradient>
        <linearGradient id="_Linear76" x1="0" y1="0" x2="1" y2="0" gradientUnits="userSpaceOnUse" gradientTransform="matrix(3.24203,15.6489,-15.6489,3.24203,193.151,74.8342)"><stop offset="0%" style="stop-color:rgb(136,41,82);stop-opacity:1"/><stop offset="100%" style="stop-color:rgb(79,19,61);stop-opacity:1"/></linearGradient>
        <linearGradient id="_Linear78" x1="0" y1="0" x2="1" y2="0" gradientUnits="userSpaceOnUse" gradientTransform="matrix(1.30261,6.28751,-6.28751,1.30261,191.069,86.0534)"><stop offset="0%" style="stop-color:rgb(136,41,82);stop-opacity:1"/><stop offset="100%" style="stop-color:rgb(79,19,61);stop-opacity:1"/></linearGradient>
        <linearGradient id="_Linear80" x1="0" y1="0" x2="1" y2="0" gradientUnits="userSpaceOnUse" gradientTransform="matrix(4.30698,20.7892,-20.7892,4.30698,189.154,71.4348)"><stop offset="0%" style="stop-color:rgb(136,41,82);stop-opacity:1"/><stop offset="100%" style="stop-color:rgb(79,19,61);stop-opacity:1"/></linearGradient>
        <linearGradient id="_Linear82" x1="0" y1="0" x2="1" y2="0" gradientUnits="userSpaceOnUse" gradientTransform="matrix(1.32785,6.40936,-6.40936,1.32785,183.068,47.1213)"><stop offset="0%" style="stop-color:rgb(136,41,82);stop-opacity:1"/><stop offset="100%" style="stop-color:rgb(79,19,61);stop-opacity:1"/></linearGradient>
        <linearGradient id="_Linear84" x1="0" y1="0" x2="1" y2="0" gradientUnits="userSpaceOnUse" gradientTransform="matrix(3.62772,17.5105,-17.5105,3.62772,183.982,48.8967)"><stop offset="0%" style="stop-color:rgb(136,41,82);stop-opacity:1"/><stop offset="100%" style="stop-color:rgb(79,19,61);stop-opacity:1"/></linearGradient>
        <linearGradient id="_Linear86" x1="0" y1="0" x2="1" y2="0" gradientUnits="userSpaceOnUse" gradientTransform="matrix(0.700165,3.37959,-3.37959,0.700165,199.398,42.5061)"><stop offset="0%" style="stop-color:rgb(132,56,121);stop-opacity:1"/><stop offset="100%" style="stop-color:rgb(136,46,66);stop-opacity:1"/></linearGradient>
        <radialGradient id="_Radial88" cx="0" cy="0" r="1" gradientUnits="userSpaceOnUse" gradientTransform="matrix(7.00948,0,0,7.00948,177.229,57.9709)"><stop offset="0%" style="stop-color:rgb(234,57,157);stop-opacity:1"/><stop offset="21%" style="stop-color:rgb(234,57,157);stop-opacity:1"/><stop offset="90%" style="stop-color:white;stop-opacity:1"/><stop offset="100%" style="stop-color:white;stop-opacity:1"/></radialGradient>
        <radialGradient id="_Radial89" cx="0" cy="0" r="1" gradientUnits="userSpaceOnUse" gradientTransform="matrix(7.22037,0,0,7.22037,173.264,58.8)"><stop offset="0%" style="stop-color:rgb(234,57,157);stop-opacity:1"/><stop offset="21%" style="stop-color:rgb(234,57,157);stop-opacity:1"/><stop offset="90%" style="stop-color:white;stop-opacity:1"/><stop offset="100%" style="stop-color:white;stop-opacity:1"/></radialGradient>
        <radialGradient id="_Radial91" cx="0" cy="0" r="1" gradientUnits="userSpaceOnUse" gradientTransform="matrix(4.71188,0,0,4.71188,171.029,63.6018)"><stop offset="0%" style="stop-color:rgb(234,57,157);stop-opacity:1"/><stop offset="21%" style="stop-color:rgb(234,57,157);stop-opacity:1"/><stop offset="90%" style="stop-color:white;stop-opacity:1"/><stop offset="100%" style="stop-color:white;stop-opacity:1"/></radialGradient>
        <radialGradient id="_Radial93" cx="0" cy="0" r="1" gradientUnits="userSpaceOnUse" gradientTransform="matrix(11.6706,0,0,11.6706,182.841,49.7717)"><stop offset="0%" style="stop-color:rgb(234,57,157);stop-opacity:1"/><stop offset="21%" style="stop-color:rgb(234,57,157);stop-opacity:1"/><stop offset="90%" style="stop-color:white;stop-opacity:1"/><stop offset="100%" style="stop-color:white;stop-opacity:1"/></radialGradient>
        <radialGradient id="_Radial95" cx="0" cy="0" r="1" gradientUnits="userSpaceOnUse" gradientTransform="matrix(5.04695,0,0,5.04695,207.071,55.0144)"><stop offset="0%" style="stop-color:rgb(234,57,157);stop-opacity:1"/><stop offset="21%" style="stop-color:rgb(234,57,157);stop-opacity:1"/><stop offset="90%" style="stop-color:white;stop-opacity:1"/><stop offset="100%" style="stop-color:white;stop-opacity:1"/></radialGradient>
        <radialGradient id="_Radial96" cx="0" cy="0" r="1" gradientUnits="userSpaceOnUse" gradientTransform="matrix(5.4558,0,0,5.4558,211.89,61.59)"><stop offset="0%" style="stop-color:rgb(234,57,157);stop-opacity:1"/><stop offset="21%" style="stop-color:rgb(234,57,157);stop-opacity:1"/><stop offset="90%" style="stop-color:white;stop-opacity:1"/><stop offset="100%" style="stop-color:white;stop-opacity:1"/></radialGradient>
        <radialGradient id="_Radial97" cx="0" cy="0" r="1" gradientUnits="userSpaceOnUse" gradientTransform="matrix(4.54018,0,0,4.54018,214.87,64.5295)"><stop offset="0%" style="stop-color:rgb(234,57,157);stop-opacity:1"/><stop offset="21%" style="stop-color:rgb(234,57,157);stop-opacity:1"/><stop offset="90%" style="stop-color:white;stop-opacity:1"/><stop offset="100%" style="stop-color:white;stop-opacity:1"/></radialGradient>
        <radialGradient id="_Radial99" cx="0" cy="0" r="1" gradientUnits="userSpaceOnUse" gradientTransform="matrix(3.71062,2.12233,-3.11572,5.44701,198.21,60.3454)"><stop offset="0%" style="stop-color:rgb(234,57,157);stop-opacity:1"/><stop offset="21%" style="stop-color:rgb(234,57,157);stop-opacity:1"/><stop offset="90%" style="stop-color:white;stop-opacity:1"/><stop offset="100%" style="stop-color:white;stop-opacity:1"/></radialGradient>
        <linearGradient id="_Linear101" x1="0" y1="0" x2="1" y2="0" gradientUnits="userSpaceOnUse" gradientTransform="matrix(6.0551,29.2272,-29.2272,6.0551,178.419,62.9709)"><stop offset="0%" style="stop-color:rgb(163,65,119);stop-opacity:1"/><stop offset="100%" style="stop-color:rgb(136,46,66);stop-opacity:1"/></linearGradient>
        <linearGradient id="_Linear103" x1="0" y1="0" x2="1" y2="0" gradientUnits="userSpaceOnUse" gradientTransform="matrix(3.97659,19.1945,-19.1945,3.97659,216.091,73.9387)"><stop offset="0%" style="stop-color:rgb(214,74,137);stop-opacity:1"/><stop offset="100%" style="stop-color:rgb(136,46,66);stop-opacity:1"/></linearGradient>
        <linearGradient id="_Linear105" x1="0" y1="0" x2="1" y2="0" gradientUnits="userSpaceOnUse" gradientTransform="matrix(0.995514,4.80519,-4.80519,0.995514,228.145,44.9538)"><stop offset="0%" style="stop-color:rgb(187,66,139);stop-opacity:1"/><stop offset="100%" style="stop-color:rgb(136,46,66);stop-opacity:1"/></linearGradient>
        <linearGradient id="_Linear107" x1="0" y1="0" x2="1" y2="0" gradientUnits="userSpaceOnUse" gradientTransform="matrix(10.2402,49.4281,-49.4281,10.2402,227.976,48.0085)"><stop offset="0%" style="stop-color:rgb(226,73,138);stop-opacity:1"/><stop offset="100%" style="stop-color:rgb(136,46,66);stop-opacity:1"/></linearGradient>
        <linearGradient id="_Linear109" x1="0" y1="0" x2="1" y2="0" gradientUnits="userSpaceOnUse" gradientTransform="matrix(9.99623,48.2504,-48.2504,9.99622,223.277,49.0842)"><stop offset="0%" style="stop-color:rgb(163,63,110);stop-opacity:1"/><stop offset="100%" style="stop-color:rgb(136,46,66);stop-opacity:1"/></linearGradient>
        <linearGradient id="_Linear111" x1="0" y1="0" x2="1" y2="0" gradientUnits="userSpaceOnUse" gradientTransform="matrix(9.72047,46.9194,-46.9194,9.72046,231.632,47.9704)"><stop offset="0%" style="stop-color:rgb(208,73,137);stop-opacity:1"/><stop offset="100%" style="stop-color:rgb(136,46,66);stop-opacity:1"/></linearGradient>
        <linearGradient id="_Linear113" x1="0" y1="0" x2="1" y2="0" gradientUnits="userSpaceOnUse" gradientTransform="matrix(1.62979,28.9748,-28.9748,1.62979,232.113,58.9636)"><stop offset="0%" style="stop-color:rgb(250,253,255);stop-opacity:1"/><stop offset="100%" style="stop-color:rgb(248,241,192);stop-opacity:1"/></linearGradient>
        <linearGradient id="_Linear115" x1="0" y1="0" x2="1" y2="0" gradientUnits="userSpaceOnUse" gradientTransform="matrix(14.987,36.4115,-36.4115,14.987,219.124,51.468)"><stop offset="0%" style="stop-color:rgb(244,247,234);stop-opacity:1"/><stop offset="100%" style="stop-color:rgb(251,226,169);stop-opacity:1"/></linearGradient>
        <linearGradient id="_Linear117" x1="0" y1="0" x2="1" y2="0" gradientUnits="userSpaceOnUse" gradientTransform="matrix(1.62724,28.9297,-28.9297,1.62724,233.123,58.906)"><stop offset="0%" style="stop-color:rgb(250,253,255);stop-opacity:1"/><stop offset="100%" style="stop-color:rgb(248,241,192);stop-opacity:1"/></linearGradient>
        <linearGradient id="_Linear119" x1="0" y1="0" x2="1" y2="0" gradientUnits="userSpaceOnUse" gradientTransform="matrix(1.62791,28.9415,-28.9415,1.62791,234.801,58.8088)"><stop offset="0%" style="stop-color:rgb(250,253,255);stop-opacity:1"/><stop offset="100%" style="stop-color:rgb(248,241,192);stop-opacity:1"/></linearGradient>
        <linearGradient id="_Linear121" x1="0" y1="0" x2="1" y2="0" gradientUnits="userSpaceOnUse" gradientTransform="matrix(1.62721,28.929,-28.929,1.62721,236.844,58.6975)"><stop offset="0%" style="stop-color:rgb(250,253,255);stop-opacity:1"/><stop offset="100%" style="stop-color:rgb(248,241,192);stop-opacity:1"/></linearGradient>
        <linearGradient id="_Linear123" x1="0" y1="0" x2="1" y2="0" gradientUnits="userSpaceOnUse" gradientTransform="matrix(1.62674,28.9206,-28.9206,1.62674,237.997,58.634)"><stop offset="0%" style="stop-color:rgb(250,253,255);stop-opacity:1"/><stop offset="100%" style="stop-color:rgb(248,241,192);stop-opacity:1"/></linearGradient>
        <linearGradient id="_Linear125" x1="0" y1="0" x2="1" y2="0" gradientUnits="userSpaceOnUse" gradientTransform="matrix(1.62656,28.9175,-28.9175,1.62656,237.384,58.6701)"><stop offset="0%" style="stop-color:rgb(250,253,255);stop-opacity:1"/><stop offset="100%" style="stop-color:rgb(248,241,192);stop-opacity:1"/></linearGradient>
        <linearGradient id="_Linear127" x1="0" y1="0" x2="1" y2="0" gradientUnits="userSpaceOnUse" gradientTransform="matrix(1.62695,28.9244,-28.9244,1.62695,238.012,58.6311)"><stop offset="0%" style="stop-color:rgb(250,253,255);stop-opacity:1"/><stop offset="100%" style="stop-color:rgb(248,241,192);stop-opacity:1"/></linearGradient>
        <linearGradient id="_Linear129" x1="0" y1="0" x2="1" y2="0" gradientUnits="userSpaceOnUse" gradientTransform="matrix(14.9741,36.3803,-36.3803,14.9741,210.13,55.1804)"><stop offset="0%" style="stop-color:rgb(244,247,234);stop-opacity:1"/><stop offset="100%" style="stop-color:rgb(251,226,169);stop-opacity:1"/></linearGradient>
        <linearGradient id="_Linear131" x1="0" y1="0" x2="1" y2="0" gradientUnits="userSpaceOnUse" gradientTransform="matrix(14.9726,36.3764,-36.3764,14.9726,211.267,54.7146)"><stop offset="0%" style="stop-color:rgb(244,247,234);stop-opacity:1"/><stop offset="100%" style="stop-color:rgb(251,226,169);stop-opacity:1"/></linearGradient>
        <linearGradient id="_Linear133" x1="0" y1="0" x2="1" y2="0" gradientUnits="userSpaceOnUse" gradientTransform="matrix(14.9736,36.3791,-36.3791,14.9736,214.093,53.5524)"><stop offset="0%" style="stop-color:rgb(244,247,234);stop-opacity:1"/><stop offset="100%" style="stop-color:rgb(251,226,169);stop-opacity:1"/></linearGradient>
        <linearGradient id="_Linear135" x1="0" y1="0" x2="1" y2="0" gradientUnits="userSpaceOnUse" gradientTransform="matrix(14.9694,36.3688,-36.3688,14.9694,217.467,52.1672)"><stop offset="0%" style="stop-color:rgb(244,247,234);stop-opacity:1"/><stop offset="100%" style="stop-color:rgb(251,226,169);stop-opacity:1"/></linearGradient>
        <linearGradient id="_Linear137" x1="0" y1="0" x2="1" y2="0" gradientUnits="userSpaceOnUse" gradientTransform="matrix(14.979,36.3922,-36.3922,14.979,222.215,50.2038)"><stop offset="0%" style="stop-color:rgb(244,247,234);stop-opacity:1"/><stop offset="100%" style="stop-color:rgb(251,226,169);stop-opacity:1"/></linearGradient>
        <linearGradient id="_Linear139" x1="0" y1="0" x2="1" y2="0" gradientUnits="userSpaceOnUse" gradientTransform="matrix(14.9749,36.3822,-36.3822,14.9749,224.89,49.1037)"><stop offset="0%" style="stop-color:rgb(244,247,234);stop-opacity:1"/><stop offset="100%" style="stop-color:rgb(251,226,169);stop-opacity:1"/></linearGradient>
        <linearGradient id="_Linear141" x1="0" y1="0" x2="1" y2="0" gradientUnits="userSpaceOnUse" gradientTransform="matrix(14.9709,36.3724,-36.3724,14.9709,220.642,50.8596)"><stop offset="0%" style="stop-color:rgb(244,247,234);stop-opacity:1"/><stop offset="100%" style="stop-color:rgb(251,226,169);stop-opacity:1"/></linearGradient>
        <linearGradient id="_Linear143" x1="0" y1="0" x2="1" y2="0" gradientUnits="userSpaceOnUse" gradientTransform="matrix(15.0015,36.4467,-36.4467,15.0015,215.849,52.8239)"><stop offset="0%" style="stop-color:rgb(244,247,234);stop-opacity:1"/><stop offset="100%" style="stop-color:rgb(251,226,169);stop-opacity:1"/></linearGradient>
        <linearGradient id="_Linear145" x1="0" y1="0" x2="1" y2="0" gradientUnits="userSpaceOnUse" gradientTransform="matrix(14.9707,36.3719,-36.3719,14.9707,213.429,53.8278)"><stop offset="0%" style="stop-color:rgb(244,247,234);stop-opacity:1"/><stop offset="100%" style="stop-color:rgb(251,226,169);stop-opacity:1"/></linearGradient>
        <linearGradient id="_Linear147" x1="0" y1="0" x2="1" y2="0" gradientUnits="userSpaceOnUse" gradientTransform="matrix(4.80168,23.1771,-23.1771,4.80168,243.555,45.4807)"><stop offset="0%" style="stop-color:rgb(214,74,137);stop-opacity:1"/><stop offset="100%" style="stop-color:rgb(136,46,66);stop-opacity:1"/></linearGradient>
        <linearGradient id="_Linear149" x1="0" y1="0" x2="1" y2="0" gradientUnits="userSpaceOnUse" gradientTransform="matrix(9.21648,22.3918,-22.3918,9.21648,225.357,51.6423)"><stop offset="0%" style="stop-color:rgb(244,247,234);stop-opacity:1"/><stop offset="100%" style="stop-color:rgb(251,226,169);stop-opacity:1"/></linearGradient>
        <linearGradient id="_Linear151" x1="0" y1="0" x2="1" y2="0" gradientUnits="userSpaceOnUse" gradientTransform="matrix(20.6099,50.0725,-50.0725,20.6099,231.468,50.905)"><stop offset="0%" style="stop-color:rgb(244,247,234);stop-opacity:1"/><stop offset="100%" style="stop-color:rgb(251,226,169);stop-opacity:1"/></linearGradient>
        <linearGradient id="_Linear153" x1="0" y1="0" x2="1" y2="0" gradientUnits="userSpaceOnUse" gradientTransform="matrix(16.804,40.8259,-40.8259,16.804,232.443,48.2883)"><stop offset="0%" style="stop-color:rgb(244,247,234);stop-opacity:1"/><stop offset="100%" style="stop-color:rgb(251,226,169);stop-opacity:1"/></linearGradient>
        <linearGradient id="_Linear155" x1="0" y1="0" x2="1" y2="0" gradientUnits="userSpaceOnUse" gradientTransform="matrix(18.3916,44.683,-44.683,18.3916,233.094,44.4836)"><stop offset="0%" style="stop-color:rgb(244,247,234);stop-opacity:1"/><stop offset="100%" style="stop-color:rgb(251,226,169);stop-opacity:1"/></linearGradient>
        <linearGradient id="_Linear157" x1="0" y1="0" x2="1" y2="0" gradientUnits="userSpaceOnUse" gradientTransform="matrix(1.39056,24.722,-24.722,1.39056,237.569,58.1994)"><stop offset="0%" style="stop-color:rgb(250,253,255);stop-opacity:1"/><stop offset="100%" style="stop-color:rgb(248,241,192);stop-opacity:1"/></linearGradient>
        <linearGradient id="_Linear159" x1="0" y1="0" x2="1" y2="0" gradientUnits="userSpaceOnUse" gradientTransform="matrix(1.47076,26.1477,-26.1477,1.47076,236.57,60.5578)"><stop offset="0%" style="stop-color:rgb(250,253,255);stop-opacity:1"/><stop offset="100%" style="stop-color:rgb(248,241,192);stop-opacity:1"/></linearGradient>
        <linearGradient id="_Linear161" x1="0" y1="0" x2="1" y2="0" gradientUnits="userSpaceOnUse" gradientTransform="matrix(11.2668,27.373,-27.373,11.2668,223.403,48.2668)"><stop offset="0%" style="stop-color:rgb(244,247,234);stop-opacity:1"/><stop offset="100%" style="stop-color:rgb(251,226,169);stop-opacity:1"/></linearGradient>
        <linearGradient id="_Linear163" x1="0" y1="0" x2="1" y2="0" gradientUnits="userSpaceOnUse" gradientTransform="matrix(9.20674,22.3681,-22.3681,9.20674,226.981,54.2727)"><stop offset="0%" style="stop-color:rgb(244,247,234);stop-opacity:1"/><stop offset="100%" style="stop-color:rgb(251,226,169);stop-opacity:1"/></linearGradient>
        <linearGradient id="_Linear165" x1="0" y1="0" x2="1" y2="0" gradientUnits="userSpaceOnUse" gradientTransform="matrix(20.6634,50.2026,-50.2026,20.6634,214.812,55.7282)"><stop offset="0%" style="stop-color:rgb(244,247,234);stop-opacity:1"/><stop offset="100%" style="stop-color:rgb(251,226,169);stop-opacity:1"/></linearGradient>
        <linearGradient id="_Linear167" x1="0" y1="0" x2="1" y2="0" gradientUnits="userSpaceOnUse" gradientTransform="matrix(3.57526,17.2573,-17.2573,3.57526,245.538,52.5334)"><stop offset="0%" style="stop-color:rgb(163,63,110);stop-opacity:1"/><stop offset="100%" style="stop-color:rgb(136,46,66);stop-opacity:1"/></linearGradient>
        <linearGradient id="_Linear169" x1="0" y1="0" x2="1" y2="0" gradientUnits="userSpaceOnUse" gradientTransform="matrix(7.76906,37.5002,-37.5002,7.76906,239.618,56.9016)"><stop offset="0%" style="stop-color:rgb(234,57,157);stop-opacity:1"/><stop offset="100%" style="stop-color:rgb(136,46,66);stop-opacity:1"/></linearGradient>
        <linearGradient id="_Linear171" x1="0" y1="0" x2="1" y2="0" gradientUnits="userSpaceOnUse" gradientTransform="matrix(-2.51764,-15.1062,15.1062,-2.51764,252.508,73.2385)"><stop offset="0%" style="stop-color:rgb(234,57,157);stop-opacity:1"/><stop offset="21%" style="stop-color:rgb(234,57,157);stop-opacity:1"/><stop offset="90%" style="stop-color:white;stop-opacity:1"/><stop offset="100%" style="stop-color:white;stop-opacity:1"/></linearGradient>
        <linearGradient id="_Linear173" x1="0" y1="0" x2="1" y2="0" gradientUnits="userSpaceOnUse" gradientTransform="matrix(3.47253,16.7614,-16.7614,3.47253,243.627,74.6003)"><stop offset="0%" style="stop-color:rgb(139,48,101);stop-opacity:1"/><stop offset="100%" style="stop-color:rgb(136,46,66);stop-opacity:1"/></linearGradient>
        <linearGradient id="_Linear175" x1="0" y1="0" x2="1" y2="0" gradientUnits="userSpaceOnUse" gradientTransform="matrix(-3.09926,-17.8215,17.8215,-3.09926,250.972,77.2551)"><stop offset="0%" style="stop-color:rgb(234,57,157);stop-opacity:1"/><stop offset="100%" style="stop-color:rgb(247,190,207);stop-opacity:1"/></linearGradient>
        <linearGradient id="_Linear177" x1="0" y1="0" x2="1" y2="0" gradientUnits="userSpaceOnUse" gradientTransform="matrix(-3.13614,-18.0336,18.0336,-3.13614,250.182,77.4719)"><stop offset="0%" style="stop-color:rgb(234,57,157);stop-opacity:1"/><stop offset="100%" style="stop-color:rgb(247,190,207);stop-opacity:1"/></linearGradient>
        <linearGradient id="_Linear179" x1="0" y1="0" x2="1" y2="0" gradientUnits="userSpaceOnUse" gradientTransform="matrix(-3.10271,-17.8414,17.8414,-3.10271,248.527,77.6755)"><stop offset="0%" style="stop-color:rgb(234,57,157);stop-opacity:1"/><stop offset="100%" style="stop-color:rgb(247,190,207);stop-opacity:1"/></linearGradient>
        <linearGradient id="_Linear181" x1="0" y1="0" x2="1" y2="0" gradientUnits="userSpaceOnUse" gradientTransform="matrix(-3.09883,-17.819,17.819,-3.09883,250.976,77.2492)"><stop offset="0%" style="stop-color:rgb(234,57,157);stop-opacity:1"/><stop offset="100%" style="stop-color:rgb(247,190,207);stop-opacity:1"/></linearGradient>
        <linearGradient id="_Linear183" x1="0" y1="0" x2="1" y2="0" gradientUnits="userSpaceOnUse" gradientTransform="matrix(2.29674,25.0889,-25.0889,2.29674,248.42,53.2766)"><stop offset="0%" style="stop-color:rgb(226,67,157);stop-opacity:1"/><stop offset="100%" style="stop-color:rgb(136,46,66);stop-opacity:1"/></linearGradient>
        <linearGradient id="_Linear185" x1="0" y1="0" x2="1" y2="0" gradientUnits="userSpaceOnUse" gradientTransform="matrix(1.71231,18.7048,-18.7048,1.71231,249.195,64.2316)"><stop offset="0%" style="stop-color:rgb(226,67,157);stop-opacity:1"/><stop offset="100%" style="stop-color:rgb(136,46,66);stop-opacity:1"/></linearGradient>
        <linearGradient id="_Linear187" x1="0" y1="0" x2="1" y2="0" gradientUnits="userSpaceOnUse" gradientTransform="matrix(0.878799,9.59982,-9.59982,0.878799,248.988,75.4997)"><stop offset="0%" style="stop-color:rgb(226,67,157);stop-opacity:1"/><stop offset="100%" style="stop-color:rgb(136,46,66);stop-opacity:1"/></linearGradient>
        <linearGradient id="_Linear189" x1="0" y1="0" x2="1" y2="0" gradientUnits="userSpaceOnUse" gradientTransform="matrix(2.00755,21.93,-21.93,2.00755,247.503,48.759)"><stop offset="0%" style="stop-color:rgb(226,67,157);stop-opacity:1"/><stop offset="100%" style="stop-color:rgb(136,46,66);stop-opacity:1"/></linearGradient>
        <linearGradient id="_Linear191" x1="0" y1="0" x2="1" y2="0" gradientUnits="userSpaceOnUse" gradientTransform="matrix(-2.06975,-12.4187,12.4187,-2.06975,242.926,57.57)"><stop offset="0%" style="stop-color:rgb(234,57,157);stop-opacity:1"/><stop offset="21%" style="stop-color:rgb(234,57,157);stop-opacity:1"/><stop offset="90%" style="stop-color:white;stop-opacity:1"/><stop offset="100%" style="stop-color:white;stop-opacity:1"/></linearGradient>
    </defs>
</svg>
